<?xml version="1.0" encoding="utf-8"?>
<!-- Generator: Adobe Illustrator 25.2.3, SVG Export Plug-In . SVG Version: 6.00 Build 0)  -->
<svg version="1.1" id="Logo" xmlns="http://www.w3.org/2000/svg" xmlns:xlink="http://www.w3.org/1999/xlink" x="0px" y="0px"
	 viewBox="0 0 30 30" style="enable-background:new 0 0 30 30;" xml:space="preserve">
<style type="text/css">
	.st0{fill:none;}
	.st1{fill-rule:evenodd;clip-rule:evenodd;fill:#00A0E9;}
	.st2{fill-rule:evenodd;clip-rule:evenodd;fill:#FFFFFF;}
</style>
<rect y="0" class="st0" width="30" height="30"/>
<g>
	<path id="XMLID_24_" class="st1" d="M14.76,2h9.99C26.55,2,28,3.45,28,5.24v19.52c0,1.79-1.45,3.24-3.24,3.24H5.24
		C3.45,28,2,26.55,2,24.76V14.8L14.76,2z"/>
	<path id="XMLID_23_" class="st2" d="M2,5.24C2,3.45,3.46,2,5.25,2h9.55L2,14.82V5.24z"/>
	<path id="XMLID_19_" class="st1" d="M8.01,7.13c0.05,0.05,0.13,0.05,0.18,0L8.53,6.8c0.05-0.05,0.05-0.13,0-0.18L7.36,5.45
		l2.23,0.24c0.02,0,0.06,0,0.1-0.04l0.42-0.42c0.08-0.08,0.02-0.19-0.07-0.2L7.68,4.81L7.55,2.68c-0.01-0.11-0.13-0.15-0.2-0.08
		L6.97,2.99C6.94,3.02,6.93,3.06,6.94,3.1l0.12,2.05L6.03,4.12c-0.05-0.05-0.13-0.05-0.18,0L5.51,4.45c-0.05,0.05-0.05,0.13,0,0.18
		L8.01,7.13z M5.25,9.92c0.04,0.04,0.11,0.04,0.15,0l0.36-0.36c0.04-0.04,0.04-0.11,0-0.15L4.7,8.36l1.25-1.25L7,8.18
		c0.04,0.04,0.1,0.04,0.15,0L7.5,7.82c0.04-0.04,0.04-0.11,0-0.15L4.96,5.14c-0.04-0.04-0.11-0.04-0.15,0L4.47,5.49
		c-0.04,0.04-0.04,0.11,0,0.15l1.01,1.01L4.23,7.9L3.22,6.89c-0.04-0.04-0.1-0.04-0.15,0L2.72,7.24c-0.04,0.04-0.04,0.11,0,0.15
		L5.25,9.92z"/>
	<path id="XMLID_15_" class="st2" d="M9.88,21.81c-3.67,0-4.77-2.87-2.93-4.42c0.61-0.54,1.71-0.79,2.28-0.84
		c2.22-0.23,4.25,0.6,6.64,1.77C14.22,20.45,12.05,21.81,9.88,21.81 M19.41,17.21c0.82-1.44,1.5-3.12,1.95-4.93h-4.69V10.6h5.71
		V9.67h-5.71V6.88h-2.32c-0.42,0-0.42,0.39-0.42,0.37v2.42H8.17v0.93h5.81v1.68H9.19v0.93h9.25c-0.34,1.13-0.79,2.23-1.35,3.21
		c-2.99-0.96-6.2-1.77-8.22-1.26c-1.3,0.3-2.11,0.86-2.6,1.44c-2.27,2.71-0.67,6.8,4.09,6.8c2.79,0,5.49-1.54,7.57-4.1
		c3.13,1.5,10.05,4.29,10.05,4.3v-3.63c0-0.01-1.55-0.32-4.94-1.46C22.06,18.2,20.8,17.72,19.41,17.21z"/>
</g>
</svg>
