<?xml version="1.0" encoding="utf-8"?>
<!-- Generator: Adobe Illustrator 25.2.3, SVG Export Plug-In . SVG Version: 6.00 Build 0)  -->
<svg version="1.1" id="图层_1" xmlns="http://www.w3.org/2000/svg" xmlns:xlink="http://www.w3.org/1999/xlink" x="0px" y="0px"
	 viewBox="0 0 30 30" style="enable-background:new 0 0 30 30;" xml:space="preserve">
<style type="text/css">
	.st0{fill:none;}
	.st1{fill:#1677FF;}
	.st2{fill:#3E3A39;}
	.st3{fill:#FFFFFF;}
	.st4{fill:#295DAA;}
	.st5{fill:#FDDB00;}
	.st6{fill:#F9E000;}
	.st7{fill:#1E1E1E;}
	.st8{fill:#3D3A39;}
	.st9{fill-rule:evenodd;clip-rule:evenodd;}
	.st10{fill-rule:evenodd;clip-rule:evenodd;fill:#00A0E9;}
	.st11{fill:#FF5E00;}
	.st12{fill:#457FAD;}
	.st13{fill:#446394;}
	.st14{fill:#6FBAF7;}
	.st15{fill:#007CFF;}
	.st16{fill:#002CB8;}
	.st17{fill:#002CB9;}
	.st18{fill:#6FBBF8;}
	.st19{fill:#0C00BA;}
	.st20{fill:#12D86C;}
	.st21{fill:#EC1B23;}
	.st22{fill:#9C080D;}
	.st23{fill:#FED300;}
	.st24{fill:#FF8300;}
	.st25{fill-rule:evenodd;clip-rule:evenodd;fill:#E60012;}
	.st26{fill:#F4811F;}
	.st27{fill:#6C6E70;}
	.st28{fill-rule:evenodd;clip-rule:evenodd;fill:#108EE9;}
	.st29{fill:#1E22AA;}
	.st30{clip-path:url(#SVGID_2_);}
	.st31{clip-path:url(#SVGID_4_);fill:#002CB9;}
	.st32{clip-path:url(#SVGID_4_);fill:#6FBBF8;}
	.st33{clip-path:url(#SVGID_4_);fill:#007CFF;}
</style>
<g>
	<rect class="st0" width="30" height="30"/>
	<g>
		<path class="st1" d="M16.77,12.98c-1.47,1.79-3.36,2.88-5.32,2.88c-3.32-0.01-4.44-2.9-2.87-4.81c0.34-0.41,0.93-0.81,1.83-1.03
			c1.42-0.34,3.67,0.22,5.77,0.92c0.38-0.7,0.7-1.46,0.94-2.28l-6.5-0.01l0-0.66L13.98,8l0-1.18L9.92,6.82l0-0.66l4.06,0.01l0-1.68
			c0,0,0-0.28,0.29-0.28l1.64,0l0,1.96l4.02,0.01l0,0.66l-4.02-0.01l0,1.18l3.28,0.01c-0.32,1.28-0.79,2.46-1.39,3.49
			c0.99,0.36,1.89,0.7,2.55,0.92c2.2,0.74,2.84,0.84,2.94,0.85v-0.01l0.01-8.59c0-1.47-1.19-2.66-2.66-2.66L9.33,2
			C7.86,2,6.66,3.18,6.66,4.65L6.64,15.92c0,1.47,1.19,2.66,2.66,2.66l11.3,0.02c1.47,0,2.66-1.19,2.67-2.65l0-0.11
			C23.12,15.77,18.91,14.02,16.77,12.98"/>
		<path class="st1" d="M10.69,11.01c-0.42,0.04-1.2,0.22-1.62,0.6c-1.28,1.11-0.52,3.14,2.07,3.15c1.5,0,3.01-0.95,4.19-2.49
			C13.65,11.45,12.23,10.86,10.69,11.01"/>
		<path class="st2" d="M20.43,22.16l3.6,0.01l0,0.71l1.29,0l0-0.71l0-0.13c0,0,0,0,0-0.01c0-0.19-0.15-0.34-0.33-0.35l-2.08,0
			l0-0.66l-1.35,0l0,0.66l-2.41,0l0,0.24l0,0.24l0,0.71l1.29,0L20.43,22.16z"/>
		<polygon class="st2" points="12.64,21.06 11.31,24.18 12.33,24.18 12.32,27.9 13.43,27.9 13.43,22.97 13.03,22.97 13.87,21.07 		
			"/>
		<path class="st2" d="M25.06,26.38c-0.03-0.09-0.11-0.15-0.2-0.15l-1.07,0l0.31,1.05l-1.26,0l0-2.03l2.47,0l0-0.48l-2.47,0l0-0.96
			l2.47,0l0-0.48l-2.47,0l-1.23,0l-2.47,0l0,0.48l2.47,0l0,0.96l-2.47,0l0,0.48l2.47,0l0,2.03l-2.47,0l0,0.48l6.32,0.01L25.06,26.38
			z"/>
		<path class="st2" d="M15.24,23.48l-0.96,0l0.74,2.35l1.13,0l-0.69-2.21C15.42,23.54,15.34,23.48,15.24,23.48"/>
		<path class="st2" d="M17.89,21.01l-1.15,0l0,1.32l-2.83,0l0,0.48l2.83,0l-0.01,4.32c-0.01,0.1-0.09,0.18-0.19,0.18l-0.58,0l0,0.5
			l1.49,0c0.24-0.01,0.42-0.2,0.43-0.45v-0.05l0.01-4.5l0.47,0l0-0.48l-0.47,0L17.89,21.01z"/>
		<path class="st2" d="M11.13,27.44c-1.05-0.38-1.88-0.81-2.53-1.21c0.95-0.7,1.78-1.65,2.11-2.92l-2.21,0l0-0.79l2.56,0l0-0.49
			l-2.56,0l0-1l-1.14,0l0,0c-0.12,0-0.23,0.1-0.23,0.23v0l0,0.77l-2.54,0l0,0.49l2.54,0l0,0.79l-2.15,0l0,0.49l4.28,0.01
			c0,0-0.24,0.92-1.41,1.92c-1.05-0.8-1.4-1.43-1.4-1.43l-1.15,0c0.46,0.8,1.12,1.45,1.83,1.96c-0.65,0.42-1.5,0.83-2.59,1.16
			l0,0.59c0,0,1.69-0.32,3.32-1.27C9.49,27.67,11.13,28,11.13,28L11.13,27.44z"/>
	</g>
</g>
</svg>
