<svg xmlns="http://www.w3.org/2000/svg" viewBox="0 0 38 23.9"><defs><style>.a{fill:#e8e8e8;}.b{fill:#fff;}.c{fill:#eb5505;}</style></defs><title>au</title><path class="a" d="M35,0H3A2.94,2.94,0,0,0,0,3V20.91a2.94,2.94,0,0,0,3,3H35a2.94,2.94,0,0,0,3-3V3A3,3,0,0,0,35,0Z"/><path class="b" d="M35,1a2,2,0,0,1,2,2V20.91a2,2,0,0,1-2,2H3a2,2,0,0,1-2-2V3A2,2,0,0,1,3,1H35"/><path class="c" d="M31.34,10.23c-3.12,4.79-4.47,5.48-5,5.37s-.17-1.27-.17-1.27l2-7.41a3.53,3.53,0,0,0-3.6,2.63l-.77,2.89a4.21,4.21,0,0,1-3.45,3.16c-1.16,0-.53-1.77-.53-1.77l1.85-6.91a3.44,3.44,0,0,0-3.58,2.6L17.16,13c-.32,1.26-2.05,2.73-2.62,2.63s-.18-1.42-.18-1.42L16.3,6.93s-5-.3-7.72,1.54a8.46,8.46,0,0,0-3.39,5.81,2.18,2.18,0,0,0,1.65,2.45,4.67,4.67,0,0,0,4.89-1.64s0,1.61,2,1.78,3.4-1.76,3.4-1.76.13,1.62,2.41,1.74a4.68,4.68,0,0,0,4.06-1.74,2,2,0,0,0,1.64,1.72,4.39,4.39,0,0,0,3.64-1.46,43,43,0,0,0,4-5.14H31.34ZM11.95,12.4a5.62,5.62,0,0,1-1.26,2.18c-.63.63-2,1.3-2.64.91s.05-2.2.14-2.48a9.06,9.06,0,0,1,2.2-3.57,5.89,5.89,0,0,1,2.72-1.35S12.08,11.89,11.95,12.4Z"/></svg>