<?xml version="1.0" encoding="utf-8"?>
<!-- Generator: Adobe Illustrator 23.0.6, SVG Export Plug-In . SVG Version: 6.00 Build 0)  -->
<svg version="1.1" id="Layer_1" xmlns="http://www.w3.org/2000/svg" xmlns:xlink="http://www.w3.org/1999/xlink" x="0px" y="0px"
	 viewBox="0 0 323 85" style="enable-background:new 0 0 323 85;" xml:space="preserve">
<style type="text/css">
	.st0{fill:none;}
	.st1{fill:#EB5505;}
</style>
<rect x="-0.02" y="-0.02" class="st0" width="323.03" height="85.04"/>
<g>
	<path class="st1" d="M166.91,33.37h-7.82c-0.06,0-0.11,0.03-0.15,0.07c-6.27,9.59-13.49,19.24-19.36,24.77
		c-2.02,1.93-5.25,4.26-7.37,4.26c-1.81,0-2.81-1.73-1.36-7.22c0.91-3.35,9.96-37.18,10.69-39.9c0.03-0.11-0.03-0.18-0.14-0.18
		c-2.99-0.02-15.61-0.36-19.9,15.6c0,0-2.78,10.35-3.96,14.72c-0.78,2.64-1.89,5.08-3.3,7.23c-4.7,7.17-11.33,10.2-15.23,10.2
		c-2.41,0-3.77-1.04-4.21-2.86c-0.42-1.78,0.44-5.42,0.9-7.19c0.26-0.94,4.26-15.9,7.15-26.69c1.49-5.56,2.66-9.92,2.9-10.82v-0.01
		c0-0.02,0-0.02,0-0.02c0-0.08-0.05-0.14-0.14-0.15c-2.99-0.02-15.6-0.36-19.88,15.56c0,0.02-4.8,17.81-4.8,17.81
		c-0.31,1.08-1.13,3.28-2.5,5.26c-3.07,4.41-8.5,8.68-11.4,8.68c-2.05,0-2.87-1.92-1.45-7.22l10.68-39.9
		c0.03-0.11-0.03-0.17-0.13-0.17h-4.58c-16.82,0-28.8,2.7-37.7,8.51c-14.93,9.76-18.7,29.07-18.7,33.02c0,4.25,1.3,13.1,16,13.1
		c0.17,0,0.35,0,0.53,0c8.9-0.18,15.2-4.88,19.01-9.24c0.1-0.11,0.24-0.27,0.34-0.39c0.07-0.07,0.13-0.04,0.15,0.05
		c1.52,8.48,9.28,9.17,11.7,9.17c9.16,0,15.89-6.7,17.76-9.2c0.07-0.06,0.14-0.06,0.15,0.04c0.96,4.35,4.35,9.6,15.65,9.6
		c9.18,0,15.66-4.82,19.55-9.25c0.11-0.14,0.22-0.26,0.32-0.39c0.06-0.07,0.14-0.05,0.14,0.05c1.4,7.83,8.19,9.15,11.56,9.15
		c7.47,0,12.82-3.4,18.73-9.62c7.09-7.5,16.4-20.52,20.26-26.25C167.05,33.43,167.02,33.37,166.91,33.37 M58.69,21.65l-6.14,22.92
		c-0.79,3.01-2,5.75-3.57,8.15c-4.7,7.17-10.95,10.2-15.23,10.2c-4.78,0-4.92-3.99-3.29-10.08c6.47-24.2,20.98-29.83,28.1-31.33
		C58.65,21.49,58.71,21.55,58.69,21.65"/>
	<g>
		<path class="st1" d="M265,69.83h-10.31l-3.65-10.65h-19.78l-3.65,10.65h-10.3l20.04-54.66h7.6L265,69.83 M234.21,50.71h14.05
			l-6.92-20.26L234.21,50.71z"/>
		<polygon class="st1" points="307.83,15.17 296.58,15.17 283.15,42.67 269.72,15.17 258.48,15.17 278.32,53.61 278.32,69.83 
			287.99,69.83 287.99,53.61 		"/>
		<path class="st1" d="M199.01,53.15c10.47,0,18.99-8.52,18.99-18.99c0-10.47-8.52-18.99-18.99-18.99h-21.09v54.66h9.67V53.16
			L199.01,53.15 M187.58,44.38V24.01h10.57c5.62,0,10.19,4.57,10.19,10.19c0,5.62-4.57,10.19-10.19,10.19L187.58,44.38z"/>
	</g>
</g>
</svg>
