<svg id="icon" xmlns="http://www.w3.org/2000/svg" viewBox="0 0 38 23.88"><defs><style>.cls-1{fill:#e8e8e8;}.cls-2{fill:#fff;}.cls-3{fill:#00388b;}.cls-4{fill:#abcd03;}.cls-5{fill:#e62e8b;}</style></defs><title>bitcash</title><path class="cls-1" d="M35,0H3A3,3,0,0,0,0,2.88v18a3,3,0,0,0,2.88,3H35A3,3,0,0,0,38,21V3A3,3,0,0,0,35,0Z" transform="translate(0 0)"/><path class="cls-2" d="M35,1a2,2,0,0,1,2,2V20.91a2,2,0,0,1-2,2H3a2,2,0,0,1-2-2V3A2,2,0,0,1,3,1H35" transform="translate(0 0)"/><path class="cls-3" d="M23.2,10.25h0a4.5,4.5,0,0,0-3.62-6.89h-.17a8.53,8.53,0,0,0-6.07,2.52l0,0A8.78,8.78,0,0,0,11.37,9a8.61,8.61,0,0,0-.53,3,8.36,8.36,0,0,0,.78,3.57A8.71,8.71,0,0,0,13.36,18a8.58,8.58,0,0,0,5.16,2.47l.54,0,.35,0h.21a6.48,6.48,0,0,0,1.27-.19A5.85,5.85,0,0,0,25,16.19a5.56,5.56,0,0,0,.19-1.48A5.84,5.84,0,0,0,23.2,10.25ZM19.51,17h-.13a1.1,1.1,0,0,1-.26,0,5,5,0,0,1-3.31-1.48,6,6,0,0,1-.6-.73,5,5,0,0,1-.88-2.83,5.2,5.2,0,0,1,.06-.69,5.06,5.06,0,0,1,1.42-2.87,5,5,0,0,1,3.06-1.45,2.13,2.13,0,0,0,.25,0h.26a1,1,0,1,1,0,1.92,1.74,1.74,0,0,0-1.45.76,1.71,1.71,0,0,0-.32,1,1.77,1.77,0,0,0,1.77,1.77h.13a2.32,2.32,0,0,1,0,4.64Z" transform="translate(0 0)"/><path class="cls-4" d="M19.51,12.37h-.13a1.77,1.77,0,1,1,0-3.53h-.22A4.07,4.07,0,0,0,16.49,10a4.1,4.1,0,0,0,0,5.78A4.08,4.08,0,0,0,19.16,17h.35a2.32,2.32,0,0,0,0-4.63Z" transform="translate(0 0)"/><path class="cls-5" d="M19.39,17h-.21a4.09,4.09,0,0,1-2.68-7,4.06,4.06,0,0,1,2.68-1.19h.21a1,1,0,0,0,0-1.93h-.26a5.05,5.05,0,0,0,0,10.09Z" transform="translate(0 0)"/></svg>