<?xml version="1.0" standalone="no"?>
<!DOCTYPE svg PUBLIC "-//W3C//DTD SVG 20010904//EN"
 "http://www.w3.org/TR/2001/REC-SVG-20010904/DTD/svg10.dtd">
<svg version="1.0" xmlns="http://www.w3.org/2000/svg"
 width="224.000000pt" height="225.000000pt" viewBox="0 0 224.000000 225.000000"
 preserveAspectRatio="xMidYMid meet">

<g transform="translate(0.000000,225.000000) scale(0.100000,-0.100000)"
fill="#000000" stroke="none">
<path d="M951 1664 c-521 -133 -531 -137 -531 -198 1 -54 157 -656 175 -677
21 -22 55 -26 55 -5 0 7 -9 20 -20 27 -14 10 -31 60 -63 191 l-45 178 42 10
c63 17 68 19 63 33 -4 13 -23 14 -78 3 l-36 -8 -12 46 c-18 71 -18 71 64 90
50 12 75 22 75 32 0 18 -21 18 -90 -1 -30 -8 -60 -15 -66 -15 -6 0 -16 21 -22
48 -19 83 -42 73 501 211 266 68 493 121 503 119 20 -4 38 -35 48 -84 l7 -31
-206 -53 c-138 -36 -205 -58 -205 -67 0 -20 20 -17 227 36 l193 49 10 -36 c5
-21 10 -43 10 -49 0 -7 9 -13 20 -13 25 0 25 -8 -10 130 -31 122 -56 161 -103
159 -12 -1 -240 -57 -506 -125z"/>
<path d="M695 1435 l-25 -24 0 -346 0 -347 29 -29 29 -29 517 0 517 0 29 29
29 29 0 347 0 346 -25 24 -24 25 -526 0 -526 0 -24 -25z m1067 -17 c11 -9 18
-31 19 -68 l3 -55 -537 -3 -537 -2 0 59 c0 47 4 62 18 70 27 16 1013 15 1034
-1z m18 -218 l0 -60 -535 0 -535 0 0 60 0 60 535 0 535 0 0 -60z m0 -289 c0
-116 -5 -190 -12 -198 -15 -18 -1028 -19 -1046 -1 -8 8 -12 67 -12 200 l0 188
536 -2 536 -3 -2 -184z"/>
<path d="M765 989 c-16 -25 18 -29 201 -27 160 3 189 5 189 18 0 13 -29 15
-192 18 -132 2 -194 -1 -198 -9z"/>
<path d="M1564 918 c-24 -11 -44 -48 -44 -79 0 -32 53 -79 90 -79 44 0 80 39
80 85 0 66 -64 103 -126 73z m87 -51 c17 -31 -4 -67 -39 -67 -34 0 -52 16 -52
46 0 48 69 64 91 21z"/>
<path d="M557 282 c-42 -46 3 -127 58 -106 25 10 17 30 -12 29 -22 0 -29 5
-31 23 -5 30 16 54 39 47 13 -4 19 -1 19 9 0 23 -53 21 -73 -2z"/>
<path d="M660 240 c0 -47 3 -60 15 -60 8 0 15 9 15 20 0 11 4 20 9 20 5 0 13
-9 16 -20 4 -11 15 -20 26 -20 17 0 18 3 9 20 -8 14 -8 26 0 40 18 34 -4 60
-50 60 l-40 0 0 -60z m65 20 c0 -8 -8 -16 -17 -18 -13 -2 -18 3 -18 18 0 15 5
20 18 18 9 -2 17 -10 17 -18z"/>
<path d="M790 240 l0 -60 40 0 c22 0 40 5 40 10 0 6 -11 10 -25 10 -16 0 -25
6 -25 15 0 8 9 15 20 15 11 0 20 5 20 10 0 6 -9 10 -20 10 -11 0 -20 7 -20 15
0 9 9 15 25 15 14 0 25 5 25 10 0 6 -18 10 -40 10 l-40 0 0 -60z"/>
<path d="M900 240 l0 -61 37 3 c29 2 41 9 53 31 13 24 13 30 0 55 -12 21 -24
28 -53 30 l-37 3 0 -61z m64 17 c8 -12 8 -22 0 -34 -21 -33 -34 -26 -34 17 0
43 13 50 34 17z"/>
<path d="M1020 240 c0 -47 3 -60 15 -60 12 0 15 13 15 60 0 47 -3 60 -15 60
-12 0 -15 -13 -15 -60z"/>
<path d="M1080 290 c0 -5 7 -10 15 -10 11 0 15 -12 15 -50 0 -38 4 -50 15 -50
11 0 15 12 15 50 0 43 3 50 20 50 11 0 20 5 20 10 0 6 -22 10 -50 10 -27 0
-50 -4 -50 -10z"/>
<path d="M1253 288 c-42 -52 -5 -127 56 -111 27 7 22 29 -7 25 -28 -4 -47 30
-32 59 7 11 19 19 30 17 11 -2 20 2 22 7 5 15 -57 18 -69 3z"/>
<path d="M1375 288 c-3 -7 -11 -34 -19 -60 -12 -41 -12 -48 0 -48 8 0 14 5 14
10 0 6 11 10 25 10 14 0 25 -4 25 -10 0 -5 7 -10 15 -10 19 0 19 2 -2 67 -12
39 -22 53 -35 53 -10 0 -21 -6 -23 -12z m35 -48 c0 -12 -5 -17 -14 -14 -8 3
-12 13 -9 25 6 23 23 15 23 -11z"/>
<path d="M1470 241 c0 -48 3 -61 15 -61 8 0 15 9 15 20 0 11 4 20 10 20 5 0
14 -9 20 -20 6 -11 17 -20 26 -20 12 0 12 4 4 20 -8 14 -7 25 2 40 20 31 -1
54 -51 58 l-41 3 0 -60z m65 19 c0 -8 -8 -16 -17 -18 -13 -2 -18 3 -18 18 0
15 5 20 18 18 9 -2 17 -10 17 -18z"/>
<path d="M1600 240 l0 -61 37 3 c29 2 41 9 53 31 13 24 13 30 0 55 -12 21 -24
28 -53 30 l-37 3 0 -61z m64 17 c8 -12 8 -22 0 -34 -21 -33 -34 -26 -34 17 0
43 13 50 34 17z"/>
</g>
</svg>
