<?xml version="1.0" encoding="utf-8"?>
<!-- Generator: Adobe Illustrator 25.2.3, SVG Export Plug-In . SVG Version: 6.00 Build 0)  -->
<svg version="1.1" id="Layer_1" xmlns="http://www.w3.org/2000/svg" xmlns:xlink="http://www.w3.org/1999/xlink" x="0px" y="0px"
	 viewBox="0 0 38 24" style="enable-background:new 0 0 38 24;" xml:space="preserve">
<style type="text/css">
	.st0{opacity:7.000000e-02;enable-background:new    ;}
	.st1{fill:#FFFFFF;}
	.st2{fill:#FDFDFD;}
	.st3{fill:#FE3838;}
	.st4{fill:#2D2D2D;}
	.st5{fill:#333333;}
	.st6{fill:#343434;}
	.st7{fill:#393939;}
	.st8{fill:#2B2B2B;}
	.st9{fill:#2A2A2A;}
	.st10{fill:#292929;}
	.st11{fill:#0C0C0C;}
	.st12{fill:#0A0A0A;}
	.st13{fill:#111111;}
	.st14{fill:#131313;}
	.st15{fill:#121212;}
	.st16{fill:#101010;}
	.st17{fill:#FE191A;}
	.st18{fill:#202020;}
	.st19{fill:#010101;}
	.st20{fill:#0F0F0F;}
	.st21{fill:#FD2828;}
</style>
<path class="st0" d="M35,0H3C1.3,0,0,1.3,0,3v18c0,1.7,1.4,3,3,3h32c1.7,0,3-1.3,3-3V3C38,1.3,36.6,0,35,0z"/>
<path class="st1" d="M35,1c1.1,0,2,0.9,2,2v18c0,1.1-0.9,2-2,2H3c-1.1,0-2-0.9-2-2V3c0-1.1,0.9-2,2-2H35"/>
<g>
	<g>
		<path class="st2" d="M27.3,20.3c-5.5,0-11.1,0-16.6,0c0-5.5,0-11.1,0-16.6c5.5,0,11.1,0,16.6,0C27.3,9.2,27.3,14.8,27.3,20.3z
			 M23,13.1c-0.6,0-1.1,0-1.7,0c0-0.2-0.1-0.4-0.1-0.6c-0.1,0-0.2,0-0.3,0c0,0.2,0,0.4,0,0.5c0,0.2,0.1,0.3,0.3,0.3
			c0.6,0,1.2,0,1.8,0C23,13.2,23,13.1,23,13.1z M23.5,13.1C23.5,13.1,23.5,13.1,23.5,13.1c0.9,0.1,1.7,0.1,2.5,0.1c0,0,0,0,0.1-0.1
			c0-0.1,0-0.1,0-0.2c0,0,0,0-0.1-0.1c-0.8,0-1.6,0-2.4,0c0,0,0,0-0.1,0C23.5,13,23.5,13,23.5,13.1z M25.8,10.7
			C25.7,10.7,25.7,10.7,25.8,10.7c-0.7-0.1-1.3-0.1-2-0.1c0,0.5,0,1,0,1.4c0.1,0.1,0.2,0.2,0.3,0.2c0.6,0,1.2,0,1.8,0
			c0-0.1,0-0.2,0-0.2c0,0-0.1,0-0.1-0.1c-0.5,0-1.1,0-1.6,0c0-0.4,0-0.7,0-1.1c0.6,0,1.1,0,1.7,0C25.8,10.9,25.8,10.8,25.8,10.7z
			 M17.3,12.9C17.3,12.8,17.4,12.8,17.3,12.9c0.1-0.3,0.1-0.5,0.1-0.7c0,0,0,0-0.1-0.1c-0.6,0-1.3,0-1.9,0c0,0,0,0-0.1,0
			c0,0.1,0,0.2,0,0.3c0.6,0,1.1,0,1.7,0c0.2,0.2,0,0.2-0.1,0.2c-0.5,0-1,0-1.5,0c0,0-0.1,0.1-0.1,0.1c-0.1,0.5,0,0.5,0.3,0.6
			c0,0,0.1,0,0.1,0c0.6,0,1.1,0,1.7,0c0,0,0,0,0.1,0c0-0.1,0-0.2,0-0.3c-0.6,0-1.1,0-1.7,0c-0.1-0.2,0-0.2,0.1-0.2
			C16.3,12.9,16.8,12.9,17.3,12.9z M17.2,10.6C17.2,10.6,17.1,10.6,17.2,10.6c-0.1,0.2-0.1,0.3-0.1,0.5c-0.2,0-0.3,0-0.5,0
			c0-0.3,0-0.5-0.3-0.5c-0.4,0-0.7,0-1.1,0c0,0.1,0,0.2,0,0.3c0.3,0,0.6,0,0.9,0c0.2,0,0.2,0,0.2,0.2c-0.4,0-0.7,0-1.1,0
			c0,0.1,0,0.2,0,0.3c0.3,0,0.6,0,0.9,0c0,0,0,0.1,0,0.1c-0.3,0.1-0.6,0.1-1,0.2c0.1,0.1,0.2,0.2,0.2,0.2c0.4,0,0.8,0,1.1-0.3
			c0.2-0.2,0.5-0.2,0.8-0.2c0,0.2,0,0.3,0,0.5c0.1,0,0.2,0,0.3,0c0-0.5,0-0.9,0-1.4C17.3,10.6,17.2,10.6,17.2,10.6z M22.4,10.6
			c-0.1,0-0.2,0-0.2,0c0,0.5,0,0.9,0,1.3c-0.3,0-0.5,0-0.8,0C21,12,21,12,21,11.6c0.3,0,0.6,0,0.9,0c0-0.2,0-0.4,0-0.6
			c0-0.2-0.1-0.3-0.3-0.4c-0.3,0-0.6,0-0.9,0c0,0.1,0,0.2,0,0.3c0.3,0,0.6,0,0.9,0c0,0.1,0,0.2,0,0.3c-0.3,0-0.6,0-0.9,0
			c0,0.2,0,0.3,0,0.5c0,0.4,0.1,0.5,0.5,0.5c0.3,0,0.7,0,1,0c0,0.1,0,0.2,0,0.3c0.1,0,0.2,0,0.3,0c0-0.3,0-0.6,0-0.9
			c0.1,0,0.1,0,0.2,0c0.2,0.3,0,0.6,0.1,1c0.1,0,0.2,0,0.3,0c0-0.6,0-1.3,0-1.9c-0.3-0.1-0.3,0-0.3,0.3c0,0.1,0,0.2,0,0.2
			c0,0.1-0.1,0.1-0.2,0.2C22.5,11,22.5,10.8,22.4,10.6C22.4,10.6,22.4,10.6,22.4,10.6z M14.6,4.6c-1.5,0-2.9,1.4-2.9,2.9
			c0,2.9,0,5.8,0,8.8c0,1.6,1.4,3,3,3c2.9,0,5.8,0,8.7,0c1.4,0,2.6-1,2.9-2.3c0.1-0.8,0.1-1.7,0.1-2.5c0,0,0,0,0,0c0,0,0,0-0.1,0
			c-0.6,0-1.2,0-1.9,0c0,0.2,0,0.4,0,0.6c0,1.3-1,2.2-2.2,2.3c-2.1,0-4.1,0-6.2,0c-1.3,0-2.3-1-2.3-2.2c0-2.1,0-4.1,0-6.2
			c0-1.2,1-2.2,2.2-2.2c2.1,0,4.2,0,6.3,0c1.1,0,2,0.7,2.2,1.8c0.1,0.3,0.1,0.7,0.1,1.1c0.7,0,1.3,0,2,0c0-0.7,0-1.3,0-2
			c-0.1-1.6-1.4-2.9-2.9-2.9c0,0,0,0-0.1,0c-2.2,0-4.5,0-6.7,0C16,4.6,15.3,4.6,14.6,4.6C14.6,4.6,14.6,4.6,14.6,4.6z M17.8,12.9
			c0.1,0.1,0.1,0.1,0.2,0.2c0.2-0.3,0.5-0.6,0.7-0.8c0.2,0.3,0.4,0.5,0.7,0.8c0.1-0.1,0.1-0.1,0.2-0.1c0,0,0.1,0,0.1,0
			c-0.6-0.5-0.9-1.1-0.8-1.8c0.2,0,0.4,0,0.6,0c0-0.1,0-0.2,0-0.3c-0.2,0-0.4,0-0.6,0c0-0.1,0-0.2,0-0.4c-0.1,0-0.2,0-0.3,0
			c0,0.1,0,0.2,0,0.3c-0.2,0-0.4,0.1-0.6,0.1c0,0,0,0.1,0,0.1c0.2,0,0.4,0.1,0.6,0.1C18.5,11.9,18.4,12.2,17.8,12.9z M20.2,13.3
			c0-0.9,0-1.8,0-2.7c-0.1,0-0.2,0-0.3,0c0,0.2,0,0.5,0,0.7c-0.2,0-0.4,0-0.6,0c0,0.1,0,0.2,0,0.3c0.2,0,0.4,0,0.6,0
			c0,0.1,0,0.2,0,0.4c-0.6,0-0.6,0-0.6,0.3c0.2,0,0.4,0,0.6,0c0,0.3,0,0.7,0,1C20,13.3,20.1,13.3,20.2,13.3z"/>
		<path class="st3" d="M26.3,14.5C26.3,14.5,26.3,14.5,26.3,14.5c0,0.9,0.1,1.7-0.1,2.5c-0.2,1.3-1.5,2.3-2.9,2.3
			c-2.9,0-5.8,0-8.7,0c-1.6,0-3-1.4-3-3c0-2.9,0-5.8,0-8.8c0-1.6,1.4-3,2.9-2.9c0,0,0,0,0.1,0c0.7,0,1.3,0,2,0c2.2,0,4.5,0,6.7,0
			c0,0,0,0,0.1,0c1.5,0,2.9,1.3,2.9,2.9c0,0.7,0,1.3,0,2c-0.7,0-1.3,0-2,0c0-0.4,0-0.7-0.1-1.1c-0.2-1.1-1.1-1.8-2.2-1.8
			c-2.1,0-4.2,0-6.3,0c-1.2,0-2.2,1-2.2,2.2c0,2.1,0,4.1,0,6.2c0,1.3,1,2.2,2.3,2.2c2.1,0,4.1,0,6.2,0c1.3,0,2.2-1,2.2-2.3
			c0-0.2,0-0.4,0-0.6C25,14.5,25.6,14.5,26.3,14.5C26.2,14.5,26.2,14.5,26.3,14.5z"/>
		<path class="st4" d="M22.4,10.6c0,0.2,0,0.4,0.1,0.7c0.1-0.1,0.2-0.2,0.2-0.2c0-0.1,0-0.2,0-0.2c0-0.2,0.1-0.3,0.3-0.3
			c0,0.6,0,1.2,0,1.9c-0.1,0-0.2,0-0.3,0c-0.1-0.3,0.1-0.7-0.1-1c-0.1,0-0.1,0-0.2,0c0,0.3,0,0.6,0,0.9c-0.1,0-0.2,0-0.3,0
			c0-0.1,0-0.2,0-0.3c-0.3,0-0.7,0-1,0c-0.4,0-0.5-0.1-0.5-0.5c0-0.2,0-0.3,0-0.5c0.3,0,0.6,0,0.9,0c0-0.1,0-0.2,0-0.3
			c-0.3,0-0.6,0-0.9,0c0-0.1,0-0.2,0-0.3c0.3,0,0.6,0,0.9,0c0.2,0,0.3,0.1,0.3,0.4c0,0.2,0,0.4,0,0.6c-0.3,0-0.6,0-0.9,0
			C21,12,21,12,21.4,12c0.3,0,0.5,0,0.8,0c0-0.5,0-0.9,0-1.3C22.2,10.6,22.3,10.6,22.4,10.6C22.4,10.6,22.4,10.6,22.4,10.6z"/>
		<path class="st5" d="M17.2,10.6c0.1,0,0.1,0,0.2,0c0,0.5,0,0.9,0,1.4c-0.1,0-0.2,0-0.3,0c0-0.2,0-0.3,0-0.5
			c-0.3,0-0.5-0.1-0.8,0.2c-0.3,0.3-0.7,0.3-1.1,0.3c-0.1,0-0.1-0.1-0.2-0.2c0.4-0.1,0.7-0.1,1-0.2c0,0,0-0.1,0-0.1
			c-0.3,0-0.6,0-0.9,0c0-0.1,0-0.2,0-0.3c0.4,0,0.7,0,1.1,0c0.1-0.2,0-0.2-0.2-0.2c-0.3,0-0.6,0-0.9,0c0-0.1,0-0.2,0-0.3
			c0.4,0,0.7,0,1.1,0c0.3,0,0.3,0.2,0.3,0.5c0.2,0,0.3,0,0.5,0C17.1,10.9,17.1,10.8,17.2,10.6C17.1,10.6,17.2,10.6,17.2,10.6z"/>
		<path class="st4" d="M17.8,12.9c0.6-0.7,0.8-1,0.7-1.7c-0.2,0-0.4-0.1-0.6-0.1c0,0,0-0.1,0-0.1c0.2,0,0.4-0.1,0.6-0.1
			c0-0.1,0-0.2,0-0.3c0.1,0,0.2,0,0.3,0c0,0.1,0,0.3,0,0.4c0.2,0,0.4,0,0.6,0c0,0.1,0,0.2,0,0.3c-0.2,0-0.4,0-0.6,0
			c-0.1,0.7,0.2,1.3,0.8,1.8c-0.1,0-0.1,0-0.1,0c0,0-0.1,0.1-0.2,0.1c-0.2-0.3-0.5-0.6-0.7-0.8c-0.2,0.3-0.4,0.5-0.7,0.8
			C17.9,13,17.8,13,17.8,12.9z"/>
		<path class="st6" d="M17.4,13.1c0,0.1,0,0.2,0,0.3c0,0,0,0-0.1,0c-0.6,0-1.1,0-1.7,0c0,0-0.1,0-0.1,0c-0.3-0.1-0.3-0.2-0.3-0.6
			c0,0,0.1-0.1,0.1-0.1c0.5,0,1,0,1.5,0c0.1,0,0.3,0,0.1-0.2c-0.2,0-0.4-0.1-0.6-0.1c-0.4,0-0.7,0-1.1,0c0-0.1,0-0.2,0-0.3
			c0,0,0,0,0.1,0c0.6,0,1.3,0,1.9,0c0,0,0,0,0.1,0.1c0,0.2,0,0.4,0,0.6c0,0,0,0.1-0.1,0.1c-0.5,0-1,0-1.5,0c-0.1,0-0.2,0-0.1,0.2
			c0.1,0,0.2,0.1,0.3,0.1c0.4,0,0.7,0,1.1,0C17.1,13.1,17.3,13.1,17.4,13.1z"/>
		<path class="st7" d="M20.2,13.3c-0.1,0-0.2,0-0.3,0c0-0.3,0-0.7,0-1c-0.2,0-0.4,0-0.6,0c0-0.3,0-0.3,0.6-0.3c0-0.1,0-0.2,0-0.4
			c-0.2,0-0.4,0-0.6,0c0-0.1,0-0.2,0-0.3c0.2,0,0.4,0,0.6,0c0-0.3,0-0.5,0-0.7c0.1,0,0.2,0,0.3,0C20.2,11.5,20.2,12.4,20.2,13.3z"/>
		<path class="st8" d="M23.8,10.7c0.6,0,1.3,0,1.9,0c0,0,0,0,0,0.1c0,0.1,0,0.1,0,0.2c-0.6,0-1.1,0-1.7,0c0,0.4,0,0.7,0,1.1
			c0.6,0,1.1,0,1.6,0c0,0,0.1,0,0.1,0.1c0,0.1,0,0.1,0,0.2c-0.6,0-1.2,0-1.8,0c-0.1,0-0.2-0.1-0.3-0.2
			C23.8,11.6,23.8,11.1,23.8,10.7z"/>
		<path class="st9" d="M26,13.2c-0.8,0-1.6,0-2.4,0c0,0-0.1,0-0.1-0.1c0-0.1,0-0.1,0-0.2c0,0,0,0,0.1,0c0.8,0,1.6,0,2.4,0
			c0,0,0,0,0.1,0.1C26,13,26,13.1,26,13.2C26,13.1,26,13.1,26,13.2z"/>
		<path class="st10" d="M21.2,13.3c-0.2,0-0.3-0.1-0.3-0.3c0-0.2,0-0.3,0-0.5c0.1,0,0.2,0,0.3,0c0,0.2,0.1,0.4,0.1,0.6
			c0.6,0,1.1,0,1.7,0c0,0.1,0,0.2,0,0.3c-0.4,0-0.9,0-1.3,0C21.5,13.3,21.4,13.3,21.2,13.3z"/>
		<path d="M21.2,13.3c0.2,0,0.3,0,0.5,0c0.4,0,0.9,0,1.3,0C22.4,13.3,21.8,13.3,21.2,13.3z"/>
		<path d="M17.4,13.1c-0.1,0-0.2,0-0.4,0.1c-0.4,0-0.7,0-1.1,0c-0.1,0-0.2,0-0.3-0.1C16.2,13.1,16.8,13.1,17.4,13.1z"/>
		<path d="M23,13.1c-0.6,0-1.1,0-1.7,0C21.9,13.1,22.5,13.1,23,13.1z"/>
		<path d="M15.3,12.4c0.4,0,0.7,0,1.1,0c0.2,0,0.4,0,0.6,0.1C16.5,12.4,15.9,12.4,15.3,12.4z"/>
		<path class="st11" d="M23.8,10.7c0,0.5,0,1,0,1.4C23.8,11.6,23.8,11.1,23.8,10.7z"/>
		<path class="st12" d="M15.6,13.3c0,0,0.1,0,0.1,0C15.6,13.3,15.6,13.3,15.6,13.3z"/>
		<path class="st13" d="M17.2,10.6C17.2,10.6,17.1,10.6,17.2,10.6C17.1,10.6,17.2,10.6,17.2,10.6z"/>
		<path class="st14" d="M22.4,10.6C22.4,10.6,22.4,10.6,22.4,10.6C22.4,10.6,22.4,10.6,22.4,10.6z"/>
		<path class="st11" d="M25.8,10.7C25.7,10.7,25.7,10.7,25.8,10.7C25.7,10.7,25.7,10.7,25.8,10.7z"/>
		<path class="st15" d="M25.8,12C25.8,12,25.7,12,25.8,12C25.7,12,25.8,12,25.8,12z"/>
		<path class="st16" d="M15.4,12.1C15.4,12.1,15.4,12.1,15.4,12.1C15.4,12.1,15.4,12.1,15.4,12.1z"/>
		<path class="st16" d="M17.4,12.2C17.4,12.1,17.4,12.1,17.4,12.2C17.4,12.1,17.4,12.1,17.4,12.2z"/>
		<path class="st17" d="M14.6,4.6C14.6,4.6,14.6,4.6,14.6,4.6C14.6,4.6,14.6,4.6,14.6,4.6z"/>
		<path class="st17" d="M23.4,4.6C23.4,4.6,23.3,4.6,23.4,4.6C23.3,4.6,23.4,4.6,23.4,4.6z"/>
		<path class="st18" d="M15.4,12.6c0,0-0.1,0.1-0.1,0.1C15.3,12.7,15.4,12.6,15.4,12.6z"/>
		<path class="st16" d="M17.3,12.9C17.3,12.8,17.4,12.8,17.3,12.9C17.4,12.8,17.3,12.8,17.3,12.9z"/>
		<path class="st19" d="M23.5,12.9C23.5,12.9,23.5,12.9,23.5,12.9C23.5,12.9,23.5,12.9,23.5,12.9z"/>
		<path class="st19" d="M26,12.9C26,12.9,26,12.9,26,12.9C26,12.9,26,12.9,26,12.9z"/>
		<path class="st20" d="M23.5,13.1C23.5,13.1,23.5,13.1,23.5,13.1C23.5,13.1,23.5,13.1,23.5,13.1z"/>
		<path class="st19" d="M26,13.2C26,13.1,26,13.1,26,13.2C26,13.1,26,13.1,26,13.2z"/>
		<path class="st12" d="M17.3,13.3C17.4,13.3,17.4,13.3,17.3,13.3C17.4,13.3,17.4,13.3,17.3,13.3z"/>
		<path class="st21" d="M26.3,14.5C26.2,14.5,26.2,14.5,26.3,14.5C26.2,14.5,26.2,14.5,26.3,14.5z"/>
	</g>
</g>
</svg>
