<?xml version="1.0" encoding="utf-8"?>
<!-- Generator: Adobe Illustrator 25.2.3, SVG Export Plug-In . SVG Version: 6.00 Build 0)  -->
<svg version="1.1" id="图层_1" xmlns="http://www.w3.org/2000/svg" xmlns:xlink="http://www.w3.org/1999/xlink" x="0px" y="0px"
	 viewBox="0 0 30 30" style="enable-background:new 0 0 30 30;" xml:space="preserve">
<style type="text/css">
	.st0{fill:none;}
	.st1{fill:#1677FF;}
	.st2{fill:#3E3A39;}
	.st3{fill:#FFFFFF;}
	.st4{fill:#295DAA;}
	.st5{fill:#FDDB00;}
	.st6{fill:#F9E000;}
	.st7{fill:#1E1E1E;}
	.st8{fill:#3D3A39;}
	.st9{fill-rule:evenodd;clip-rule:evenodd;}
	.st10{fill-rule:evenodd;clip-rule:evenodd;fill:#00A0E9;}
	.st11{fill:#FF5E00;}
	.st12{fill:#457FAD;}
	.st13{fill:#446394;}
	.st14{fill:#6FBAF7;}
	.st15{fill:#007CFF;}
	.st16{fill:#002CB8;}
	.st17{fill:#002CB9;}
	.st18{fill:#6FBBF8;}
	.st19{fill:#0C00BA;}
	.st20{fill:#12D86C;}
	.st21{fill:#EC1B23;}
	.st22{fill:#9C080D;}
	.st23{fill:#FED300;}
	.st24{fill:#FF8300;}
	.st25{fill-rule:evenodd;clip-rule:evenodd;fill:#E60012;}
	.st26{fill:#F4811F;}
	.st27{fill:#6C6E70;}
	.st28{fill-rule:evenodd;clip-rule:evenodd;fill:#108EE9;}
	.st29{fill:#1E22AA;}
	.st30{clip-path:url(#SVGID_2_);}
	.st31{clip-path:url(#SVGID_4_);fill:#002CB9;}
	.st32{clip-path:url(#SVGID_4_);fill:#6FBBF8;}
	.st33{clip-path:url(#SVGID_4_);fill:#007CFF;}
</style>
<g>
	<rect class="st0" width="30" height="30"/>
	<g>
		<path class="st28" d="M12.59,9.07c-0.21,0.03-0.41,0.05-0.61,0.05c-0.27,0-0.55-0.03-0.82-0.1c-0.43-0.1-0.82-0.29-1.19-0.54
			C9.92,8.45,9.83,8.42,9.8,8.44C9.76,8.47,9.74,8.55,9.73,8.62c-0.01,0.35,0,0.69,0,1.04c0,0.43,0,0.85,0,1.28
			c0,0.92,0,1.83,0,2.75c0,0.19,0.06,0.34,0.22,0.44c0.67,0.42,1.41,0.61,2.2,0.57c0.62-0.03,1.21-0.16,1.79-0.35
			c0.65-0.21,1.29-0.44,1.94-0.66c0.57-0.19,1.14-0.35,1.74-0.4c0.87-0.08,1.69,0.08,2.44,0.54c0.17,0.11,0.25,0.06,0.25-0.14v-2.54
			v-0.22c0-0.77,0-1.54,0-2.31c0-0.22-0.09-0.38-0.28-0.5c-0.98-0.67-2.05-0.75-3.16-0.44c-0.65,0.18-1.28,0.43-1.91,0.66
			C14.18,8.63,13.42,8.95,12.59,9.07 M5.92,11.12C5.92,6.08,9.98,2,15,2c5.02,0,9.08,4.08,9.08,9.12c0,5.03-4.07,9.12-9.08,9.12
			C9.98,20.23,5.92,16.15,5.92,11.12"/>
		<path class="st28" d="M6.75,24.88v0.16h0v1.95h0v0.16l0.64,0c0.58-0.04,1.04-0.53,1.04-1.13c0-0.6-0.46-1.09-1.05-1.13L6.75,24.88
			z M7.3,24.03c0,0,0.01,0,0.02,0c0,0,0.01,0,0.01,0H7.4l-0.01,0c1.05,0.04,1.88,0.91,1.88,1.98c0,1.08-0.84,1.95-1.89,1.98l0.02,0
			H6.75h0H5.92v-0.61v-2.76v-0.61h0.84h0H7.3z M15.8,25.69c0.02-0.92,0.76-1.67,1.68-1.67c0.91,0,1.66,0.74,1.68,1.67h0V28h-0.84
			v-2.27c0-0.47-0.38-0.85-0.84-0.85c-0.46,0-0.84,0.38-0.84,0.85V28h-0.84L15.8,25.69L15.8,25.69z M21.57,25.73v0.57h1.68v-0.57
			c0-0.47-0.38-0.85-0.84-0.85C21.95,24.88,21.57,25.26,21.57,25.73z M20.73,25.69c0.02-0.92,0.76-1.67,1.68-1.67
			s1.66,0.74,1.68,1.67h0v0.6v0.85V28h-0.84v-0.85h-1.68V28h-0.84v-0.85v-0.85L20.73,25.69L20.73,25.69z M11.68,25.73L11.68,25.73
			c0-0.47,0.38-0.85,0.84-0.85c0.46,0,0.84,0.38,0.84,0.85h0v0.57h-1.68V25.73z M10.84,25.69c0.02-0.92,0.76-1.67,1.68-1.67
			c0.91,0,1.66,0.74,1.68,1.67h0v0.6v0.85V28h-0.84v-0.85h-1.68V28h-0.84v-0.85v-0.85L10.84,25.69L10.84,25.69z"/>
	</g>
</g>
</svg>
