<svg xmlns="http://www.w3.org/2000/svg" viewBox="0 0 38 23.9"><defs><style>.a{fill:#e8e8e8;}.b{fill:#fff;}.c{fill:#c81a27;}</style></defs><title>docomo</title><path class="a" d="M35,0H3A2.94,2.94,0,0,0,0,3V20.91a2.94,2.94,0,0,0,3,3H35a2.94,2.94,0,0,0,3-3V3A3,3,0,0,0,35,0Z"/><path class="b" d="M35,1a2,2,0,0,1,2,2V20.91a2,2,0,0,1-2,2H3a2,2,0,0,1-2-2V3A2,2,0,0,1,3,1H35"/><path class="c" d="M8,8.85q0,2.53,0,5.05c0,.08,0,.16,0,.26A4.86,4.86,0,0,1,6,15a2.18,2.18,0,0,1-2.3-1.78A2.14,2.14,0,0,1,5.18,10.8a2.25,2.25,0,0,1,1.3,0l.4.12V8.85ZM5.82,13.91a1,1,0,1,0,0-2.07,1,1,0,0,0,0,2.07Z"/><path class="c" d="M10.2,8.85v1.34H9.88L9.3,9.38v.81H9V8.85h.33l.59.81c0-.33,0-.57,0-.81Z"/><path class="c" d="M13,8.85v.3h-.4v1h-.32v-1h-.44V8.85Z"/><path class="c" d="M11.61,8.85v.3h-.4v1H10.9v-1h-.44V8.85Z"/><path class="c" d="M29.26,15h-1.2c0-.17,0-.33,0-.49q0-1,0-2a.57.57,0,0,0-.34-.61.77.77,0,0,0-.82.08.85.85,0,0,0-.2.55c0,.68,0,1.35,0,2,0,.13,0,.27,0,.42H25.5c0-.1,0-.2,0-.31,0-.72,0-1.44,0-2.16,0-.47-.2-.66-.64-.67s-.71.18-.72.65c0,.69,0,1.38,0,2.07,0,.14,0,.27,0,.42H22.89c0-.17,0-.34,0-.52,0-.62,0-1.24,0-1.87a1.77,1.77,0,0,1,2.51-1.77,5.56,5.56,0,0,1,.7.32,2.61,2.61,0,0,1,1.58-.43,1.59,1.59,0,0,1,1.58,1.6C29.29,13.19,29.26,14.06,29.26,15Z"/><path class="c" d="M11,10.72a2.17,2.17,0,1,1,.1,4.33,2.2,2.2,0,0,1-2.33-2.13A2.16,2.16,0,0,1,11,10.72Zm0,3.2a1,1,0,1,0-1-1A1,1,0,0,0,11,13.91Z"/><path class="c" d="M34.38,12.87a2.23,2.23,0,0,1-4.45,0,2.23,2.23,0,0,1,4.45,0Zm-2.22,1a1,1,0,0,0,1-1,1,1,0,1,0-1,1Z"/><path class="c" d="M20,10.72a2.14,2.14,0,0,1,2.21,2.14,2.23,2.23,0,0,1-4.46,0A2.13,2.13,0,0,1,20,10.72Zm0,3.19a1,1,0,0,0,0-2.08,1,1,0,0,0-1,1A1,1,0,0,0,20,13.91Z"/><path class="c" d="M17.22,13.89V15a11.24,11.24,0,0,1-1.78-.05,2,2,0,0,1-1.67-2,2,2,0,0,1,1.62-2.06,10.34,10.34,0,0,1,1.83-.12v1.14h-.43a6.64,6.64,0,0,0-1,.06.93.93,0,0,0-.8,1,.92.92,0,0,0,.79.93A10.76,10.76,0,0,0,17.22,13.89Z"/></svg>