<?xml version="1.0" encoding="utf-8"?>
<!-- Generator: Adobe Illustrator 25.2.3, SVG Export Plug-In . SVG Version: 6.00 Build 0)  -->
<svg version="1.1" id="图层_1" xmlns="http://www.w3.org/2000/svg" xmlns:xlink="http://www.w3.org/1999/xlink" x="0px" y="0px"
	 viewBox="0 0 30 30" style="enable-background:new 0 0 30 30;" xml:space="preserve">
<style type="text/css">
	.st0{fill:none;}
	.st1{fill:#6FBAF7;}
	.st2{fill:#007CFF;}
	.st3{fill:#002CB8;}
</style>
<path class="st0" d="M0,0h30v30H0V0z"/>
<g>
	<path class="st1" d="M25.5,15c0,2-0.5,3.9-1.4,5.7c-0.3,0.6-0.1,1.3,0.4,1.6c0.6,0.4,1.5,0.2,1.8-0.5c1-2,1.6-4.4,1.6-6.8
		c0-2.4-0.6-4.8-1.6-6.8c-0.3-0.7-1.2-0.9-1.8-0.5c-0.6,0.3-0.8,1.1-0.4,1.6C25,11.1,25.5,13,25.5,15"/>
	<path class="st1" d="M21.4,15c0,1.2-0.3,2.4-0.8,3.5c-0.3,0.6-0.1,1.3,0.5,1.6c0.6,0.4,1.5,0.1,1.8-0.5c0.7-1.4,1-3,1-4.6
		s-0.3-3.2-1-4.6c-0.3-0.7-1.2-0.9-1.8-0.5c-0.5,0.3-0.7,1-0.5,1.6C21.1,12.6,21.4,13.8,21.4,15"/>
	<path class="st2" d="M13,23.4c-2.3,0-4.4-0.9-6-2.5s-2.5-3.7-2.5-6c0-2.3,0.9-4.4,2.5-6s3.7-2.5,6-2.5c2.4,0,4.2,1,5.2,1.8
		c0.5,0.4,1.2,0.3,1.7-0.1c0.5-0.5,0.5-1.4-0.1-1.9C18.3,5.3,16.1,4,13,4C10,4,7.3,5.2,5.2,7.2S2,12.1,2,15c0,2.9,1.2,5.7,3.2,7.8
		C7.3,24.8,10,26,13,26c2.5,0,4.8-0.8,6.7-2.3c0.6-0.5,0.6-1.3,0.1-1.9c0,0,0,0,0,0c-0.4-0.4-1.1-0.5-1.6-0.1
		C17.2,22.4,15.4,23.4,13,23.4"/>
	<g>
		<path class="st3" d="M19.5,14.1c-0.2-0.2-0.6-0.4-0.9-0.4h-4.4c-0.7,0-1.3,0.6-1.3,1.3s0.6,1.3,1.3,1.3h2.9
			c-0.6,1.9-2.3,3.2-4.4,3.1c-2.4-0.1-4.3-2.1-4.2-4.5c0-2.4,2-4.3,4.4-4.3c0.8,0,1.6,0.2,2.3,0.7c0.5,0.3,1.1,0.2,1.6-0.2
			c0.6-0.6,0.5-1.5-0.2-2c-1.5-0.9-3.3-1.3-5.2-0.9c-2.7,0.6-4.7,2.7-5.3,5.3C5.3,18,8.7,21.9,13,21.9c3.8,0,6.9-3.1,6.9-6.9
			C19.9,14.7,19.8,14.3,19.5,14.1"/>
	</g>
</g>
</svg>
