<?xml version="1.0" encoding="utf-8"?>
<!-- Generator: Adobe Illustrator 25.2.3, SVG Export Plug-In . SVG Version: 6.00 Build 0)  -->
<svg version="1.1" id="Layer_1" xmlns="http://www.w3.org/2000/svg" xmlns:xlink="http://www.w3.org/1999/xlink" x="0px" y="0px"
	 viewBox="0 0 38 24" style="enable-background:new 0 0 38 24;" xml:space="preserve">
<style type="text/css">
	.st0{opacity:7.000000e-02;enable-background:new    ;}
	.st1{fill:#FFFFFF;}
	.st2{fill:#FDFDFC;}
	.st3{fill:#BCD541;}
	.st4{fill:#EC6227;}
</style>
<path class="st0" d="M35,0H3C1.3,0,0,1.3,0,3v18c0,1.7,1.4,3,3,3h32c1.7,0,3-1.3,3-3V3C38,1.3,36.6,0,35,0z"/>
<path class="st1" d="M35,1c1.1,0,2,0.9,2,2v18c0,1.1-0.9,2-2,2H3c-1.1,0-2-0.9-2-2V3c0-1.1,0.9-2,2-2H35"/>
<g>
	<g>
		<path class="st2" d="M9.8,20.6c0-5.6,0-11.3,0-16.9c0-0.3,0.1-0.3,0.3-0.3c5.9,0,11.8,0,17.8,0c0.3,0,0.3,0.1,0.3,0.3
			c0,5.5,0,11,0,16.6c0,0.3-0.1,0.3-0.3,0.3C21.9,20.6,15.8,20.6,9.8,20.6z M13.5,17.4c-0.1,0.1-0.1,0.3-0.3,0.3
			c-0.3-0.1-0.6,0-0.8-0.3c-0.2-0.3-0.4-0.3-0.5,0c-0.1,0.2-0.2,0.3-0.5,0.2c-0.1-0.1-0.2,0.1-0.3,0.2c-0.1,0.1-0.1,0.3,0,0.3
			c0.3,0.1,0.2,0.3,0.2,0.5c0,0.5,0.3,0.8,0.7,0.9c0.6,0.1,0.9-0.1,1.1-0.6c0.1-0.1,0.1-0.3,0.1-0.4c0-0.1-0.1-0.3,0.1-0.3
			c0.2,0,0.2,0.2,0.2,0.3c0,0.4,0,0.7,0,1.1c0,0.2,0.1,0.4,0.4,0.4c0.2,0,0.3-0.1,0.2-0.3c0-0.2,0-0.4,0-0.7c0-0.1,0.1-0.2,0.2-0.2
			c0.1,0,0.1,0.1,0.1,0.2c0,0.2,0.1,0.4,0.1,0.6c0,0.1-0.1,0.3,0.1,0.3c0.2,0.1,0.3,0,0.4-0.2c0.1-0.8,0-1.6,0-2.4c0,0,0,0,0,0
			c-0.1-0.2-0.3-0.1-0.4-0.1c-0.2,0-0.1,0.2-0.1,0.3c0,0.2,0.1,0.5-0.1,0.5c-0.2,0-0.1-0.3-0.1-0.5c0-0.1,0-0.3-0.2-0.4
			C13.8,17.2,13.6,17.2,13.5,17.4z M22.8,13.9c-0.2-0.1-0.3-0.1-0.5-0.2c-0.3,0-0.5-0.1-0.7-0.3c-0.5-0.8-1-1.5-1.4-2.3
			c-0.3-0.5-0.3-0.5,0.2-0.8c0.6-0.3,0.9-0.8,1-1.4c0.1-0.9-0.1-1.7-0.5-2.5c-0.3-0.5-0.6-0.9-1.2-1.1c-0.5-0.1-1.1-0.1-1.6-0.1
			c-0.7,0-1.2,0.2-1.7,0.6c-0.4,0.3-0.8,0.8-0.9,1.3c-0.1,0.7,0,1.4,0.4,2c0.2,0.4,0.5,0.8,0.9,1.1c0.2,0.2,0.4,0.3,0.7,0.4
			c0.5,0.2,0.5,0.2,0.2,0.7c-0.5,1.2-1.1,2.4-1.6,3.6c-0.1,0.1-0.1,0.3,0.1,0.3c0.4,0.1,0.8,0.2,1.2,0.3c0.3,0.1,0.7,0.2,0.5-0.3
			c0-0.1,0-0.1,0-0.2c0.3-0.8,0.5-1.7,0.8-2.5c0.1-0.2,0.1-0.2,0.2-0.1c0.2,0.2,0.4,0.4,0.6,0.7c0.3,0.6,0.8,1.1,1.2,1.7
			c0.1,0.2,0.3,0.2,0.4,0.1C21.7,14.7,22.3,14.4,22.8,13.9z M22.7,18.6c0-0.4,0-0.7,0-1.1c0-0.2-0.1-0.3-0.3-0.3
			c-0.2,0-0.3,0.1-0.3,0.3c0,0.1,0,0.3,0,0.4c0,0.2-0.1,0.3-0.3,0.3c-0.2,0-0.4,0.1-0.4-0.2c0-0.3-0.1-0.4-0.4-0.4
			c-0.4,0-0.7,0-1.1,0c-0.3,0-0.4,0.1-0.4,0.4c0,0.4,0,0.8,0,1.2c0,0.2,0.1,0.3,0.3,0.3c0.4,0,0.8,0,1.2,0c0.2,0,0.4-0.1,0.4-0.3
			c0-0.4,0.2-0.3,0.4-0.3c0.3,0,0.2,0.2,0.2,0.4c0,0.1,0,0.2,0,0.3c0,0.2,0,0.4,0.3,0.4c0.2,0,0.4-0.2,0.4-0.4
			C22.7,19.3,22.7,18.9,22.7,18.6z M16.6,19.5C16.6,19.5,16.6,19.5,16.6,19.5c0.2,0,0.5,0,0.7,0c0.1,0,0.3,0.1,0.4-0.1
			c0.1-0.2,0-0.3-0.2-0.4c-0.2-0.2-0.2-0.7,0-0.7c0.2-0.1,0.3-0.2,0.3-0.4c-0.1-0.2-0.3-0.3-0.5-0.3c-0.5,0-1,0-1.5,0
			c-0.2,0-0.4,0-0.5,0.2c0,0.2,0.2,0.3,0.3,0.3c0.3,0.1,0.1,0.3,0.2,0.5c0,0.1,0,0.2-0.2,0.2c-0.2,0-0.3,0.2-0.3,0.4
			c0,0.1,0.2,0.3,0.4,0.3C16.1,19.5,16.3,19.5,16.6,19.5z M23.2,5.2c-0.2-0.7-0.6-1-1.2-1.2c-0.3-0.1-0.4,0-0.3,0.3
			c0.1,0.4,0.3,0.8,0.4,1.2c0.2,0.6,0.2,0.5-0.3,0.9c0,0-0.1,0.1-0.1,0.1c-0.2,0.2-0.2,0.5,0,0.7c0.2,0.2,0.4,0,0.5-0.1
			c0.1-0.1,0.2-0.2,0.4-0.3c0.2-0.2,0.2-0.4,0.1-0.6c-0.3-0.3-0.3-0.8-0.5-1.1c-0.1-0.1-0.2-0.3,0-0.4c0.1-0.1,0.3,0,0.5,0.1
			C22.8,4.9,23,5.1,23.2,5.2z M24.4,19.5C24.4,19.5,24.4,19.5,24.4,19.5c0.3,0,0.6,0,0.8,0c0.1,0,0.4-0.1,0.3-0.3
			c0-0.2-0.2-0.3-0.4-0.3c-0.3,0-0.6,0-0.8,0c-0.3,0-0.4-0.1-0.4-0.4c0-0.2,0-0.4,0-0.6c0-0.2-0.1-0.3-0.3-0.3
			c-0.2,0-0.3,0.1-0.3,0.3c0,0.4,0,0.7,0,1.1c0,0.4,0.1,0.6,0.5,0.5C24.1,19.5,24.2,19.5,24.4,19.5z M25.8,18.6c0,0.3,0,0.7,0,1
			c0,0.2,0.1,0.4,0.3,0.4c0.2,0,0.3-0.2,0.3-0.4c0-0.7,0-1.4,0-2c0-0.2-0.1-0.3-0.3-0.3c-0.2,0-0.3,0.1-0.3,0.3
			C25.8,17.9,25.8,18.3,25.8,18.6z M18.8,18.6C18.8,18.6,18.8,18.6,18.8,18.6c0-0.4,0-0.7,0-1.1c0-0.2-0.1-0.3-0.3-0.3
			c-0.2,0-0.2,0.1-0.2,0.3c0,0.7,0,1.3,0,2c0,0.3,0.2,0.3,0.4,0.3c0.2,0,0.2-0.1,0.2-0.3C18.8,19.3,18.8,18.9,18.8,18.6z"/>
		<path class="st3" d="M22.8,13.9c-0.5,0.5-1.1,0.8-1.7,1.1c-0.2,0.1-0.3,0.1-0.4-0.1c-0.4-0.6-0.9-1.1-1.2-1.7
			c-0.1-0.3-0.4-0.5-0.6-0.7c-0.1-0.1-0.2-0.1-0.2,0.1c-0.3,0.8-0.5,1.7-0.8,2.5c0,0.1-0.1,0.1,0,0.2c0.1,0.6-0.2,0.5-0.5,0.3
			c-0.4-0.1-0.8-0.2-1.2-0.3c-0.2-0.1-0.2-0.2-0.1-0.3c0.5-1.2,1.1-2.4,1.6-3.6c0.2-0.5,0.2-0.5-0.2-0.7c-0.2-0.1-0.5-0.2-0.7-0.4
			C16.3,10,16,9.7,15.8,9.3c-0.4-0.6-0.5-1.3-0.4-2c0.1-0.6,0.5-1,0.9-1.3c0.5-0.4,1-0.6,1.7-0.6c0.5,0,1.1-0.1,1.6,0.1
			c0.6,0.2,1,0.5,1.2,1.1c0.4,0.8,0.5,1.6,0.5,2.5c-0.1,0.6-0.4,1.1-1,1.4c-0.5,0.3-0.5,0.3-0.2,0.8c0.5,0.8,1,1.5,1.4,2.3
			c0.2,0.3,0.4,0.3,0.7,0.3C22.5,13.8,22.6,13.8,22.8,13.9z M18.6,10c0.5,0,1-0.1,1.5-0.3c0.3-0.1,0.5-0.4,0.6-0.7
			c0-0.1,0.1-0.3,0-0.3c-0.2-0.1-0.2,0.1-0.2,0.2c-0.2,0.5-0.7,0.8-1.2,0.8c-0.9,0.1-1.7,0.1-2.5-0.4c-0.1-0.1-0.3-0.1-0.4,0.1
			c-0.1,0.2,0.1,0.2,0.2,0.3C17.3,9.8,17.9,10,18.6,10z M19.1,6.6c0,0.1,0,0.3,0.2,0.3c0.2,0,0.3-0.2,0.3-0.4c0-0.1,0-0.4-0.2-0.3
			C19.1,6.2,19.2,6.5,19.1,6.6z M16.2,6.6c0.1,0.3-0.1,0.5,0,0.7c0,0.1,0.1,0.2,0.2,0.1c0.1,0,0.1-0.1,0.1-0.1
			C16.5,7,16.6,6.7,16.2,6.6z"/>
		<path class="st4" d="M22.7,18.6c0,0.3,0,0.7,0,1c0,0.3-0.1,0.4-0.4,0.4C22,20,22,19.8,22,19.6c0-0.1,0-0.2,0-0.3
			c0-0.2,0.1-0.4-0.2-0.4c-0.2,0-0.5-0.1-0.4,0.3c0,0.3-0.2,0.3-0.4,0.3c-0.4,0-0.8,0-1.2,0c-0.2,0-0.3-0.1-0.3-0.3
			c0-0.4,0-0.8,0-1.2c0-0.3,0.1-0.4,0.4-0.4c0.4,0,0.7,0,1.1,0c0.3,0,0.4,0.1,0.4,0.4c0,0.3,0.2,0.2,0.4,0.2c0.2,0,0.3-0.1,0.3-0.3
			c0-0.1,0-0.3,0-0.4c0-0.2,0.1-0.3,0.3-0.3c0.2,0,0.3,0.1,0.3,0.3C22.7,17.9,22.7,18.2,22.7,18.6z M20.1,18.6
			C20,18.9,20.2,19,20.4,19c0.2,0,0.4,0,0.4-0.2c0-0.2,0.2-0.5-0.2-0.6C20.1,18.1,20,18.3,20.1,18.6z"/>
		<path class="st4" d="M16.6,19.5c-0.3,0-0.6,0-0.9,0c-0.2,0-0.4-0.1-0.4-0.3c0-0.2,0.1-0.3,0.3-0.4c0.2,0,0.2-0.1,0.2-0.2
			c0-0.2,0.1-0.4-0.2-0.5c-0.2-0.1-0.4-0.1-0.3-0.3c0-0.2,0.2-0.3,0.5-0.2c0.5,0,1,0,1.5,0c0.2,0,0.4,0,0.5,0.3
			c0.1,0.2-0.1,0.3-0.3,0.4c-0.2,0.1-0.1,0.6,0,0.7c0.1,0.1,0.2,0.2,0.2,0.4c-0.1,0.2-0.3,0.1-0.4,0.1
			C17.1,19.5,16.9,19.5,16.6,19.5C16.6,19.5,16.6,19.5,16.6,19.5z M16.4,18.6c0,0.2,0,0.4,0.3,0.4c0.3,0,0.2-0.3,0.2-0.4
			c0-0.2,0.1-0.4-0.2-0.4C16.3,18.2,16.4,18.4,16.4,18.6z"/>
		<path class="st4" d="M13.1,18.9c-0.2,0.5-0.6,0.7-1.1,0.6c-0.4-0.1-0.7-0.5-0.7-0.9c0-0.2,0.1-0.4-0.2-0.5c-0.1-0.1-0.1-0.2,0-0.3
			c0.1-0.1,0.2-0.2,0.3-0.2c0.3,0.1,0.4,0,0.5-0.2c0.2-0.3,0.4-0.3,0.5,0c0.2,0.3,0.6,0.2,0.8,0.3C13.2,18.1,13,18.5,13.1,18.9z
			 M12.2,18.3c-0.2,0-0.4,0.1-0.4,0.3c0,0.3,0.1,0.3,0.3,0.3c0.2,0,0.4-0.2,0.4-0.3C12.6,18.4,12.4,18.3,12.2,18.3z"/>
		<path class="st4" d="M14.9,19.8C14.8,20,14.7,20,14.5,20c-0.2-0.1-0.1-0.2-0.1-0.3c0-0.2-0.1-0.4-0.1-0.6c0-0.1,0-0.2-0.1-0.2
			c-0.1,0-0.2,0.1-0.2,0.2c0,0.2,0,0.4,0,0.7c-0.1,0.1-0.2,0.3-0.3,0.2c-0.1-0.1-0.2-0.2-0.2-0.4c0-0.7,0-1.4,0-2.1
			c0.1-0.2,0.2-0.2,0.4-0.1c0.2,0.1,0.2,0.2,0.2,0.4c0,0.2-0.1,0.5,0.1,0.5c0.2,0,0.1-0.3,0.1-0.5c0-0.1,0-0.3,0.1-0.3
			c0.1,0,0.3-0.1,0.4,0.1C14.9,18.2,14.9,19,14.9,19.8z"/>
		<path class="st3" d="M23.2,5.2c-0.2-0.2-0.4-0.3-0.6-0.5c-0.1-0.1-0.3-0.2-0.5-0.1c-0.1,0.1,0,0.3,0,0.4c0.2,0.4,0.2,0.8,0.5,1.1
			c0.2,0.2,0.1,0.4-0.1,0.6c-0.1,0.1-0.2,0.2-0.4,0.3c-0.2,0.1-0.4,0.3-0.5,0.1c-0.1-0.2-0.1-0.5,0-0.7c0,0,0.1-0.1,0.1-0.1
			c0.5-0.3,0.5-0.3,0.3-0.9c-0.1-0.4-0.3-0.8-0.4-1.2c-0.1-0.3,0-0.4,0.3-0.3C22.6,4.2,23.1,4.6,23.2,5.2z"/>
		<path class="st4" d="M24.4,19.5c-0.2,0-0.3,0-0.5,0c-0.4,0.1-0.5-0.1-0.5-0.5c0-0.4,0-0.7,0-1.1c0-0.2,0.1-0.3,0.3-0.3
			c0.2,0,0.3,0.1,0.3,0.3c0,0.2,0,0.4,0,0.6c0,0.3,0.1,0.4,0.4,0.4c0.3,0,0.5,0,0.8,0c0.2,0,0.3,0.1,0.4,0.3c0,0.2-0.2,0.3-0.3,0.3
			C25,19.5,24.7,19.5,24.4,19.5C24.4,19.5,24.4,19.5,24.4,19.5z"/>
		<path class="st4" d="M25.8,18.6c0-0.3,0-0.7,0-1c0-0.2,0.1-0.3,0.3-0.3c0.2,0,0.3,0.1,0.3,0.3c0,0.7,0,1.4,0,2
			c0,0.2-0.1,0.4-0.3,0.4c-0.2,0-0.3-0.2-0.3-0.4C25.8,19.3,25.8,18.9,25.8,18.6z"/>
		<path class="st4" d="M18.8,18.6c0,0.3,0,0.6,0,0.9c0,0.2,0,0.3-0.2,0.3c-0.2,0-0.4,0-0.4-0.3c0-0.7,0-1.3,0-2
			c0-0.2,0.1-0.3,0.2-0.3c0.2,0,0.3,0.1,0.3,0.3C18.8,17.9,18.8,18.3,18.8,18.6C18.8,18.6,18.8,18.6,18.8,18.6z"/>
		<path class="st3" d="M13.5,17.4c0,0.7,0,1.4,0,2.1c0,0.2,0.1,0.3,0.2,0.4c0.1,0.1,0.2-0.1,0.3-0.2c0.1,0.2-0.1,0.3-0.2,0.3
			c-0.2,0-0.4-0.2-0.4-0.4c0-0.4,0-0.7,0-1.1c0-0.1,0-0.3-0.2-0.3c-0.2,0-0.1,0.2-0.1,0.3c0,0.1,0,0.3-0.1,0.4
			c-0.1-0.4,0.1-0.8,0.2-1.3C13.4,17.7,13.4,17.5,13.5,17.4z"/>
		<path class="st3" d="M14.9,19.8c0-0.8,0-1.6,0-2.4c0,0,0,0,0,0C14.9,18.2,15,19,14.9,19.8z"/>
		<path class="st2" d="M18.6,10c-0.7,0-1.3-0.2-2-0.4c-0.1,0-0.3-0.1-0.2-0.3c0.1-0.2,0.2-0.2,0.4-0.1c0.8,0.6,1.7,0.5,2.5,0.4
			c0.5,0,0.9-0.3,1.2-0.8c0-0.1,0.1-0.3,0.2-0.2c0.1,0.1,0.1,0.2,0,0.3c-0.1,0.3-0.3,0.6-0.6,0.7C19.6,9.9,19.1,10,18.6,10z"/>
		<path class="st2" d="M19.1,6.6c0.1-0.1,0-0.4,0.2-0.4c0.2,0,0.2,0.2,0.2,0.3c0,0.2,0,0.4-0.3,0.4C19.2,6.9,19.2,6.8,19.1,6.6z"/>
		<path class="st2" d="M16.2,6.6c0.4,0.2,0.3,0.4,0.3,0.7c0,0-0.1,0.1-0.1,0.1c-0.1,0-0.1-0.1-0.2-0.1C16.1,7,16.2,6.8,16.2,6.6z"/>
		<path class="st2" d="M20.1,18.6c-0.1-0.3,0-0.5,0.4-0.5c0.4,0.1,0.2,0.4,0.2,0.6c0.1,0.2-0.2,0.3-0.4,0.2
			C20.2,19,20,18.9,20.1,18.6z"/>
		<path class="st2" d="M16.4,18.6c0-0.2-0.1-0.4,0.2-0.4c0.3,0,0.2,0.3,0.2,0.4c0,0.1,0.1,0.4-0.2,0.4C16.3,19,16.4,18.8,16.4,18.6z
			"/>
		<path class="st2" d="M12.2,18.3c0.2,0,0.3,0.1,0.3,0.3c0,0.2-0.2,0.3-0.4,0.3c-0.2,0-0.3-0.1-0.3-0.3C11.9,18.4,12,18.3,12.2,18.3
			z"/>
	</g>
</g>
</svg>
