<?xml version="1.0" encoding="utf-8"?>
<!-- Generator: Adobe Illustrator 25.2.3, SVG Export Plug-In . SVG Version: 6.00 Build 0)  -->
<svg version="1.1" id="图层_1" xmlns="http://www.w3.org/2000/svg" xmlns:xlink="http://www.w3.org/1999/xlink" x="0px" y="0px"
	 viewBox="0 0 30 30" style="enable-background:new 0 0 30 30;" xml:space="preserve">
<style type="text/css">
	.st0{fill:none;}
	.st1{fill:#1677FF;}
	.st2{fill:#3E3A39;}
	.st3{fill:#FFFFFF;}
	.st4{fill:#295DAA;}
	.st5{fill:#FDDB00;}
	.st6{fill:#3D3A39;}
	.st7{fill-rule:evenodd;clip-rule:evenodd;}
	.st8{fill-rule:evenodd;clip-rule:evenodd;fill:#00A0E9;}
	.st9{fill:#FF5E00;}
	.st10{fill:#457FAD;}
	.st11{fill:#446394;}
	.st12{fill:#6FBAF7;}
	.st13{fill:#007CFF;}
	.st14{fill:#002CB8;}
	.st15{fill:#002CB9;}
	.st16{fill:#6FBBF8;}
	.st17{fill:#0C00BA;}
	.st18{fill:#12D86C;}
	.st19{fill:#EC1B23;}
	.st20{fill:#9C080D;}
	.st21{fill:#FED300;}
	.st22{fill:#FF8300;}
	.st23{fill-rule:evenodd;clip-rule:evenodd;fill:#E60012;}
	.st24{fill:#F4811F;}
	.st25{fill:#6C6E70;}
	.st26{fill-rule:evenodd;clip-rule:evenodd;fill:#108EE9;}
	.st27{fill:#1E22AA;}
	.st28{clip-path:url(#SVGID_2_);}
	.st29{clip-path:url(#SVGID_4_);fill:#002CB9;}
	.st30{clip-path:url(#SVGID_4_);fill:#6FBBF8;}
	.st31{clip-path:url(#SVGID_4_);fill:#007CFF;}
	.st32{fill:#FFEB00;}
</style>
<g>
	<rect class="st32" width="30" height="30"/>
	<g>
		<g>
			<g>
				<g>
					<g>
						<g>
							<g>
								<g>
									<path d="M6.56,11.59C4.59,11.59,3,12.85,3,14.4c0,0.93,0.58,1.76,1.46,2.27l-0.42,1.56C4,18.39,4.17,18.51,4.3,18.42
										l1.82-1.23c0.15,0.01,0.29,0.02,0.44,0.02c1.97,0,3.56-1.26,3.56-2.81C10.12,12.85,8.52,11.59,6.56,11.59"/>
								</g>
							</g>
						</g>
					</g>
					<g>
						<path d="M13.27,16.97v1.91H11.9v-7.1h0.97l0.17,0.45c0.29-0.29,0.73-0.6,1.45-0.6c1.35,0,1.98,1.01,1.98,2.63
							c0,1.7-0.99,2.79-2.4,2.79C13.79,17.07,13.58,17.05,13.27,16.97 M13.27,12.94v3.08c0.08,0.01,0.26,0.03,0.44,0.03
							c0.98,0,1.35-0.69,1.35-1.77c0-0.95-0.25-1.52-1.03-1.52C13.78,12.75,13.5,12.82,13.27,12.94"/>
						<path d="M19.23,13.79h0.78v-0.17c0-0.56-0.32-0.83-0.87-0.83c-0.42,0-0.97,0.12-1.41,0.34l-0.38-0.92
							c0.49-0.34,1.24-0.57,1.91-0.57c1.32,0,2.03,0.7,2.03,2.02v3.26h-0.97l-0.14-0.43c-0.55,0.4-1.06,0.57-1.52,0.57
							c-1.01,0-1.57-0.6-1.57-1.62C17.09,14.36,17.84,13.79,19.23,13.79 M20.01,15.6v-0.94h-0.63c-0.71,0-1.06,0.25-1.06,0.76
							c0,0.39,0.2,0.57,0.6,0.57C19.3,16,19.78,15.81,20.01,15.6"/>
					</g>
				</g>
				<g>
					<path d="M25.39,16.48c-0.48,1.28-1.05,2.21-1.89,2.73l-0.85-0.78c0.49-0.42,0.84-0.84,1.14-1.39l-1.82-4.98l1.36-0.37
						l1.17,4.04l1.16-4.05L27,12.05L25.39,16.48z"/>
				</g>
			</g>
		</g>
	</g>
</g>
</svg>
