<?xml version="1.0" encoding="UTF-8" standalone="no"?>
<svg
   viewBox="0 0 38 23.9"
   version="1.1"
   id="svg30"
   sodipodi:docname="komoju_pay.svg"
   inkscape:version="1.1.1 (3bf5ae0d25, 2021-09-20, custom)"
   xmlns:inkscape="http://www.inkscape.org/namespaces/inkscape"
   xmlns:sodipodi="http://sodipodi.sourceforge.net/DTD/sodipodi-0.dtd"
   xmlns="http://www.w3.org/2000/svg"
   xmlns:svg="http://www.w3.org/2000/svg">
  <sodipodi:namedview
     id="namedview32"
     pagecolor="#505050"
     bordercolor="#eeeeee"
     borderopacity="1"
     inkscape:pageshadow="0"
     inkscape:pageopacity="0"
     inkscape:pagecheckerboard="0"
     showgrid="false"
     inkscape:zoom="10.84329"
     inkscape:cx="11.527866"
     inkscape:cy="-0.13833439"
     inkscape:window-width="1920"
     inkscape:window-height="1049"
     inkscape:window-x="0"
     inkscape:window-y="0"
     inkscape:window-maximized="1"
     inkscape:current-layer="svg30" />
  <defs
     id="defs4">
    <style
       id="style2">.a{fill:#e8e8e8;}.b{fill:#fff;}.c{fill:#c81a27;}</style>
  </defs>
  <title
     id="title6">docomo</title>
  <path
     class="a"
     d="M35,0H3A2.94,2.94,0,0,0,0,3V20.91a2.94,2.94,0,0,0,3,3H35a2.94,2.94,0,0,0,3-3V3A3,3,0,0,0,35,0Z"
     id="path8" />
  <path
     class="b"
     d="M35,1a2,2,0,0,1,2,2V20.91a2,2,0,0,1-2,2H3a2,2,0,0,1-2-2V3A2,2,0,0,1,3,1H35"
     id="path10" />
  <path
     d="m 8.2390971,10.446092 c -0.5141608,0.506712 -0.767529,1.132646 -0.767529,1.870357 0,0.737715 0.2533682,1.363644 0.767529,1.877805 0.51416,0.506709 1.1549913,0.760077 1.9150689,0.760077 0.760051,0 1.393431,-0.253368 1.907618,-0.760077 0.514161,-0.514161 0.774954,-1.14009 0.774954,-1.877805 0,-0.737711 -0.260793,-1.363645 -0.774954,-1.870357 -0.514187,-0.5141609 -1.147567,-0.7675156 -1.907618,-0.7675156 -0.7600776,0 -1.4009089,0.2533547 -1.9150689,0.7675156 z m 0.909101,2.913573 C 8.8799276,13.069067 8.7458063,12.726284 8.7458063,12.316449 c 0,-0.409839 0.1341213,-0.752614 0.4023918,-1.035776 0.2682443,-0.290613 0.6035759,-0.432194 1.0059679,-0.432194 0.402392,0 0.737697,0.141581 1.005968,0.432194 0.268243,0.283162 0.402393,0.625937 0.402393,1.035776 0,0.409835 -0.13415,0.752618 -0.402393,1.043216 -0.268271,0.283172 -0.603576,0.424745 -1.005968,0.424745 -0.402392,0 -0.7377236,-0.141573 -1.0059679,-0.424745 z"
     fill="#172e44"
     id="path594"
     style="stroke-width:0.268029" />
  <path
     d="m 19.078336,9.7828991 h -0.938908 l -1.795823,2.7049459 -1.79585,-2.7049459 h -0.938906 v 5.0670889 h 1.259336 l -0.0074,-2.555896 1.132636,1.751137 v 0.0074 h 0.700443 v -0.0074 l 1.125213,-1.736232 v 2.540991 h 1.259309 z"
     fill="#172e44"
     id="path596"
     style="stroke-width:0.268029" />
  <path
     d="m 20.617226,10.446092 c -0.514161,0.506712 -0.767529,1.132646 -0.767529,1.870357 0,0.737715 0.253368,1.363644 0.767529,1.877805 0.514161,0.506709 1.154991,0.760077 1.915042,0.760077 0.760077,0 1.393457,-0.253368 1.907618,-0.760077 0.51416,-0.514161 0.774979,-1.14009 0.774979,-1.877805 0,-0.737711 -0.260819,-1.363645 -0.774979,-1.870357 -0.514161,-0.5141609 -1.147541,-0.7675156 -1.907618,-0.7675156 -0.760051,0 -1.400881,0.2533547 -1.915042,0.7675156 z m 0.909074,2.913573 c -0.268243,-0.290598 -0.402366,-0.633381 -0.402366,-1.043216 0,-0.409839 0.134123,-0.752614 0.402366,-1.035776 0.268271,-0.290613 0.603602,-0.432194 1.005968,-0.432194 0.402391,0 0.737723,0.141581 1.005967,0.432194 0.268271,0.283162 0.402392,0.625937 0.402392,1.035776 0,0.409835 -0.134121,0.752618 -0.402392,1.043216 -0.268244,0.283172 -0.603576,0.424745 -1.005967,0.424745 -0.402366,0 -0.737697,-0.141573 -1.005968,-0.424745 z"
     fill="#172e44"
     id="path598"
     style="stroke-width:0.268029" />
  <path
     d="m 29.64949,9.7828991 h -1.281608 v 3.0402499 c 0,0.625956 -0.305527,0.991067 -0.774953,0.991067 -0.476905,0 -0.797334,-0.283146 -0.827139,-0.760052 h -1.251883 c 0.02236,0.603576 0.223562,1.073028 0.588672,1.408361 0.365136,0.335304 0.849491,0.499258 1.453066,0.499258 1.318945,0 2.093845,-0.767529 2.093845,-2.138634 z"
     fill="#172e44"
     id="path600"
     style="stroke-width:0.268029" />
  <path
     d="M 35.111927,9.7828991 H 33.84522 v 2.7272999 c 0,0.774953 -0.432332,1.274211 -1.095435,1.274211 -0.663105,0 -1.087931,-0.499258 -1.087931,-1.274211 V 9.7828991 h -1.266706 v 2.7049459 c 0,0.782404 0.201021,1.385979 0.625848,1.825629 0.417321,0.432197 0.998409,0.648309 1.728789,0.648309 0.730379,0 1.303962,-0.216112 1.728788,-0.648309 0.424827,-0.43965 0.633354,-1.043225 0.633354,-1.825629 z"
     fill="#172e44"
     id="path602"
     style="stroke-width:0.268029" />
  <path
     d="M 6.0709812,9.7864163 H 7.554818 L 5.5552927,12.308057 h -1.483813 z"
     fill="#3cc239"
     id="path604"
     style="stroke-width:0.268029" />
  <path
     d="M 6.0709812,14.828089 H 7.554818 L 5.5552927,12.308057 h -1.483813 z"
     fill="#3cc239"
     id="path606"
     style="stroke-width:0.268029" />
  <path
     d="M 4.0256335,9.7864163 H 2.7881317 v 5.0416727 h 1.2375018 z"
     fill="#172e44"
     id="path608"
     style="stroke-width:0.268029" />
</svg>
