<?xml version="1.0" standalone="no"?>
<!DOCTYPE svg PUBLIC "-//W3C//DTD SVG 20010904//EN"
 "http://www.w3.org/TR/2001/REC-SVG-20010904/DTD/svg10.dtd">
<svg version="1.0" xmlns="http://www.w3.org/2000/svg"
 width="218.000000pt" height="231.000000pt" viewBox="0 0 218.000000 231.000000"
 preserveAspectRatio="xMidYMid meet">

<g transform="translate(0.000000,231.000000) scale(0.100000,-0.100000)"
fill="#000000" stroke="none">
<path d="M572 1758 l3 -153 78 -3 77 -3 0 -34 0 -35 -111 0 c-61 0 -119 -5
-130 -10 -27 -15 -109 -182 -109 -223 0 -39 31 -84 66 -97 l24 -10 0 -310 0
-310 -45 0 c-25 0 -45 -4 -45 -10 0 -7 252 -10 736 -10 487 0 733 3 729 10 -3
6 -26 10 -50 10 l-43 0 -3 158 c-2 86 -2 226 -1 310 l4 153 33 13 c69 29 74
99 15 213 -59 113 -59 113 -206 113 l-124 0 0 35 0 35 90 0 90 0 0 155 0 155
-540 0 -541 0 3 -152z m978 66 c0 -36 -5 -75 -12 -87 -15 -28 -40 -47 -52 -39
-6 3 -29 5 -53 3 -37 -2 -43 0 -43 18 0 16 8 20 37 23 52 4 56 28 4 28 -33 0
-41 3 -41 19 0 15 8 19 41 19 43 1 66 13 56 29 -4 6 -32 9 -64 9 l-58 -1 -3
-82 c-2 -62 -6 -83 -16 -83 -23 0 -43 64 -25 76 16 10 9 47 -13 71 -16 17 -33
23 -64 23 -50 0 -54 -7 -54 -101 0 -62 -2 -69 -20 -70 -33 -2 -38 -4 -46 -11
-4 -5 -26 -7 -48 -7 l-41 2 44 7 c28 4 51 15 63 29 35 44 15 121 -37 141 -30
12 -93 -8 -100 -31 -3 -10 -11 -17 -18 -15 -7 1 -9 1 -4 -1 4 -3 7 -19 7 -37
0 -17 7 -41 15 -53 14 -20 13 -21 -15 -25 -41 -6 -48 1 -51 47 -3 71 0 85 20
85 25 0 35 27 13 34 -36 10 -102 10 -113 -1 -15 -15 -3 -33 22 -33 17 0 19 -7
19 -63 0 -56 -2 -63 -20 -64 -11 -1 -20 3 -20 8 0 5 -6 4 -14 -3 -10 -10 -11
-15 -2 -21 7 -6 6 -7 -4 -4 -8 2 -13 11 -11 18 2 8 6 25 9 39 2 14 11 32 19
42 11 12 11 18 2 24 -7 4 -10 3 -6 -3 11 -17 -16 -33 -30 -18 -6 7 -10 15 -7
17 2 3 -6 4 -18 4 -14 -1 -24 6 -26 18 -3 16 0 18 27 13 33 -7 49 5 28 20 -25
20 -47 21 -68 4 -18 -15 -21 -24 -15 -54 4 -20 10 -36 14 -36 23 4 42 -2 37
-11 -3 -5 -2 -10 4 -10 6 0 8 -7 5 -15 -5 -12 -15 -14 -40 -9 -35 6 -43 -2
-21 -25 10 -11 9 -12 -2 -6 -7 4 -42 8 -77 8 -38 0 -65 5 -65 11 -3 23 3 181
7 187 2 4 215 7 474 8 l470 1 0 -66z m-436 -30 c41 -40 -7 -109 -59 -86 -14 6
-27 23 -31 37 -13 50 53 86 90 49z m182 1 c9 -23 -15 -45 -47 -45 -26 0 -29 4
-29 30 0 28 3 30 35 30 23 0 38 -6 41 -15z m334 -106 c0 -27 -2 -29 -14 -16
-9 8 -12 24 -9 36 7 29 23 16 23 -20z m-342 3 c12 -18 12 -22 1 -18 -8 2 -26
7 -41 10 -16 4 -28 13 -28 22 0 23 50 13 68 -14z m-63 -22 c-3 -5 -12 -10 -18
-10 -7 0 -6 4 3 10 19 12 23 12 15 0z m-438 -6 c-3 -3 -12 -4 -19 -1 -8 3 -5
6 6 6 11 1 17 -2 13 -5z m631 -1 c-10 -2 -26 -2 -35 0 -10 3 -2 5 17 5 19 0
27 -2 18 -5z m65 0 c-7 -2 -21 -2 -30 0 -10 3 -4 5 12 5 17 0 24 -2 18 -5z
m-868 -23 c3 -5 1 -10 -4 -10 -6 0 -11 5 -11 10 0 6 2 10 4 10 3 0 8 -4 11
-10z m1010 0 c3 -5 1 -10 -4 -10 -6 0 -11 5 -11 10 0 6 2 10 4 10 3 0 8 -4 11
-10z m-922 -7 c-13 -2 -35 -2 -50 0 -16 2 -5 4 22 4 28 0 40 -2 28 -4z m300 0
c-23 -2 -64 -2 -90 0 -26 2 -7 3 42 3 50 0 71 -1 48 -3z m240 0 c-24 -2 -62
-2 -85 0 -24 2 -5 4 42 4 47 0 66 -2 43 -4z m340 0 c-13 -2 -33 -2 -45 0 -13
2 -3 4 22 4 25 0 35 -2 23 -4z m-793 -68 c0 -28 -4 -35 -20 -35 -16 0 -20 7
-20 35 0 28 4 35 20 35 16 0 20 -7 20 -35z m600 0 l0 -35 -290 0 -290 0 0 35
0 35 290 0 290 0 0 -35z m60 0 c0 -28 -4 -35 -20 -35 -16 0 -20 7 -20 35 0 28
4 35 20 35 16 0 20 -7 20 -35z m-840 -74 c0 -4 -11 -41 -25 -81 -14 -40 -25
-88 -25 -105 0 -50 -33 -85 -80 -85 -30 0 -43 6 -59 26 -30 38 -26 64 24 164
38 76 48 89 72 92 38 4 93 -3 93 -11z m315 -101 c-8 -138 -20 -163 -82 -168
-34 -3 -44 1 -62 24 -11 15 -21 35 -21 46 0 15 30 150 45 203 1 6 30 10 65 10
l62 0 -7 -115z m347 69 c3 -24 7 -76 7 -115 1 -91 -20 -124 -79 -124 -30 0
-43 6 -59 26 -18 23 -21 41 -21 139 0 61 2 114 4 116 2 2 35 3 73 3 l68 -2 7
-43z m346 -43 c34 -131 28 -175 -26 -194 -20 -7 -37 -6 -59 3 -38 16 -49 48
-58 164 -4 46 -9 89 -12 97 -3 10 10 14 54 16 32 2 63 2 69 0 5 -1 20 -40 32
-86z m-931 57 c-8 -16 -20 -48 -27 -72 -9 -35 -9 -45 2 -52 10 -6 9 -11 -6
-22 -19 -14 -19 -15 7 -41 19 -19 33 -25 47 -21 11 4 20 2 20 -4 0 -14 -35
-32 -45 -23 -5 4 -5 1 -1 -5 5 -9 -1 -13 -19 -13 -39 0 -62 16 -74 52 -9 26
-8 43 10 97 12 37 25 68 28 71 3 3 6 11 7 18 1 6 2 19 3 27 0 10 12 15 32 15
30 0 30 0 16 -27z m50 21 c-3 -3 -12 -4 -19 -1 -8 3 -5 6 6 6 11 1 17 -2 13
-5z m229 -78 l-9 -84 28 -26 c32 -30 43 -32 73 -10 19 13 22 24 22 80 0 41 4
64 11 64 19 0 5 -178 -14 -198 -14 -13 -18 -13 -34 -1 -16 13 -17 12 -4 -3 12
-16 11 -18 -15 -18 -33 1 -71 24 -55 35 6 3 16 3 23 -1 7 -4 8 -3 4 5 -4 6
-16 9 -27 6 -17 -6 -19 -1 -19 53 0 77 11 182 19 182 4 0 2 -38 -3 -84z m132
59 c-3 -29 -18 -34 -18 -6 0 11 -8 22 -17 24 -11 3 -8 5 9 6 24 1 27 -3 26
-24z m219 5 c-3 -13 0 -20 9 -20 17 0 19 -37 2 -42 -14 -5 -12 -93 2 -117 5
-9 10 -13 10 -8 0 10 52 -23 63 -40 4 -7 13 -13 18 -13 6 0 3 7 -6 16 -13 13
-13 19 -3 31 14 18 17 131 5 181 -7 25 -5 32 6 32 10 0 16 -17 20 -57 4 -32 9
-83 13 -113 5 -46 3 -59 -13 -79 -27 -34 -83 -38 -111 -8 -18 19 -22 39 -28
140 -5 91 -4 117 6 117 7 0 10 -8 7 -20z m324 -3 c-10 -9 -11 -8 -5 6 3 10 9
15 12 12 3 -3 0 -11 -7 -18z m97 3 c7 -12 10 -26 6 -32 -4 -6 -3 -8 3 -5 12 8
73 -116 73 -149 0 -57 -80 -95 -122 -57 -24 21 -23 36 1 28 13 -4 27 2 40 16
25 27 26 33 6 49 -10 9 -12 16 -5 20 7 4 5 21 -6 53 -9 26 -19 45 -24 42 -4
-3 -7 3 -6 13 1 11 -5 16 -18 14 -15 -3 -16 -1 -5 12 19 21 42 20 57 -4z
m-991 -97 c-3 -10 -5 -4 -5 12 0 17 2 24 5 18 2 -7 2 -21 0 -30z m930 -95 c-3
-8 -6 -5 -6 6 -1 11 2 17 5 13 3 -3 4 -12 1 -19z m-1087 -68 c11 -11 31 -22
45 -26 33 -8 71 2 95 26 20 20 20 20 40 0 38 -38 102 -38 140 0 20 20 20 20
43 0 41 -39 99 -38 138 1 l20 20 30 -26 c38 -31 76 -32 121 -1 l36 24 21 -22
c30 -30 102 -29 133 1 l22 23 24 -23 c32 -30 101 -31 134 0 l23 21 33 -27 32
-27 0 -307 0 -307 -35 0 -35 0 -1 113 c0 61 0 158 1 215 l1 102 -155 0 -156 0
0 -215 0 -215 -425 0 -425 0 0 309 c0 294 1 310 19 316 10 3 26 14 36 25 22
24 21 24 45 0z m1030 -445 l0 -205 -125 0 -125 0 0 205 0 205 125 0 125 0 0
-205z"/>
<path d="M1346 1262 c-3 -4 4 -9 15 -9 23 -2 25 3 4 10 -8 4 -16 3 -19 -1z"/>
<path d="M560 935 l0 -195 325 0 325 0 0 195 0 195 -325 0 -325 0 0 -195z
m468 129 c-21 -19 -38 -39 -38 -45 0 -20 21 -7 61 36 24 26 50 45 63 45 16 0
7 -14 -47 -68 -37 -37 -67 -71 -67 -75 0 -20 29 0 97 66 41 39 78 74 84 75 5
2 9 -64 9 -165 l0 -169 -302 2 c-220 0 -303 4 -303 12 0 6 21 34 48 60 26 27
47 52 47 56 0 16 -28 2 -62 -31 -58 -57 -46 -17 13 43 31 32 49 57 44 64 -5 8
-21 -2 -51 -31 l-44 -43 0 102 0 102 243 0 242 0 -37 -36z"/>
<path d="M1392 795 c2 -14 8 -26 13 -26 6 0 11 12 13 26 2 18 -1 25 -13 25
-12 0 -15 -7 -13 -25z"/>
</g>
</svg>
