<?xml version="1.0" encoding="utf-8"?>
<!-- Generator: Adobe Illustrator 25.2.3, SVG Export Plug-In . SVG Version: 6.00 Build 0)  -->
<svg version="1.1" id="Layer_1" xmlns="http://www.w3.org/2000/svg" xmlns:xlink="http://www.w3.org/1999/xlink" x="0px" y="0px"
	 viewBox="0 0 38 24" style="enable-background:new 0 0 38 24;" xml:space="preserve">
<style type="text/css">
	.st0{opacity:7.000000e-02;enable-background:new    ;}
	.st1{fill:#FFFFFF;}
	.st2{fill:#03AEEE;}
	.st3{fill:#FDFEFE;}
	.st4{fill:#EFF9FD;}
</style>
<path class="st0" d="M35,0H3C1.3,0,0,1.3,0,3v18c0,1.7,1.4,3,3,3h32c1.7,0,3-1.3,3-3V3C38,1.3,36.6,0,35,0z"/>
<path class="st1" d="M35,1c1.1,0,2,0.9,2,2v18c0,1.1-0.9,2-2,2H3c-1.1,0-2-0.9-2-2V3c0-1.1,0.9-2,2-2H35"/>
<g>
	<g>
		<path class="st2" d="M20.1,19.8c-0.7,0-1.5,0-2.2,0c-0.1-0.1-0.2-0.1-0.4-0.1c-0.5-0.1-1-0.2-1.4-0.4c-1.4-0.6-2.6-1.5-3.5-2.8
			c-0.8-1.2-1.3-2.5-1.4-4c0-0.6,0-1.2,0.1-1.8c0.1-0.5,0.3-1.1,0.5-1.6c0.6-1.4,1.5-2.6,2.8-3.4c1.1-0.8,2.3-1.2,3.6-1.4
			c1.3-0.1,2.7,0,3.9,0.6c1.4,0.6,2.6,1.6,3.5,2.9c0.6,0.9,0.9,1.9,1.1,2.9c0.2,1,0.2,2-0.1,2.9c-0.2,1.1-0.7,2.1-1.4,3
			c-1.1,1.4-2.5,2.4-4.3,2.9C20.7,19.6,20.3,19.5,20.1,19.8z M16.2,13.2c0,1.2,0,2.5,0,3.7c0,0.5,0.2,0.8,0.8,0.8c1.1,0,2.3,0,3.4,0
			c0.5,0,0.7-0.3,0.8-0.7c0-0.8,0-1.6,0-2.4c0-0.2,0-0.3-0.2-0.3c-0.2,0-0.3,0.1-0.3,0.3c0,0.4,0,0.8,0,1.1c0,0.2,0,0.3-0.3,0.3
			c-1.2,0-2.3,0-3.5,0c-0.2,0-0.2,0-0.2-0.2c0-1.9,0-3.8,0-5.7c0-0.2,0-0.3,0.2-0.3c1.2,0,2.4,0,3.5,0c0.2,0,0.2,0.1,0.2,0.2
			c0,0.3,0,0.7,0,1c0,0.2,0,0.3,0.2,0.3c0.2,0,0.3-0.1,0.2-0.3c0-0.5,0-1.1,0-1.6c0-0.5-0.3-0.8-0.8-0.8c-1.1,0-2.3,0-3.4,0
			c-0.6,0-0.8,0.3-0.8,0.8C16.2,10.8,16.2,12,16.2,13.2z M21,5.9c-0.2,0-0.3,0-0.3,0.2c0,0.2,0,0.3,0.2,0.4c0.1,0,0.2,0.1,0.3,0.1
			c1.2,0.4,2,1.2,2.4,2.3c0.1,0.3,0.1,0.7,0.2,1c0.1,0.2,0.2,0.3,0.4,0.2c0.2,0,0.2-0.2,0.2-0.4c-0.2-1.2-0.7-2.3-1.7-3.1
			C22.2,6.3,21.6,6,21,5.9z M20.7,12.9c-0.5,0-1,0-1.5,0c-0.1,0-0.3,0-0.3,0.2c0,0.2,0,0.4,0,0.6c0,0.2,0.1,0.3,0.3,0.3c1,0,2,0,3,0
			c0.1,0,0.2,0,0.2-0.1c0.1-0.2,0.1-0.4,0.1-0.6c0-0.2-0.1-0.3-0.3-0.3C21.7,13,21.2,12.9,20.7,12.9z M23.2,9.7
			c-0.1-0.9-0.5-1.6-1.2-2.2c-0.3-0.2-0.6-0.4-1-0.5c-0.1,0-0.3-0.1-0.4,0.1c-0.1,0.1-0.1,0.3,0,0.4c0.1,0.1,0.1,0.1,0.2,0.1
			c0.9,0.3,1.6,0.9,1.7,2c0,0.1,0.1,0.2,0.1,0.3c0.1,0.1,0.2,0.2,0.4,0.1C23.2,10,23.2,9.8,23.2,9.7z M20.7,12.2c0.5,0,1,0,1.5,0
			c0.1,0,0.2,0,0.3-0.1c0-0.1,0-0.2-0.1-0.3c-0.1-0.1-0.2-0.1-0.4-0.1c-0.9,0-1.8,0-2.6,0c-0.1,0-0.1,0-0.2,0
			c-0.2,0-0.3,0.2-0.3,0.4c0,0.2,0.2,0.2,0.3,0.2C19.7,12.2,20.2,12.2,20.7,12.2z M22.3,9.7c-0.1-0.4-0.2-0.9-0.5-1.2
			c-0.2-0.2-0.5-0.4-0.8-0.5c-0.2,0-0.3,0-0.4,0.2c-0.1,0.2,0,0.3,0.2,0.3c0.1,0,0.1,0.1,0.2,0.1c0.3,0,0.4,0.2,0.6,0.4
			c0.2,0.2,0.2,0.5,0.3,0.8c0,0.2,0.1,0.2,0.3,0.2C22.3,9.9,22.3,9.8,22.3,9.7z"/>
		<path class="st3" d="M20.1,19.8c0.3-0.2,0.6-0.2,0.9-0.2c1.8-0.5,3.2-1.4,4.3-2.9c0.7-0.9,1.2-1.9,1.4-3c0.2-1,0.2-2,0.1-2.9
			c-0.2-1.1-0.5-2-1.1-2.9c-0.9-1.3-2-2.3-3.5-2.9c-1.3-0.6-2.6-0.7-3.9-0.6c-1.3,0.1-2.6,0.6-3.6,1.4c-1.2,0.9-2.2,2-2.8,3.4
			c-0.2,0.5-0.3,1-0.5,1.6c-0.1,0.6-0.1,1.2-0.1,1.8c0,1.5,0.5,2.8,1.4,4c0.9,1.3,2.1,2.2,3.5,2.8c0.4,0.2,0.9,0.3,1.4,0.4
			c0.1,0,0.3,0.1,0.4,0.1c-3.1,0-6.1,0-9.2,0c0-5.1,0-10.2,0-15.3c0-0.2,0-0.3,0.3-0.3c6.7,0,13.4,0,20.2,0c0.2,0,0.3,0,0.3,0.3
			c0,5,0,10,0,15c0,0.2,0,0.3-0.3,0.3C26.1,19.8,23.1,19.8,20.1,19.8z"/>
		<path class="st4" d="M16.2,13.2c0-1.2,0-2.5,0-3.7c0-0.5,0.2-0.8,0.8-0.8c1.1,0,2.3,0,3.4,0c0.5,0,0.8,0.3,0.8,0.8
			c0,0.5,0,1.1,0,1.6c0,0.2,0,0.3-0.2,0.3c-0.2,0-0.3-0.1-0.2-0.3c0-0.3,0-0.7,0-1c0-0.2-0.1-0.2-0.2-0.2c-1.2,0-2.4,0-3.5,0
			c-0.2,0-0.2,0.1-0.2,0.3c0,1.9,0,3.8,0,5.7c0,0.2,0.1,0.2,0.2,0.2c1.2,0,2.3,0,3.5,0c0.2,0,0.3-0.1,0.3-0.3c0-0.4,0-0.8,0-1.1
			c0-0.2,0-0.3,0.3-0.3c0.2,0,0.2,0.1,0.2,0.3c0,0.8,0,1.6,0,2.4c0,0.5-0.3,0.7-0.8,0.7c-1.1,0-2.3,0-3.4,0c-0.5,0-0.8-0.2-0.8-0.8
			C16.2,15.7,16.2,14.4,16.2,13.2z M18.7,17c0.2,0,0.4,0,0.5,0c0.2,0,0.3,0,0.3-0.2c0-0.2-0.1-0.3-0.3-0.3c-0.4,0-0.7,0-1.1,0
			c-0.2,0-0.2,0.1-0.2,0.3c0,0.2,0.1,0.2,0.3,0.2C18.3,17,18.5,17,18.7,17z M18.7,9.4c0.2,0,0.4,0,0.7,0c0.1,0,0.2,0,0.2-0.1
			c0-0.1-0.1-0.1-0.2-0.1c-0.4,0-0.9,0-1.3,0c-0.1,0-0.2,0-0.2,0.1c0,0.1,0.1,0.1,0.2,0.1C18.3,9.4,18.5,9.4,18.7,9.4z"/>
		<path class="st4" d="M21,5.9c0.6,0.1,1.2,0.4,1.7,0.8c1,0.8,1.5,1.8,1.7,3.1c0,0.2,0,0.4-0.2,0.4c-0.2,0-0.3,0-0.4-0.2
			c-0.1-0.3-0.1-0.6-0.2-1c-0.4-1.2-1.2-2-2.4-2.3c-0.1,0-0.2-0.1-0.3-0.1c-0.2-0.1-0.2-0.2-0.2-0.4C20.7,5.9,20.8,5.9,21,5.9z"/>
		<path class="st3" d="M20.7,12.9c0.5,0,1,0,1.5,0c0.3,0,0.3,0.1,0.3,0.3c0,0.2-0.1,0.4-0.1,0.6c0,0.1-0.1,0.1-0.2,0.1c-1,0-2,0-3,0
			c-0.2,0-0.3-0.1-0.3-0.3c0-0.2,0-0.4,0-0.6c0-0.2,0.2-0.2,0.3-0.2C19.7,12.9,20.2,12.9,20.7,12.9z M21.8,13.7
			c0.1,0.1,0.2,0.1,0.3,0c0.1,0,0.2,0,0.2,0c0.2-0.1,0.1-0.3,0-0.4c-0.1-0.2-0.3-0.2-0.4-0.2c-0.2,0-0.4,0-0.4,0.3
			C21.4,13.7,21.6,13.7,21.8,13.7z"/>
		<path class="st4" d="M23.2,9.7c0,0.1,0,0.3-0.2,0.3c-0.1,0-0.3,0-0.4-0.1c-0.1-0.1-0.1-0.2-0.1-0.3c-0.1-1.1-0.8-1.6-1.7-2
			c-0.1,0-0.1-0.1-0.2-0.1c-0.1-0.1-0.1-0.3,0-0.4C20.7,6.9,20.9,7,21,7c0.4,0.1,0.7,0.3,1,0.5C22.7,8.1,23.1,8.8,23.2,9.7z"/>
		<path class="st4" d="M20.7,12.2c-0.5,0-1,0-1.5,0c-0.1,0-0.3,0.1-0.3-0.2c0-0.2,0.1-0.3,0.3-0.4c0.1,0,0.1,0,0.2,0
			c0.9,0,1.8,0,2.6,0c0.1,0,0.2,0,0.4,0.1c0.1,0.1,0.2,0.2,0.1,0.3c0,0.2-0.2,0.1-0.3,0.1C21.7,12.2,21.2,12.2,20.7,12.2z"/>
		<path class="st4" d="M22.3,9.7c0,0.1,0,0.3-0.2,0.3c-0.2,0-0.3-0.1-0.3-0.2c-0.1-0.3-0.1-0.5-0.3-0.8c-0.2-0.2-0.3-0.4-0.6-0.4
			c-0.1,0-0.1-0.1-0.2-0.1c-0.1-0.1-0.2-0.2-0.2-0.3c0.1-0.2,0.2-0.2,0.4-0.2c0.3,0.1,0.6,0.3,0.8,0.5C22.1,8.8,22.2,9.2,22.3,9.7z"
			/>
		<path class="st2" d="M18.7,17c-0.2,0-0.3,0-0.5,0c-0.2,0-0.3,0-0.3-0.2c0-0.2,0-0.3,0.2-0.3c0.4,0,0.7,0,1.1,0
			c0.2,0,0.3,0.1,0.3,0.3c0,0.2-0.1,0.2-0.3,0.2C19,17,18.9,17,18.7,17z"/>
		<path class="st2" d="M18.7,9.4c-0.2,0-0.4,0-0.6,0c-0.1,0-0.2,0-0.2-0.1c0-0.1,0.1-0.1,0.2-0.1c0.4,0,0.9,0,1.3,0
			c0.1,0,0.1,0,0.2,0.1c0,0.1-0.1,0.1-0.2,0.1C19.1,9.4,18.9,9.4,18.7,9.4z"/>
		<path class="st2" d="M22.3,13.7c-0.1,0-0.2,0-0.2,0c-0.1,0-0.2,0-0.3,0c-0.2,0-0.4,0-0.4-0.3c0-0.3,0.2-0.3,0.4-0.3
			c0.2,0,0.3,0,0.4,0.2C22.3,13.4,22.3,13.5,22.3,13.7z"/>
		<path class="st4" d="M22.3,13.7c0-0.1,0-0.3,0-0.4C22.4,13.4,22.5,13.5,22.3,13.7z"/>
		<path class="st4" d="M21.8,13.7c0.1,0,0.2,0,0.3,0C22,13.8,21.9,13.8,21.8,13.7z"/>
	</g>
</g>
</svg>
