<svg id="icon" xmlns="http://www.w3.org/2000/svg" viewBox="0 0 38 23.88"><defs><style>.cls-1{fill:#e8e8e8;}.cls-2{fill:#fff;}.cls-3{fill:#040000;}.cls-4{fill:#34b05a;}</style></defs><title>linepay</title><path class="cls-1" d="M35,0H3A3,3,0,0,0,0,2.88v18a3,3,0,0,0,2.88,3H35A3,3,0,0,0,38,21V3A3,3,0,0,0,35,0Z" transform="translate(0 0)"/><path class="cls-2" d="M35,1a2,2,0,0,1,2,2V20.91a2,2,0,0,1-2,2H3a2,2,0,0,1-2-2V3A2,2,0,0,1,3,1H35" transform="translate(0 0)"/><path class="cls-3" d="M8.35,9.53H7.59a.21.21,0,0,0-.21.21V14.5a.21.21,0,0,0,.21.21h.76a.21.21,0,0,0,.21-.21V9.74A.2.2,0,0,0,8.35,9.53Z" transform="translate(0 0)"/><path class="cls-3" d="M6.5,13.53H4.43V9.74a.21.21,0,0,0-.21-.2H3.46a.21.21,0,0,0-.21.2v4.77a.21.21,0,0,0,.21.21H6.51a.21.21,0,0,0,.21-.21v-.76A.23.23,0,0,0,6.5,13.53Z" transform="translate(0 0)"/><path class="cls-3" d="M17.9,10.73a.22.22,0,0,0,.21-.21V9.75a.21.21,0,0,0-.21-.2h-3a.21.21,0,0,0-.21.2v4.77a.21.21,0,0,0,.21.21h3a.22.22,0,0,0,.21-.21v-.76a.21.21,0,0,0-.21-.21H15.83v-.82H17.9a.22.22,0,0,0,.21-.21v-.76a.21.21,0,0,0-.21-.21H15.83v-.82Z" transform="translate(0 0)"/><path class="cls-3" d="M13.62,9.53h-.77a.21.21,0,0,0-.21.21V12.5l-2-2.87a.26.26,0,0,0-.23-.11h-.8a.21.21,0,0,0-.21.21v4.76a.21.21,0,0,0,.21.21h.76a.21.21,0,0,0,.21-.21V11.62l2.09,3,0,0a.3.3,0,0,0,.15.07h.77a.21.21,0,0,0,.21-.21V9.74A.18.18,0,0,0,13.62,9.53Z" transform="translate(0 0)"/><path class="cls-4" d="M34.22,16.72H20.65a.53.53,0,0,1-.53-.53V8.07a.52.52,0,0,1,.53-.52H34.22a.53.53,0,0,1,.53.52v8.12A.52.52,0,0,1,34.22,16.72Z" transform="translate(0 0)"/><path class="cls-2" d="M25.4,11.12a1.47,1.47,0,0,1-1.49,1.45h-.64v1.19a.14.14,0,0,1-.14.14h-.68a.14.14,0,0,1-.15-.14v-4a.15.15,0,0,1,.15-.15h1.46A1.48,1.48,0,0,1,25.4,11.12Zm-1,0a.52.52,0,0,0-.52-.55h-.64v1.09h.64A.5.5,0,0,0,24.42,11.12Z" transform="translate(0 0)"/><path class="cls-2" d="M29,11v2.88a.07.07,0,0,1-.07.07h-.75a.08.08,0,0,1-.08-.07v-.21a1.12,1.12,0,0,1-.9.38,1.52,1.52,0,0,1-1.44-1.6,1.52,1.52,0,0,1,1.44-1.6,1.1,1.1,0,0,1,.9.37V11a.09.09,0,0,1,.08-.07h.75S29,10.91,29,11Zm-.91,1.44a.73.73,0,1,0-.73.73A.69.69,0,0,0,28.09,12.39Z" transform="translate(0 0)"/><path class="cls-2" d="M32,11l-.7,1.76L30.6,11a.13.13,0,0,0-.11-.08h-.77a.08.08,0,0,0-.07.11l1.21,2.93L30.41,15a.08.08,0,0,0,.07.11h.78s.1,0,.1-.08L33,11a.09.09,0,0,0-.07-.11h-.77A.17.17,0,0,0,32,11Z" transform="translate(0 0)"/></svg>