<svg xmlns="http://www.w3.org/2000/svg" viewBox="0 0 38 23.88"><defs><style>.cls-1{fill:#e8e8e8;}.cls-2{fill:#fff;}.cls-3{fill:#222;}.cls-4{fill:#ff0211;}.cls-5{fill:#4dc9ff;}</style></defs><title>merpay</title><g id="icon"><path class="cls-1" d="M35,0H3A3,3,0,0,0,0,2.88v18a3,3,0,0,0,2.88,3H35A3,3,0,0,0,38,21V3A3,3,0,0,0,35,0Z" transform="translate(0 0)"/><path class="cls-2" d="M35,1a2,2,0,0,1,2,2V20.91a2,2,0,0,1-2,2H3a2,2,0,0,1-2-2V3A2,2,0,0,1,3,1H35" transform="translate(0 0)"/></g><g id="Layer_2" data-name="Layer 2"><g id="レイヤー_1" data-name="レイヤー 1"><polygon class="cls-3" points="33.28 10.23 32 13.41 30.7 10.23 29.41 10.23 31.42 14.73 30.36 17.21 31.47 17.21 34.48 10.23 33.28 10.23"/><path class="cls-3" d="M21.08,7.86H18.36v7.35H19.5V12.35h1.58a2.18,2.18,0,0,0,2.4-2.23A2.19,2.19,0,0,0,21.08,7.86Zm.19,3.41H19.52V8.94h1.76a1.09,1.09,0,0,1,1,1.18,1.07,1.07,0,0,1-1,1.15Z" transform="translate(0 0)"/><path class="cls-3" d="M26.35,10.17a2.46,2.46,0,0,0-2.56,2.53,2.39,2.39,0,0,0,2.46,2.54,1.75,1.75,0,0,0,1.46-.79v.76h1.15V12.7A2.35,2.35,0,0,0,26.35,10.17Zm0,4.05A1.35,1.35,0,0,1,25,12.7a1.43,1.43,0,0,1,1.38-1.52,1.34,1.34,0,0,1,1.35,1.52,1.4,1.4,0,0,1-1.35,1.52Z" transform="translate(0 0)"/><path class="cls-4" d="M9.81,17.87l4.82-2.41a1,1,0,0,0,.56-.9V8.93a1,1,0,0,0-.56-.9L9.81,5.61a1,1,0,0,0-.91,0L4.08,8a1,1,0,0,0-.56.9v5.63a1,1,0,0,0,.56.9L8.9,17.87A1,1,0,0,0,9.81,17.87Z" transform="translate(0 0)"/><circle class="cls-5" cx="13.38" cy="8.99" r="2.61"/><path class="cls-2" d="M5.13,13.77l-.51-.25V12c0-.44.25-.88.76-.83a1.32,1.32,0,0,1,1,.76.65.65,0,0,1,.58-.16,1.67,1.67,0,0,1,1.26,1.76v1.78L7.63,15V13.36a.88.88,0,0,0-.71-.94c-.16,0-.31.11-.31.4v1.7l-.51-.26V12.68c0-.7-.45-.92-.65-.94s-.32.06-.32.42Z" transform="translate(0 0)"/></g></g></svg>