<svg width="410" height="90" viewBox="0 0 410 90" fill="none" xmlns="http://www.w3.org/2000/svg">
<path fill-rule="evenodd" clip-rule="evenodd" d="M0 44.2689C0 19.9569 80.319 0.00231934 204.404 0.00231934C328.994 0.00231934 409.311 19.9569 409.311 44.2689C409.311 69.2564 328.994 89.0433 204.404 89.0433C80.319 89.0409 0 69.254 0 44.2689V44.2689Z" fill="#335BA5"/>
<path fill-rule="evenodd" clip-rule="evenodd" d="M70.4279 79.1475C70.4279 78.6421 69.9248 78.6421 69.2541 78.6421C25.4882 70.2578 0 58.0191 0 44.2666C0 19.9546 80.319 0 204.404 0H214.465C214.465 1.00611 213.291 2.1799 211.114 2.1799H204.406C98.599 2.1799 30.5211 20.9607 30.5211 44.2666C30.5211 59.1906 43.7682 68.5787 68.248 75.7891C69.2541 75.7915 70.9286 76.9699 70.4279 79.1475V79.1475Z" fill="#8FBB4F"/>
<path fill-rule="evenodd" clip-rule="evenodd" d="M338.55 9.89343H339.556C383.825 18.2777 409.311 30.351 409.311 44.2666C409.311 69.2541 328.994 89.0409 204.404 89.0409H195.013C195.013 87.5318 196.187 86.358 198.367 86.358H204.404C310.712 86.358 378.962 67.5772 378.962 44.2689C378.962 29.3449 365.547 20.4599 341.235 12.7464C340.061 12.7441 338.55 11.5703 338.55 9.89343V9.89343Z" fill="#E0A138"/>
<path fill-rule="evenodd" clip-rule="evenodd" d="M267.621 30.351C267.621 30.351 266.948 31.5248 266.948 32.6986C266.447 34.2078 265.444 35.3816 262.085 34.8785H257.56C257.055 35.3816 255.881 35.887 255.38 36.5554V38.7353C257.055 40.9152 260.912 40.9152 263.764 42.089C265.944 42.5921 268.122 44.772 268.627 46.9519C269.296 50.3033 268.627 53.6616 266.447 55.8392C261.417 59.696 254.206 59.1906 247.161 56.5076C248.172 53.6593 248.67 51.4771 252.024 52.4855C254.877 53.6593 257.56 54.16 260.413 52.4855C260.914 51.9801 261.419 51.4747 260.914 50.3009C260.914 48.6264 259.239 47.618 257.562 46.9496C254.211 45.9434 249.348 45.2704 248.174 41.4183C247.164 38.2322 247.669 34.8762 249.348 32.6986C253.703 28.1711 262.085 28.6742 267.621 30.351V30.351ZM162.82 29.848C165.168 29.848 169.025 31.0218 170.031 34.8785C171.204 38.7353 170.701 40.9152 167.851 43.0951C166.174 43.7682 165.671 44.2666 164.497 44.2666C167.348 44.772 167.851 45.9458 169.025 47.618C170.031 51.9801 171.204 55.3315 172.378 58.6852H165.671C163.491 55.3338 163.994 50.974 161.311 48.1234C159.634 46.9496 156.786 46.9496 155.107 46.9496V58.6852H151.753C149.07 58.6852 147.896 56.5053 147.896 53.6593V29.8457H162.82V29.848ZM155.107 35.3816V42.089H159.634C160.64 41.4183 161.814 41.4183 162.317 40.4122C162.82 39.7414 162.82 38.2322 162.82 37.5615C162.317 35.8846 161.311 35.3816 159.634 35.3816H155.107V35.3816ZM237.105 29.848V35.3816H224.864V41.4183H236.599V46.4465H224.864V53.1562H237.606V58.6875H222.181C219.328 58.6875 217.15 56.5076 217.15 53.1562V29.848H237.105ZM299.649 29.848V35.3816H286.903V41.4183H298.638V46.4465H286.903V53.1562H299.649V58.6875H284.22C282.04 58.6875 279.189 56.5076 279.189 53.1562V29.848H299.649ZM198.367 58.6875H193.337C188.306 58.6875 187.803 54.8354 186.126 51.4771C185.12 48.6287 179.586 29.848 179.586 29.848H187.3C189.48 37.0585 191.157 44.2666 193.337 51.4771H194.51C194.51 50.3033 198.87 34.2078 198.87 34.2078L200.044 29.848H208.261L198.367 58.6875V58.6875ZM91.3862 46.9519V29.848H98.5967V58.6875H94.2369C90.8831 58.6875 88.2002 57.013 87.0264 54.1624C85.3495 51.9824 81.4928 43.7682 79.8159 40.9152C79.8159 40.9152 78.6421 40.9152 78.6421 41.4183V58.6875H72.1024V29.848H75.9591C78.1391 29.848 81.9958 29.848 83.6727 33.7047C85.8526 38.7353 87.5294 42.089 90.3801 46.9519C90.3801 47.6203 91.3862 47.6203 91.3862 46.9519V46.9519ZM330.666 46.9519V29.848H337.376V58.6875H333.014C329.663 58.6875 327.315 57.013 325.803 54.1624C324.63 51.9824 320.272 43.7682 319.098 40.9152C318.593 40.9152 317.925 40.9152 317.925 41.4183V58.6875H310.709V29.848H315.239C316.914 29.848 320.771 29.848 322.45 33.7047C325.133 38.7353 326.807 42.089 328.992 46.9519C329.663 47.6203 330.666 47.6203 330.666 46.9519V46.9519ZM130.289 35.3816C131.295 38.7353 139.009 58.6875 139.009 58.6875H130.792L128.612 52.4878H117.545L116.874 54.8354C116.874 54.8354 115.868 58.6875 113.018 58.6875H107.484L118.551 29.848H123.582C127.439 29.848 129.115 32.0279 130.289 35.3816ZM122.408 37.0585C122.408 37.5615 119.725 46.9519 119.725 46.9519H126.936C125.762 43.7682 124.756 40.4122 123.582 37.0585H122.408V37.0585Z" fill="white"/>
</svg>
