<svg width="153" height="60" viewBox="0 0 153 60" fill="none" xmlns="http://www.w3.org/2000/svg">
<path d="M60 0H0V60H60V0Z" fill="#00C73C"/>
<path d="M24 42H15V29.5V17H24L35 30V17H44V42H34.5L24 29V42Z" fill="white" stroke="white" stroke-linecap="round" stroke-linejoin="round"/>
<path d="M78 46.4576V13H91.8135C95.4088 13 98.1841 13.9017 100.139 15.7051C102.095 17.4768 103.072 19.9763 103.072 23.2034C103.072 26.4621 102.095 28.9932 100.139 30.7966C98.1841 32.5684 95.4088 33.4542 91.8135 33.4542H82.9199V46.4576H78ZM82.9199 29.5153H91.1039C95.8976 29.5153 98.2945 27.4113 98.2945 23.2034C98.2945 19.0271 95.8976 16.939 91.1039 16.939H82.9199V29.5153ZM114.056 46.8847C112.448 46.8847 111.013 46.5684 109.752 45.9356C108.49 45.3028 107.481 44.4486 106.724 43.3729C105.999 42.2972 105.636 41.0791 105.636 39.7186C105.636 38.0102 106.062 36.6655 106.913 35.6847C107.796 34.704 109.231 33.9921 111.218 33.5492C113.236 33.1062 115.949 32.8847 119.355 32.8847H120.963V31.6508C120.963 29.8475 120.585 28.5503 119.828 27.7593C119.071 26.9684 117.825 26.5729 116.091 26.5729C114.766 26.5729 113.441 26.7785 112.117 27.1898C110.792 27.5695 109.436 28.1864 108.049 29.0407L106.582 25.6712C107.78 24.8169 109.279 24.1367 111.076 23.6305C112.874 23.1243 114.593 22.8712 116.233 22.8712C119.386 22.8712 121.72 23.6305 123.234 25.1492C124.748 26.6362 125.505 28.9774 125.505 32.1729V46.4576H121.011V42.6136C120.443 43.9424 119.56 44.9864 118.361 45.7458C117.163 46.5051 115.728 46.8847 114.056 46.8847ZM115.003 43.4678C116.706 43.4678 118.125 42.8667 119.26 41.6644C120.396 40.4621 120.963 38.9435 120.963 37.1085V35.8271H119.402C117.1 35.8271 115.286 35.9379 113.962 36.1593C112.669 36.3808 111.738 36.7605 111.171 37.2983C110.635 37.8045 110.367 38.5164 110.367 39.4339C110.367 40.6362 110.777 41.617 111.597 42.3763C112.417 43.104 113.552 43.4678 115.003 43.4678ZM134.219 55L138.335 45.8407L128.684 23.2983H133.794L140.89 40.9051L148.08 23.2983H153L139.234 55H134.219Z" fill="#464646"/>
</svg>
