<svg id="icon" xmlns="http://www.w3.org/2000/svg" viewBox="0 0 38 23.88"><defs><style>.cls-1{fill:#e8e8e8;}.cls-2{fill:#fff;}</style></defs><title>netcash</title><path class="cls-1" d="M35,0H3A3,3,0,0,0,0,2.88v18a3,3,0,0,0,2.88,3H35A3,3,0,0,0,38,21V3A3,3,0,0,0,35,0Z" transform="translate(0 0)"/><path class="cls-2" d="M35,1a2,2,0,0,1,2,2V20.91a2,2,0,0,1-2,2H3a2,2,0,0,1-2-2V3A2,2,0,0,1,3,1H35" transform="translate(0 0)"/><g id="group"><path d="M3.17,8.59H4.72l1.3,4,0,0c-.07-.77-.19-1.54-.19-2.31V8.59H7.42v6.69H5.85L4.64,11.42l0,0c0,.63.12,1.25.12,1.88v2H3.17Z" transform="translate(0 0)"/><path d="M8.19,8.59h3v1.58H9.82v.93h1.26v1.58H9.82v1h1.4v1.58h-3Z" transform="translate(0 0)"/><path d="M12.82,15.28V10.22h-.9V8.59h3.46v1.63h-.94v5.06Z" transform="translate(0 0)"/><path d="M21.34,10.55a1,1,0,0,0-.76-.39c-.84,0-1,1-1,1.78s.21,1.77,1,1.77a1.14,1.14,0,0,0,.86-.42l-.09,1.87a2.09,2.09,0,0,1-1,.24c-1.34,0-2.48-1.12-2.48-3.41,0-3,1.86-3.51,2.65-3.51a2.15,2.15,0,0,1,.83.16Z" transform="translate(0 0)"/><path d="M23.88,13l.23-1.55c.06-.42.1-.84.15-1.26h0l.12,1.26L24.57,13Zm2.69,2.28L25.29,8.59h-2l-1.45,6.69h1.68l.13-.86h1.1l.12.86Z" transform="translate(0 0)"/><path d="M27,13a1.36,1.36,0,0,0,1,.74.46.46,0,0,0,.48-.43h0a.59.59,0,0,0-.13-.37,1.16,1.16,0,0,0-.28-.26,4.61,4.61,0,0,1-.8-.85A2.12,2.12,0,0,1,27,10.68c0-.79.45-2.2,1.84-2.2A2.36,2.36,0,0,1,30,8.81v2a1.35,1.35,0,0,0-1-.72.41.41,0,0,0-.42.41.58.58,0,0,0,.15.37,3.65,3.65,0,0,0,.3.27,3.12,3.12,0,0,1,.8.82,2,2,0,0,1,.29,1.16,2,2,0,0,1-1.91,2.24A3,3,0,0,1,27,15.12Z" transform="translate(0 0)"/><path d="M33.19,15.28V12.56h-.78v2.72H30.79V8.59h1.63V11h.78V8.59h1.62v6.69Z" transform="translate(0 0)"/></g></svg>