<svg xmlns="http://www.w3.org/2000/svg" role="img" viewBox="0 0 38 24" width="38" height="24" aria-labelledby="pi-ovo">
  <title id="pi-ovo">OVO</title>
  <path fill="#000" opacity=".07" d="M35 0H3C1.3 0 0 1.3 0 3v18c0 1.7 1.4 3 3 3h32c1.7 0 3-1.3 3-3V3c0-1.7-1.4-3-3-3z"/>
  <path fill="#fff" d="M35 1c1.1 0 2 .9 2 2v18c0 1.1-.9 2-2 2H3c-1.1 0-2-.9-2-2V3c0-1.1.9-2 2-2h32"/>
  <path d="M11.224 15.708a5.643 5.643 0 0 1-3.96 1.553 5.666 5.666 0 0 1-3.983-1.553 5.256 5.256 0 0 1 0-7.546A5.647 5.647 0 0 1 7.269 6.6a5.643 5.643 0 0 1 3.96 1.553 5.252 5.252 0 0 1 0 7.546M7.269 8.337a3.479 3.479 0 0 0-3.51 3.6 3.501 3.501 0 1 0 7.002 0 3.479 3.479 0 0 0-3.492-3.6m17.1-.482L20.089 17.4l-.243-.045c-1.224-.22-1.472-.526-2.043-1.768L14.595 8.598H13.389V6.902H17.947V8.598H16.858l2.579 5.782L21.939 8.598H20.589V6.902h3.78Zm10.35 7.852a5.85 5.85 0 0 1-7.938 0 5.256 5.256 0 0 1 0-7.546 5.85 5.85 0 0 1 7.938 0 5.243 5.243 0 0 1 0 7.546M30.781 8.337a3.483 3.483 0 0 0-3.514 3.6 3.501 3.501 0 1 0 7.002 0 3.474 3.474 0 0 0-3.487-3.6" fill="#4b2489" fill-rule="evenodd"/>
</svg>
