<svg xmlns="http://www.w3.org/2000/svg" width="38" height="24" viewBox="0 0 38 24">
<g transform="matrix(1 0 0 1 19 12)" id="4g_CrXuqmkgS_9HkfVZt6"  >
<g style="" vector-effect="non-scaling-stroke"   >
		<g transform="matrix(1 0 0 1 0 0)" id="csXwpDhN_h7Vs2RVXLQfL"  >
<path style="stroke: none; stroke-width: 1; stroke-dasharray: none; stroke-linecap: butt; stroke-dashoffset: 0; stroke-linejoin: miter; stroke-miterlimit: 4; fill: rgb(232,232,232); fill-rule: nonzero; opacity: 1;" vector-effect="non-scaling-stroke"  transform=" translate(-19, -11.94)" d="M 35 0 L 3 0 C 1.388899385732776 -0.0012893762149908498 0.06444352925986996 1.270188245999 0 2.8800000000000017 L 0 20.88 C -0.0012893762149909472 22.49110061426722 1.2701882459989982 23.815556470740127 2.8799999999999986 23.88 L 35 23.88 C 36.61110061426722 23.88128937621499 37.93555647074013 22.609811754001 38 21 L 38 3 C 38 1.3431457505076196 36.65685424949238 0 35 0 Z" stroke-linecap="round" />
</g>
		<g transform="matrix(1 0 0 1 0 0)" id="YYgrVpINuD5uWYwK9TuLv"  >
<path style="stroke: none; stroke-width: 1; stroke-dasharray: none; stroke-linecap: butt; stroke-dashoffset: 0; stroke-linejoin: miter; stroke-miterlimit: 4; fill: rgb(255,255,255); fill-rule: nonzero; opacity: 1;" vector-effect="non-scaling-stroke"  transform=" translate(-19, -11.96)" d="M 35 1 C 36.10456949966159 1 37 1.8954305003384126 37 2.9999999999999996 L 37 20.91 C 37 22.014569499661587 36.10456949966159 22.91 35 22.91 L 3 22.91 C 1.895430500338413 22.91 1 22.014569499661587 1 20.91 L 1 3 C 1 1.895430500338413 1.895430500338413 1 3 1 L 35 1" stroke-linecap="round" />
</g>
</g>
</g>
<g transform="matrix(1.11 0 0 1.11 19 12)" id="NPiiG_Y-O8dIBen8PlmE4"  >
<g style="" vector-effect="non-scaling-stroke"   >
		<g transform="matrix(0.04 0 0 0.04 -11.64 0.5)" id="_P0Nu2uOd_tiQkPI0Rmul"  >
<linearGradient id="SVGID_4" gradientUnits="userSpaceOnUse" gradientTransform="matrix(1 0 0 -1 0 402)"  x1="178.0771" y1="115.8099" x2="363.5964" y2="286.425">
<stop offset="0%" style="stop-color:rgb(166,0,156);stop-opacity: 1"/>
<stop offset="100%" style="stop-color:rgb(255,0,156);stop-opacity: 1"/>
</linearGradient>
<path style="stroke: none; stroke-width: 1; stroke-dasharray: none; stroke-linecap: butt; stroke-dashoffset: 0; stroke-linejoin: miter; stroke-miterlimit: 4; fill: url(#SVGID_4); fill-rule: nonzero; opacity: 1;" vector-effect="non-scaling-stroke"  transform=" translate(-258.9, -215.25)" d="M 258.2 183.6 C 257.2 182.29999999999998 247.1 169.9 247.1 169.9 L 247.1 248.9 C 247.1 255.4 252.29999999999998 260.6 258.9 260.6 C 265.5 260.6 270.7 255.40000000000003 270.7 248.90000000000003 L 270.5 196.80000000000004 C 266.8 193.5 263.4 189.9 258.2 183.6 z" stroke-linecap="round" />
</g>
		<g transform="matrix(0.04 0 0 0.04 -11.24 0)" id="s0mTc2UPA5BHL5sHQ8zp3"  >
<linearGradient id="SVGID_5" gradientUnits="userSpaceOnUse" gradientTransform="matrix(1 0 0 -1 0 402)"  x1="179.0087" y1="53.5576" x2="305.502" y2="272.673">
<stop offset="0.9012310000000001%" style="stop-color:rgb(166,0,156);stop-opacity: 1"/>
<stop offset="100%" style="stop-color:rgb(255,0,156);stop-opacity: 1"/>
</linearGradient>
<path style="stroke: none; stroke-width: 1; stroke-dasharray: none; stroke-linecap: butt; stroke-dashoffset: 0; stroke-linejoin: miter; stroke-miterlimit: 4; fill: url(#SVGID_5); fill-rule: nonzero; opacity: 1;" vector-effect="non-scaling-stroke"  transform=" translate(-269.04, -202.65)" d="M 365.3 230.1 C 361.3 230.1 357.40000000000003 229.2 354 227.6 C 353.7 230.1 354.8 237.9 342.3 247 C 341.40000000000003 247.6 291.7 279.1 281.3 284.3 C 267.90000000000003 291.1 252.8 289 244 284.5 C 240.6 283.1 197 257.2 195.2 255.9 C 192 253.6 186.6 249.1 184.89999999999998 243.4 C 183.29999999999998 238.4 183.39999999999998 230.6 183.39999999999998 230.6 L 183.39999999999998 165 C 183.39999999999998 154.8 186.39999999999998 136.6 204.99999999999997 128.5 C 224.89999999999998 121.1 235.79999999999998 132.7 246.09999999999997 145.3 C 246.89999999999998 146.3 267.09999999999997 173 275.99999999999994 180.9 C 287.49999999999994 191.1 299.09999999999997 196.4 313.09999999999997 196.4 C 350.7 196.4 365.09999999999997 166.70000000000002 365.09999999999997 144.7 C 365.09999999999997 116.19999999999999 341.79999999999995 93.1 313.09999999999997 93.1 C 295.29999999999995 93.1 278.99999999999994 102.1 269.49999999999994 116.8 C 271.19999999999993 118.8 275.69999999999993 124.3 276.3999999999999 125.1 C 276.5999999999999 125.3 284.0999999999999 134.9 284.49999999999994 135.5 C 285.79999999999995 133.9 296.49999999999994 116.9 313.09999999999997 116.9 C 330.09999999999997 116.9 341.09999999999997 130.1 341.09999999999997 144.8 C 341.09999999999997 160.10000000000002 328.59999999999997 172.5 313.59999999999997 172.5 C 304.7 172.5 298.9 169.3 291.9 163 C 284.79999999999995 156.7 267.09999999999997 133.2 267.09999999999997 133.2 C 265.49999999999994 131.1 253.29999999999995 116.29999999999998 244.49999999999997 110.49999999999999 C 233.49999999999997 103.09999999999998 218.09999999999997 98.69999999999999 197.59999999999997 105.59999999999998 C 177.09999999999997 112.49999999999999 159.89999999999998 134.59999999999997 159.89999999999998 165.09999999999997 L 159.99999999999997 230.89999999999998 C 159.99999999999997 233.39999999999998 159.79999999999998 241.59999999999997 161.89999999999998 249.29999999999998 C 165.2 262 171.29999999999998 269.2 183.99999999999997 277.09999999999997 C 189.99999999999997 280.49999999999994 224.7 301.2 230.09999999999997 304.09999999999997 C 240.29999999999995 309.49999999999994 250.39999999999998 312.2 263.99999999999994 312.2 C 274.49999999999994 312.2 284.59999999999997 309.7 293.29999999999995 305.2 C 307.19999999999993 298.09999999999997 352.29999999999995 269.2 355.19999999999993 267.5 C 368.3999999999999 258.6 379.19999999999993 244.5 378.0999999999999 227.2 C 374.2 229 369.9 230.1 365.3 230.1 z" stroke-linecap="round" />
</g>
		<g transform="matrix(0.04 0 0 0.04 -7.38 0.05)" id="A4XrO51aiXfKqeSeHz3Of"  >
<linearGradient id="SVGID_6" gradientUnits="userSpaceOnUse" gradientTransform="matrix(1 0 0 -1 0 402)"  x1="220.309" y1="64.8576" x2="413.0122" y2="242.0788">
<stop offset="0%" style="stop-color:rgb(166,0,156);stop-opacity: 1"/>
<stop offset="100%" style="stop-color:rgb(255,0,156);stop-opacity: 1"/>
</linearGradient>
<path style="stroke: none; stroke-width: 1; stroke-dasharray: none; stroke-linecap: butt; stroke-dashoffset: 0; stroke-linejoin: miter; stroke-miterlimit: 4; fill: url(#SVGID_6); fill-rule: nonzero; opacity: 1;" vector-effect="non-scaling-stroke"  transform=" translate(-365.4, -203.8)" d="M 365.4 217.5 C 373 217.5 379.2 211.4 379.2 203.8 C 379.2 196.20000000000002 373 190.10000000000002 365.4 190.10000000000002 C 357.79999999999995 190.10000000000002 351.59999999999997 196.20000000000002 351.59999999999997 203.8 C 351.6 211.3 357.8 217.5 365.4 217.5 z" stroke-linecap="round" />
</g>
		<g transform="matrix(0.04 0 0 0.04 -2.19 0.94)" id="MxkE-0vw2gZrmtZMGYY37"  >
<path style="stroke: none; stroke-width: 1; stroke-dasharray: none; stroke-linecap: butt; stroke-dashoffset: 0; stroke-linejoin: miter; stroke-miterlimit: 4; fill: rgb(28,28,28); fill-rule: nonzero; opacity: 1;" vector-effect="non-scaling-stroke"  transform=" translate(-495.2, -226.1)" d="M 459.8 303.7 C 452.5 303.7 446.90000000000003 297.7 446.90000000000003 290.8 L 446.90000000000003 195.10000000000002 C 446.90000000000003 177.00000000000003 459.40000000000003 148.50000000000003 496.90000000000003 148.50000000000003 C 503.40000000000003 148.50000000000003 543.5 148.50000000000003 543.5 201.10000000000002 C 543.5 252.00000000000003 514.2 255.00000000000003 502.1 255.00000000000003 C 486.1 255.00000000000003 475.8 245.10000000000002 472.8 239.50000000000003 L 472.8 290.8 C 472.8 297.7 467.2 303.7 459.8 303.7 z M 516.8 202 C 516.8 192.1 515.0999999999999 184.3 511.19999999999993 178.7 C 507.29999999999995 173.09999999999997 501.69999999999993 170.5 494.79999999999995 170.5 C 487.9 170.5 482.29999999999995 173.1 478.4 178.7 C 474.9 183.39999999999998 473.2 191.2 473.2 202 C 473.2 211.9 474.9 219.2 478.8 224 C 482.7 229.6 488.3 232.2 495.2 232.2 C 501.7 232.2 507.3 229.6 511.2 224 C 515.1 218.8 516.8 211.5 516.8 202 z" stroke-linecap="round" />
</g>
		<g transform="matrix(0.04 0 0 0.04 5.75 -0.02)" id="OXrdj_tbej4miJIck4c93"  >
<path style="stroke: none; stroke-width: 1; stroke-dasharray: none; stroke-linecap: butt; stroke-dashoffset: 0; stroke-linejoin: miter; stroke-miterlimit: 4; fill: rgb(28,28,28); fill-rule: nonzero; opacity: 1;" vector-effect="non-scaling-stroke"  transform=" translate(-693.7, -202.2)" d="M 693.7 253.3 C 685.9000000000001 253.3 679.5 247.3 679.5 239.9 L 679.5 164.5 C 679.5 157.2 686 151.1 693.7 151.1 C 701.5 151.1 707.9000000000001 157.1 707.9000000000001 164.5 L 707.9000000000001 239.9 C 707.9 247.2 701.5 253.3 693.7 253.3 z" stroke-linecap="round" />
</g>
		<g transform="matrix(0.04 0 0 0.04 5.76 -3.33)" id="WrZY2tFURu97wplLe-qQm"  >
<path style="stroke: none; stroke-width: 1; stroke-dasharray: none; stroke-linecap: butt; stroke-dashoffset: 0; stroke-linejoin: miter; stroke-miterlimit: 4; fill: rgb(28,28,28); fill-rule: nonzero; opacity: 1;" vector-effect="non-scaling-stroke"  transform=" translate(-693.9, -119.4)" d="M 693.9 104.3 C 685.8 104.3 679.1 111.1 679.1 119.39999999999999 C 679.1 127.69999999999999 685.8000000000001 134.5 693.9 134.5 C 702 134.5 708.6999999999999 127.7 708.6999999999999 119.4 C 708.7 111.1 702.1 104.3 693.9 104.3 z" stroke-linecap="round" />
</g>
		<g transform="matrix(0.04 0 0 0.04 9.2 -0.98)" id="rdgZw3ANioO1S5Lt4Vpy0"  >
<path style="stroke: none; stroke-width: 1; stroke-dasharray: none; stroke-linecap: butt; stroke-dashoffset: 0; stroke-linejoin: miter; stroke-miterlimit: 4; fill: rgb(28,28,28); fill-rule: nonzero; opacity: 1;" vector-effect="non-scaling-stroke"  transform=" translate(-779.9, -178.2)" d="M 814.6 101.1 C 807.3000000000001 101.1 801.7 107.1 801.7 114 L 801.7 164.4 C 798.7 159.70000000000002 794.4000000000001 155.3 789.2 152.3 C 784.5 149.70000000000002 778.8000000000001 148.4 772.4000000000001 148.4 C 760.3000000000001 148.4 750.4000000000001 153.6 742.6000000000001 163.5 C 735.3000000000002 173.4 731.4000000000001 186.3 731.4000000000001 202.3 C 731.4000000000001 218.70000000000002 735.3000000000001 231.60000000000002 742.6000000000001 241.10000000000002 C 746.5000000000001 245.8 751.7000000000002 249.70000000000002 758.1000000000001 251.90000000000003 C 764.6000000000001 254.10000000000002 771.0000000000001 255.30000000000004 777.9000000000001 255.30000000000004 C 790.4000000000001 255.30000000000004 801.6000000000001 252.30000000000004 812.4000000000001 245.80000000000004 C 822.8000000000001 239.30000000000004 828.4000000000001 226.80000000000004 828.4000000000001 208.70000000000005 L 828.4000000000001 114 C 827.9 106.7 821.9 101.1 814.6 101.1 z M 796.4 224.8 C 792.5 230.4 787.3 233 780 233 C 772.7 233 767.1 230.4 763.6 224.8 C 759.7 219.20000000000002 758 211.4 758 201.5 C 758 192.4 759.7 185.1 763.6 179.9 C 767.5 174.3 772.7 171.70000000000002 779.6 171.70000000000002 C 786.5 171.70000000000002 792.1 174.3 796 179.50000000000003 C 799.9 185.10000000000002 801.6 192.40000000000003 801.6 201.50000000000003 C 801.6 211.5 799.9 219.7 796.4 224.8 z" stroke-linecap="round" />
</g>
		<g transform="matrix(0.04 0 0 0.04 2.3 -0.09)" id="3y5BS3_XbZsE1he3_94HZ"  >
<path style="stroke: none; stroke-width: 1; stroke-dasharray: none; stroke-linecap: butt; stroke-dashoffset: 0; stroke-linejoin: miter; stroke-miterlimit: 4; fill: rgb(28,28,28); fill-rule: nonzero; opacity: 1;" vector-effect="non-scaling-stroke"  transform=" translate(-607.45, -200.35)" d="M 642.9 253.6 C 650.1999999999999 253.6 655.8 247.6 655.8 240.7 L 655.8 193.7 C 655.8 175.6 643.3 147.1 605.6999999999999 147.1 C 599.1999999999999 147.1 559.0999999999999 147.1 559.0999999999999 199.7 C 559.0999999999999 250.6 588.3999999999999 253.6 600.4999999999999 253.6 C 616.4999999999999 253.6 626.7999999999998 243.7 629.7999999999998 238.1 L 629.7999999999998 240.7 C 630 247.6 635.6 253.6 642.9 253.6 z M 586 200.6 C 586 190.7 587.7 182.9 591.6 177.29999999999998 C 595.5 171.7 601.1 169.1 608 169.1 C 614.9 169.1 620.5 171.7 624.4 177.29999999999998 C 627.9 181.99999999999997 629.6 189.79999999999998 629.6 200.6 C 629.6 210.5 627.9 217.79999999999998 624 222.6 C 620.1 228.2 614.5 230.79999999999998 607.6 230.79999999999998 C 601.1 230.79999999999998 595.5 228.2 591.6 222.6 C 587.7 217.4 586 210.1 586 200.6 z" stroke-linecap="round" />
</g>
		<g transform="matrix(0.04 0 0 0.04 13.82 0.98)" id="hsVyvEMeJlIWCz_IOjPqp"  >
<path style="stroke: none; stroke-width: 1; stroke-dasharray: none; stroke-linecap: butt; stroke-dashoffset: 0; stroke-linejoin: miter; stroke-miterlimit: 4; fill: rgb(28,28,28); fill-rule: nonzero; opacity: 1;" vector-effect="non-scaling-stroke"  transform=" translate(-895.48, -227.22)" d="M 859.9 296 C 859.9 299.9 863.3 302.9 866.8 303.3 C 874.5999999999999 304.2 887.0999999999999 304.2 894 298.6 C 898.7 294.70000000000005 902.6 289.1 905.6 280.5 L 939.3000000000001 168 C 942.3000000000001 159.4 935.8000000000001 150.8 926.8000000000001 150.8 C 920.8000000000001 150.8 915.6 154.70000000000002 914.3000000000001 160.3 L 896.2 223.20000000000002 L 878 160.6 C 876.3 154.6 871.1 150.7 864.6 150.7 C 855.1 150.7 848.6 160.2 851.7 168.79999999999998 L 881 265.79999999999995 C 882.7 271.4 882.3 275.29999999999995 879.3 277.4 C 876.3 280 872.4 281.29999999999995 867.1999999999999 281.29999999999995 C 863.3 281.29999999999995 859.9 284.69999999999993 859.9 288.59999999999997 L 859.9 296 z" stroke-linecap="round" />
</g>
</g>
</g>
</svg>
