<svg xmlns="http://www.w3.org/2000/svg" xmlns:xlink="http://www.w3.org/1999/xlink" width="38" height="24" viewBox="0 0 38 24">
  <defs>
    <style>
      .a {
        fill: #e8e8e8;
      }

      .b {
        fill: #fff;
      }

      .c {
        fill: url(#a);
      }

      .d {
        fill: #009adc;
      }

      .e {
        fill: url(#b);
      }

      .f {
        fill: url(#c);
      }

      .g {
        fill: url(#d);
      }

      .h {
        fill: url(#e);
      }

      .i {
        fill: url(#f);
      }
    </style>
    <linearGradient id="a" x1="21.46" y1="19.08" x2="13.36" y2="3.84" gradientUnits="userSpaceOnUse">
      <stop offset="0" stop-color="#1965ac"/>
      <stop offset="0.46" stop-color="#166cb2"/>
      <stop offset="0.6" stop-color="#0e7cc1"/>
      <stop offset="0.84" stop-color="#0492d5"/>
      <stop offset="1" stop-color="#009adc"/>
    </linearGradient>
    <linearGradient id="b" x1="20.63" y1="13.43" x2="20.63" y2="4.84" gradientUnits="userSpaceOnUse">
      <stop offset="0" stop-color="#009adc"/>
      <stop offset="0.52" stop-color="#d4edff"/>
      <stop offset="1" stop-color="#1965ac"/>
    </linearGradient>
    <radialGradient id="c" cx="29.01" cy="8.7" r="2.5" gradientUnits="userSpaceOnUse">
      <stop offset="0" stop-color="#c3e400"/>
      <stop offset="0.3" stop-color="#c1e300"/>
      <stop offset="0.41" stop-color="#bae101"/>
      <stop offset="0.49" stop-color="#afde03"/>
      <stop offset="0.55" stop-color="#9ed806"/>
      <stop offset="0.61" stop-color="#88d109"/>
      <stop offset="0.63" stop-color="#7acd0b"/>
      <stop offset="0.65" stop-color="#70ca11"/>
      <stop offset="0.77" stop-color="#40b931"/>
      <stop offset="0.87" stop-color="#1dad49"/>
      <stop offset="0.95" stop-color="#08a657"/>
      <stop offset="1" stop-color="#00a35c"/>
    </radialGradient>
    <radialGradient id="d" cx="23.48" cy="8.74" r="1.99" xlink:href="#c"/>
    <radialGradient id="e" cx="18.67" cy="8.7" r="1.55" xlink:href="#c"/>
    <radialGradient id="f" cx="10.32" cy="8.7" r="0.83" xlink:href="#c"/>
  </defs>
  <title>payeasy</title>
  <g>
    <path class="a" d="M35,0H3A3,3,0,0,0,0,3V21a3,3,0,0,0,3,3H35a3,3,0,0,0,3-3V3A3,3,0,0,0,35,0Z"/>
    <path class="b" d="M35,1a2,2,0,0,1,2,2V21a2,2,0,0,1-2,2H3a2,2,0,0,1-2-2V3A2,2,0,0,1,3,1H35"/>
  </g>
  <g>
    <path class="c" d="M15.05,22.49l-1.83-1.27a14.55,14.55,0,0,1-1.91-8.59C11.71,6.83,13,4,13,4l1.07-.12a6.58,6.58,0,0,1,2.39-1.11c1-.08,3.9,0,3.9,0a5.2,5.2,0,0,1,3.18,2.47,8.66,8.66,0,0,1,.8,5.17,8,8,0,0,1-1.51,3.26c-1,1-2.39,2.39-3.82,2.39a7.36,7.36,0,0,1-2.31-.32A23.81,23.81,0,0,1,15.05,22.49Z"/>
    <path class="d" d="M13,4l2,.16s-2.19,5.33-2,8.75-.08,4.13.65,6.44a10.29,10.29,0,0,0,1.38,3.1l-1.87-1.27a14.65,14.65,0,0,1-1.63-4.45c-.16-1.83-.56-1.83-.33-4.53a51,51,0,0,1,1.06-5.88A11.71,11.71,0,0,1,13,4Z"/>
    <g>
      <path class="e" d="M23.64,9.69c-.08-2.07.4-4.37-3.58-4.85a2.9,2.9,0,0,0-.62.17,3.9,3.9,0,0,1,1.17,1.42,4.61,4.61,0,0,1,.32,2.47,4.72,4.72,0,0,1-1.11,2.39c-.64.48-.72.64-1,.72a2.85,2.85,0,0,1-.87.32h-.37a3.36,3.36,0,0,0,2.44,1.11,2.45,2.45,0,0,0,.87-.16C21.25,13.11,23.72,11.76,23.64,9.69Z"/>
      <path class="b" d="M18.87,12c.24-.08.32-.24,1-.72a4.72,4.72,0,0,0,1.11-2.39,4.61,4.61,0,0,0-.32-2.47A3.9,3.9,0,0,0,19.44,5c-.91.36-2.53,1.4-2.64,4.36a4.14,4.14,0,0,0,.82,2.94H18A2.85,2.85,0,0,0,18.87,12Z"/>
    </g>
    <circle class="f" cx="29.01" cy="8.7" r="2.5"/>
    <circle class="g" cx="23.48" cy="8.74" r="1.99"/>
    <circle class="h" cx="18.67" cy="8.7" r="1.55"/>
    <circle class="i" cx="10.32" cy="8.7" r="0.83"/>
  </g>
</svg>
