<svg width="109" height="110" viewBox="0 0 109 110" fill="none" xmlns="http://www.w3.org/2000/svg">
<path d="M0 97.9986C0 69.0963 0 40.1958 0 11.2935C0.121717 9.13864 0.6758 7.14042 1.98198 5.37353C4.26917 2.28421 7.085 0.147544 11.1071 0.0819691C11.1652 0.0819691 11.2161 0.0418953 11.2633 0H97.7367C99.8858 0.122043 101.879 0.677611 103.641 1.9873C106.722 4.28061 108.853 7.10399 108.918 11.1369C108.92 11.1933 108.958 11.2462 109 11.2935V97.9986C108.807 98.3374 108.916 98.7126 108.887 99.0697C108.611 102.434 106.744 104.868 104.271 106.906C102.08 108.713 99.5134 109.4 96.6812 109.396C68.561 109.374 40.4408 109.343 12.3188 109.416C6.58723 109.431 2.49428 105.773 0.65945 101.638C0.145333 100.48 0.221633 99.2117 0 97.9986H0Z" fill="#FFDC00"/>
<path d="M66.1438 78.728H73.7405C70.2916 80.7541 66.5349 81.7484 62.7032 82.4307C41.8934 86.1375 20.6342 75.1044 11.5731 55.863C7.92864 48.129 6.47253 39.9789 7.29627 31.4337C7.43772 29.9401 8.12834 29.1829 9.50956 28.8667C12.5424 28.1678 15.5753 27.4897 18.7122 27.4939C19.3944 27.3649 20.0726 27.2692 20.7133 27.5854C21.2874 28.172 21.1709 28.8626 21.1543 29.5574C20.8173 43.303 25.4269 55.1391 35.1994 64.7993C42.9168 72.4335 52.3649 76.7685 63.0568 78.4826C64.0886 78.6531 65.1412 78.3536 66.1438 78.728V78.728Z" fill="#0079C0"/>
<path d="M101.864 40.0039C101.095 51.0163 96.5432 60.3353 89.0754 68.3148C87.6609 69.8291 86.0259 71.1313 84.549 72.5916C82.0154 75.0878 78.7287 75.7451 75.4462 76.1528C63.6892 77.6131 53.4507 74.2516 44.8181 66.1057C43.9652 65.3027 43.1997 64.3999 42.7046 63.3099C41.9558 61.0343 40.8616 58.9042 40.5413 56.4579C38.6983 42.3587 49.9394 29.079 64.3091 29.2995C68.952 29.3702 73.337 30.5392 76.9024 33.8259C77.4016 34.2877 77.9008 34.7869 78.5498 35.0698C83.8293 41.5724 85.1522 48.8612 82.8932 56.8656C82.8266 56.9405 82.7767 57.0279 82.7476 57.1277L82.785 57.2317L82.6893 57.2858C81.5328 57.0737 81.7408 56.1542 81.6784 55.3596C81.3705 51.5529 80.6009 47.8752 78.529 44.5844C76.1577 39.8292 72.6339 36.3803 67.3461 35.1572C58.5845 33.1353 49.9228 38.9389 48.1463 47.9043C46.4572 56.4163 50.8006 64.1711 58.8799 67.3787C63.5894 69.2467 68.3737 69.6503 73.312 68.7641C80.2348 67.3746 85.4393 63.1893 90.0489 58.1969C94.567 53.3086 97.8536 47.6214 100.092 41.3394C100.52 40.1329 100.554 40.1454 101.573 39.2218C102.064 39.3341 101.989 39.6586 101.864 40.0039V40.0039Z" fill="#0079C0"/>
<path d="M66.1438 78.728C57.507 78.8404 49.6357 76.2527 42.4633 71.6347C30.2736 63.7842 23.0472 52.5722 20.7881 38.2732C20.2556 34.8992 19.7148 31.4337 20.5885 28.1346C19.9852 27.4023 19.278 27.7102 18.7122 27.4939C22.6062 26.9198 26.4503 27.0071 30.3777 27.9931C30.0989 30.4727 29.7786 32.5861 29.633 34.7078C28.4681 51.582 38.4362 71.9509 59.271 77.3427C61.53 77.9334 63.8515 78.2746 66.1438 78.728Z" fill="#009EDC"/>
<path d="M78.5498 35.0656C76.557 34.4208 74.9678 33.0354 73.0957 32.1451C65.2327 28.405 55.3395 30.1024 48.9576 36.035C44.0443 40.5988 41.6854 46.2194 41.1237 52.7053C40.8949 55.3346 41.4773 57.9348 42.2304 60.4685C42.5049 61.4004 42.8544 62.3115 42.7046 63.3099C36.3019 55.0268 37.4294 41.5224 45.1925 33.5596C54.3868 24.124 68.9645 24.3445 77.8551 34.063C78.1255 34.3584 78.321 34.7287 78.5498 35.0656V35.0656Z" fill="#009EDC"/>
<path d="M101.864 40.0038C101.348 39.3839 101.44 39.9913 101.352 40.2534C98.7107 48.1164 94.5753 55.0849 88.6261 60.8802C84.9817 64.429 80.8671 67.3245 75.7749 68.5227C74.9512 68.7182 74.1441 68.8098 73.312 68.7599C87.4029 64.2459 95.8733 48.6115 94.4547 34.766C94.4047 34.2876 94.3631 33.7925 95.0122 33.1435C97.3835 32.7857 99.8547 33.0312 102.16 34.533C102.193 36.4717 102.438 38.2523 101.864 40.0038V40.0038Z" fill="#009EDC"/>
</svg>
