<?xml version="1.0" encoding="UTF-8" standalone="no"?>
<svg
   xmlns:dc="http://purl.org/dc/elements/1.1/"
   xmlns:cc="http://creativecommons.org/ns#"
   xmlns:rdf="http://www.w3.org/1999/02/22-rdf-syntax-ns#"
   xmlns:svg="http://www.w3.org/2000/svg"
   xmlns="http://www.w3.org/2000/svg"
   xmlns:sodipodi="http://sodipodi.sourceforge.net/DTD/sodipodi-0.dtd"
   xmlns:inkscape="http://www.inkscape.org/namespaces/inkscape"
   version="1.0"
   width="770.32306pt"
   height="484.08725pt"
   viewBox="0 0 770.32306 484.08725"
   preserveAspectRatio="xMidYMid meet"
   id="svg24"
   sodipodi:docname="paypay.svg"
   inkscape:version="1.0.2 (e86c870879, 2021-01-15, custom)">
  <metadata
     id="metadata30">
    <rdf:RDF>
      <cc:Work
         rdf:about="">
        <dc:format>image/svg+xml</dc:format>
        <dc:type
           rdf:resource="http://purl.org/dc/dcmitype/StillImage" />
      </cc:Work>
    </rdf:RDF>
  </metadata>
  <defs
     id="defs28" />
  <sodipodi:namedview
     pagecolor="#ffffff"
     bordercolor="#666666"
     borderopacity="1"
     objecttolerance="10"
     gridtolerance="10"
     guidetolerance="10"
     inkscape:pageopacity="0"
     inkscape:pageshadow="2"
     inkscape:window-width="1920"
     inkscape:window-height="1046"
     id="namedview26"
     showgrid="false"
     inkscape:zoom="0.75456204"
     inkscape:cx="498.23983"
     inkscape:cy="452.20927"
     inkscape:window-x="0"
     inkscape:window-y="0"
     inkscape:window-maximized="1"
     inkscape:current-layer="svg24" />
  <path
     class="cls-1"
     d="M 709.5081,1.9483373e-5 H 60.815006 A 60.814977,60.814977 0 0 0 1.9485806e-5,58.382409 V 423.27225 A 60.814977,60.814977 0 0 0 58.382408,484.08724 H 709.5081 a 60.814977,60.814977 0 0 0 60.81497,-58.38238 V 60.815009 A 60.814977,60.814977 0 0 0 709.5081,1.9483373e-5 Z"
     id="path8"
     style="fill:#e8e8e8;stroke-width:20.2717" />
  <path
     class="cls-2"
     d="m 709.5081,20.271689 a 40.543318,40.543318 0 0 1 40.54332,40.54332 V 423.88042 a 40.543318,40.543318 0 0 1 -40.54332,40.5433 H 60.815006 A 40.543318,40.543318 0 0 1 20.271684,423.88042 V 60.815009 A 40.543318,40.543318 0 0 1 60.815006,20.271689 H 709.5081"
     id="path10-3"
     style="fill:#ffffff;stroke-width:20.2717" />
  <g
     transform="matrix(0.1,0,0,-0.1,-28.093992,381.19916)"
     fill="#ff0132"
     stroke="none"
     id="g8">
    <path
       d="m 796,2332 c -62,-34 -105,-88 -121,-149 l -12,-48 181,-7 c 229,-9 358,-22 516,-54 512,-103 802,-350 741,-633 -35,-162 -149,-286 -334,-362 -125,-52 -259,-81 -544,-115 l -42,-5 -35,-149 c -20,-82 -36,-153 -36,-159 0,-8 162,-11 543,-11 h 542 l 50,24 c 60,28 97,66 124,126 20,44 21,63 21,704 0,476 -3,670 -12,698 -15,51 -82,126 -133,149 -38,17 -82,19 -720,19 H 845 Z"
       id="path2" />
    <path
       d="m 730,1831 -65,-6 -3,-455 c -2,-250 0,-478 3,-506 9,-73 58,-151 119,-189 42,-26 61,-30 132,-33 l 82,-4 146,592 c 81,326 144,596 140,599 -8,8 -472,10 -554,2 z"
       id="path4" />
    <path
       d="m 1385,1808 c -12,-39 -145,-606 -145,-621 0,-21 39,-22 210,-7 286,26 518,119 575,231 20,37 19,93 -1,135 -47,98 -235,193 -486,244 -57,12 -113,23 -126,26 -13,3 -24,-1 -27,-8 z"
       id="path6" />
  </g>
  <g
     transform="matrix(0.1,0,0,-0.1,-28.093992,381.19916)"
     fill="#000000"
     stroke="none"
     id="g22">
    <path
       d="m 2766,2024 c -14,-14 -16,-73 -16,-505 v -489 h 110 110 v 169 168 l 118,6 c 80,4 136,12 177,26 243,85 324,379 149,541 -90,83 -163,100 -426,100 -175,0 -209,-2 -222,-16 z m 439,-108 c 28,-13 60,-34 72,-47 75,-82 68,-235 -15,-322 -47,-50 -96,-68 -198,-74 l -94,-6 v 237 236 h 93 c 76,0 101,-4 142,-24 z"
       id="path10" />
    <path
       d="m 3762,1780 c -35,-5 -79,-14 -98,-20 -29,-10 -34,-15 -28,-33 10,-33 17,-38 50,-28 63,18 154,23 203,11 72,-17 94,-46 99,-127 4,-61 3,-66 -14,-59 -36,14 -179,18 -221,7 -119,-32 -193,-129 -193,-252 0,-119 46,-200 140,-242 63,-28 168,-28 234,1 58,26 56,26 56,7 0,-12 19,-15 111,-15 h 110 l -3,298 -3,299 -27,41 c -30,44 -89,84 -153,101 -58,16 -190,21 -263,11 z m 209,-350 c 17,-10 19,-22 19,-145 v -135 l -32,-20 c -46,-28 -115,-26 -158,3 -48,32 -73,79 -73,140 -2,98 69,167 171,167 29,0 62,-5 73,-10 z"
       id="path12" />
    <path
       d="m 4280,1784 c 0,-3 79,-163 176,-355 l 177,-350 -27,-62 C 4562,914 4520,880 4434,880 h -44 v -60 -60 h 43 c 101,0 199,46 246,115 24,35 401,887 401,905 0,6 -31,10 -69,10 h -68 l -104,-236 -103,-236 -118,236 -118,236 h -110 c -61,0 -110,-3 -110,-6 z"
       id="path14" />
    <path
       d="m 5242,2028 c -9,-9 -12,-135 -12,-505 v -493 h 105 105 v 170 170 h 78 c 222,0 370,75 435,218 30,67 30,199 1,263 -40,87 -117,144 -231,174 -74,19 -462,22 -481,3 z m 409,-99 c 89,-27 152,-114 152,-209 0,-65 -19,-113 -63,-164 -52,-58 -101,-78 -207,-84 l -93,-5 v 237 236 h 86 c 48,0 104,-5 125,-11 z"
       id="path16" />
    <path
       d="m 6240,1780 c -30,-4 -74,-13 -97,-19 -41,-11 -42,-12 -31,-42 7,-20 15,-28 25,-25 38,15 154,27 201,21 72,-9 110,-43 123,-110 14,-77 9,-84 -59,-73 -182,30 -326,-40 -363,-176 -16,-58 -6,-163 19,-212 24,-47 68,-88 121,-111 55,-23 165,-21 225,5 58,26 66,27 66,7 0,-12 18,-15 105,-15 h 105 v 288 c 0,258 -2,291 -19,327 -34,73 -102,115 -221,134 -72,12 -117,12 -200,1 z m 205,-350 26,-10 -3,-132 -3,-132 -35,-24 c -69,-47 -177,-15 -215,64 -27,57 -17,145 21,185 16,17 43,37 59,45 36,16 113,18 150,4 z"
       id="path18" />
    <path
       d="m 6926,1438 177,-353 -18,-49 c -23,-67 -62,-124 -96,-142 -16,-8 -51,-14 -79,-14 h -50 v -61 -62 l 72,6 c 95,8 170,45 214,107 26,37 189,398 380,843 l 33,77 h -72 -73 l -84,-192 c -46,-106 -92,-213 -103,-238 l -20,-44 -118,237 -119,237 h -110 -110 z"
       id="path20" />
  </g>
</svg>
