<?xml version="1.0" encoding="utf-8"?>
<!-- Generator: Adobe Illustrator 25.2.3, SVG Export Plug-In . SVG Version: 6.00 Build 0)  -->
<svg version="1.1" id="Layer_1" xmlns="http://www.w3.org/2000/svg" xmlns:xlink="http://www.w3.org/1999/xlink" x="0px" y="0px"
	 viewBox="0 0 38 24" style="enable-background:new 0 0 38 24;" xml:space="preserve">
<style type="text/css">
	.st0{opacity:7.000000e-02;enable-background:new    ;}
	.st1{fill:#FFFFFF;}
	.st2{fill:#7887E6;}
	.st3{fill:#FF5073;}
	.st4{fill:#2D2341;}
</style>
<path class="st0" d="M35,0H3C1.3,0,0,1.3,0,3v18c0,1.7,1.4,3,3,3h32c1.7,0,3-1.3,3-3V3C38,1.3,36.6,0,35,0z"/>
<path class="st1" d="M35,1c1.1,0,2,0.9,2,2v18c0,1.1-0.9,2-2,2H3c-1.1,0-2-0.9-2-2V3c0-1.1,0.9-2,2-2H35"/>
<g>
	<path class="st2" d="M23,11.5c0,0.3-0.2,0.5-0.5,0.5s-0.5-0.2-0.5-0.5s0.2-0.5,0.5-0.5C22.7,10.9,23,11.2,23,11.5"/>
	<path class="st3" d="M23,13.2c0,0.3-0.2,0.5-0.5,0.5s-0.5-0.2-0.5-0.5s0.2-0.5,0.5-0.5C22.7,12.6,23,12.9,23,13.2"/>
	<path class="st4" d="M5.4,11.7H5v-1h0.4c0.3,0,0.5,0.2,0.5,0.5C5.9,11.5,5.7,11.7,5.4,11.7 M5.5,10.1H4.2v3.6H5v-1.3h0.5
		c0.7,0,1.2-0.4,1.2-1.2C6.7,10.5,6.3,10.1,5.5,10.1 M11.2,11l-0.6,1.6L10,11H9.1l1.1,2.5l-0.3,0.9h0.8L12,11L11.2,11L11.2,11z
		 M17.3,10.9V11h-0.4v0.6h0.4v2.1h0.8v-2.1h0.6V11h-0.6v-0.1c0-0.2,0.1-0.4,0.3-0.4c0.1,0,0.2,0,0.2,0V9.9c-0.1,0-0.2,0-0.4,0
		C17.7,9.8,17.3,10.3,17.3,10.9 M15.8,13c-0.1,0.1-0.2,0.1-0.3,0.1c-0.2,0-0.3-0.1-0.3-0.3c0-0.2,0.2-0.4,0.7-0.3V13z M15.6,10.9
		c-0.5,0-0.9,0.2-1.2,0.3l0.2,0.5c0.1-0.1,0.5-0.2,0.7-0.2c0.2,0,0.4,0.1,0.4,0.3V12c-1.1-0.1-1.5,0.4-1.5,0.9
		c0,0.5,0.4,0.8,0.9,0.8c0.2,0,0.4-0.1,0.6-0.2v0.1h0.8v-1.8C16.6,11.2,16.3,10.9,15.6,10.9 M8.3,13c-0.1,0.1-0.2,0.1-0.3,0.1
		c-0.2,0-0.3-0.1-0.3-0.3c0-0.2,0.2-0.4,0.7-0.3V13z M8.1,10.9c-0.5,0-0.9,0.2-1.2,0.3l0.2,0.5c0.1-0.1,0.5-0.2,0.7-0.2
		c0.2,0,0.4,0.1,0.4,0.3V12c-1.1-0.1-1.5,0.4-1.5,0.9c0,0.5,0.4,0.8,0.9,0.8c0.2,0,0.4-0.1,0.6-0.2v0.1h0.8v-1.8
		C9.1,11.2,8.7,10.9,8.1,10.9 M12.9,11.7c0-0.1,0.1-0.2,0.3-0.2c0.2,0,0.4,0.1,0.6,0.1l0.2-0.5c-0.2-0.1-0.5-0.2-0.9-0.2
		c-0.6,0-1.1,0.3-1.1,0.8c0,0.9,1.2,0.7,1.2,1.1c0,0.1-0.1,0.2-0.4,0.2c-0.2,0-0.5-0.1-0.7-0.2L12,13.4c0.3,0.2,0.7,0.2,1,0.2
		c0.6,0,1.1-0.3,1.1-0.9C14.1,11.9,12.9,12.1,12.9,11.7 M20.1,11.5c0.2,0,0.4,0.2,0.4,0.5h-0.9C19.7,11.7,19.8,11.5,20.1,11.5
		 M21.4,12.5v-0.2c0-0.8-0.5-1.3-1.3-1.3c-0.7,0-1.3,0.6-1.3,1.4c0,0.8,0.5,1.4,1.4,1.4c0.2,0,0.7,0,1.1-0.3L21,12.9
		c-0.2,0.1-0.5,0.2-0.7,0.2c0,0,0,0-0.1,0c0,0,0,0,0,0c0,0,0,0-0.1,0c0,0,0,0,0,0c0,0,0,0,0,0c0,0,0,0,0,0c0,0,0,0,0,0c0,0,0,0,0,0
		c0,0,0,0,0,0c0,0,0,0,0,0c0,0,0,0,0,0c0,0,0,0,0,0l0,0c0,0-0.1,0-0.1-0.1l0,0c0,0,0,0,0,0c0,0,0,0,0,0c0,0,0,0,0,0c0,0,0,0,0,0l0,0
		c-0.1-0.1-0.1-0.2-0.1-0.3L21.4,12.5L21.4,12.5z"/>
	<path class="st2" d="M27.8,13c-0.1,0.1-0.2,0.1-0.3,0.1c-0.2,0-0.3-0.1-0.3-0.3c0-0.2,0.2-0.4,0.7-0.3V13z M27.6,10.9
		c-0.5,0-0.9,0.2-1.2,0.3l0.2,0.5c0.1-0.1,0.5-0.2,0.7-0.2c0.2,0,0.4,0.1,0.4,0.3V12c-1.1-0.1-1.5,0.4-1.5,0.9
		c0,0.5,0.4,0.8,0.9,0.8c0.2,0,0.4-0.1,0.6-0.2v0.1h0.8v-1.8C28.6,11.2,28.2,10.9,27.6,10.9"/>
	<path class="st2" d="M29.2,12.9c0.2,0.1,0.4,0.2,0.7,0.2c0.2,0,0.4-0.1,0.4-0.2c0-0.4-1.2-0.2-1.2-1.1c0-0.6,0.5-0.8,1.1-0.8
		c0.3,0,0.7,0.1,0.9,0.2l-0.2,0.5c-0.2-0.1-0.4-0.1-0.6-0.1c-0.2,0-0.3,0.1-0.3,0.2c0,0.4,1.2,0.2,1.2,1.1c0,0.6-0.5,0.9-1.1,0.9
		c-0.3,0-0.7-0.1-1-0.2L29.2,12.9z"/>
	<path class="st2" d="M33,13.6v-1.8c0-0.2-0.1-0.3-0.3-0.3c-0.2,0-0.4,0.1-0.5,0.2v1.9h-0.8v-3.6h0.8v1.2c0.2-0.2,0.5-0.3,0.8-0.3
		c0.3,0,0.8,0.2,0.8,0.9v1.8H33z"/>
	<path class="st2" d="M25.3,12.7c-0.1,0.2-0.2,0.4-0.5,0.4c-0.4,0-0.5-0.3-0.5-0.8c0-0.5,0.2-0.8,0.5-0.8c0.2,0,0.4,0.2,0.5,0.4h0.8
		c-0.1-0.6-0.7-1-1.3-1c-0.8,0-1.4,0.5-1.4,1.4s0.6,1.4,1.4,1.4c0.6,0,1.1-0.4,1.3-1L25.3,12.7L25.3,12.7z"/>
</g>
</svg>
