<svg width="136" height="136" viewBox="0 0 136 136" fill="none" xmlns="http://www.w3.org/2000/svg">
<rect width="136" height="136" fill="#F9ED4A"/>
<path d="M59.5 25.5C57.9 26.3 54.1 26.9 51.1 27C46.7 27 45.1 27.5 41.9 30.1C39.8 31.8 36.3 33.6 34.3 34.2C28.6 35.7 24 40.9 24 45.7C24 51 28.8 59 34.7 63.3C40.9 67.8 48.7 71.6 49.7 70.6C50.2 70.1 50 69.5 49.4 69.3C48.8 69.1 45.4 67 41.9 64.7C34.8 60 29 52.4 29 48C29 44.1 32.2 40.6 37.2 39.1C39.6 38.4 43 36.5 44.8 34.9C47.4 32.6 49 32 52.8 32C55.4 32 59.6 31.2 62.3 30.3C66.7 28.7 67.3 28.7 71.8 30.3C74.4 31.2 78.6 32 81.2 32C85 32 86.6 32.6 89.2 34.9C91 36.4 94.3 38.3 96.5 39C109.8 43.2 107.5 54.3 91.1 65.4C82.4 71.1 83.1 72.7 92.1 67.9C103.4 61.9 110 53.5 110 45.4C110 40.9 105.2 35.7 99.7 34.2C97.7 33.6 94.3 31.8 92.3 30.1C89.1 27.5 87.7 27 83.2 27C80.3 27 76.3 26.3 74.3 25.5C70 23.7 63.5 23.7 59.5 25.5Z" fill="#006671"/>
<path d="M65.9 38.7C65.6 40.6 66.3 51.6 66.7 52.4C67.9 54.2 69 50.2 69 44.2C69 39.4 68.7 38 67.5 38C66.7 38 65.9 38.3 65.9 38.7Z" fill="#006671"/>
<path d="M52 45.2C52 46.9 57 55 58 55C59.6 55 59.2 53.6 56.4 48.6C53.9 44.2 52 42.7 52 45.2Z" fill="#006671"/>
<path d="M77.5 49C74.7 54.4 74.6 55 75.9 55C77.1 55 82 47.4 82 45.5C82 42.5 80 44.1 77.5 49Z" fill="#006671"/>
<path d="M45 54.3C45 55.4 52.4 60 54.3 60C56.1 60 54.7 58 51 55.6C46.6 52.7 45 52.4 45 54.3Z" fill="#006671"/>
<path d="M86.3 56.1C82.5 58.8 80.8 61 82.7 61C84.5 61 92 55.7 92 54.5C92 52.4 91.1 52.7 86.3 56.1Z" fill="#006671"/>
<path d="M61.5 58.4C56.7 60.6 53.8 64.4 53.3 69.3C52.3 77.7 57.5 84 65.9 84.8C77 85.8 84.7 72.8 78.6 63.5C75 58.1 67.2 55.7 61.5 58.4ZM73.6 61.8C79.1 66.2 79.5 72.7 74.6 77.6C70.6 81.6 66.3 82.1 61.3 79C55.3 75.4 55.1 65.8 61.1 61.6C64.2 59.5 70.9 59.6 73.6 61.8Z" fill="#006671"/>
<path d="M37.5 75.9C26.6 79.1 23 81.9 23 87.3C23 92.2 30.2 94.7 36.4 91.9C38.5 90.9 39.8 91.2 45.1 93.9C52.5 97.6 52.8 97.6 60.8 94.9L67 92.8L73.9 94.9C82.7 97.6 82.7 97.6 89.6 94C94.5 91.4 95.8 91.1 98.3 92C105 94.3 112 92 112 87.4C112 85.3 110.1 81.8 108.1 80.3C104.6 77.6 88 73.1 88 74.8C88 75.3 89.7 76.1 91.8 76.5C96.9 77.4 104.5 80.8 106.5 83.1C110.4 87.3 104.7 89.5 97 86.9C94.1 85.8 93.1 86.1 87.5 89.1L81.3 92.4L75.3 90.6C69 88.7 64.8 88.8 57.3 91.1C53.3 92.3 52.8 92.2 46.9 89.1C41.1 86.1 40.3 85.9 37 87C31.7 88.7 27.6 88 27.2 85.3C26.8 82.4 31.3 79.6 40.2 77.3C44 76.3 47 75.2 47 74.8C47 73.6 44.2 73.9 37.5 75.9Z" fill="#006671"/>
<path d="M32 97C32 98.6 42.2 106.2 47.8 108.7C61 114.6 79.7 113.6 91.2 106.4C95.9 103.4 102 98.1 102 96.9C102 95.3 100.1 96 94 99.9C84.6 106 79.2 107.5 67 107.5C54.8 107.5 49.3 105.9 40 99.9C33.8 95.9 32 95.2 32 97Z" fill="#006671"/>
</svg>
