<svg xmlns="http://www.w3.org/2000/svg" viewBox="0 0 38 23.9"><defs><style>.a{fill:#e8e8e8;}.b{fill:#fff;}.c{fill:#bbbdbe;}.d{fill:#353231;}</style></defs><title>softbank</title><path class="a" d="M35,0H3A2.94,2.94,0,0,0,0,3V20.91a2.94,2.94,0,0,0,3,3H35a2.94,2.94,0,0,0,3-3V3A3,3,0,0,0,35,0Z"/><path class="b" d="M35,1a2,2,0,0,1,2,2V20.91a2,2,0,0,1-2,2H3a2,2,0,0,1-2-2V3A2,2,0,0,1,3,1H35"/><path class="c" d="M2.29,9.48H8.93v1.64H2.29Z"/><path class="c" d="M2.29,12.77H8.93v1.64H2.29Z"/><path class="d" d="M13.59,10.66c-.14-.69-.29-.92-1.07-.92a1.19,1.19,0,0,0-.79.25.62.62,0,0,0-.23.51.82.82,0,0,0,.23.54,3.51,3.51,0,0,0,.84.53,3.81,3.81,0,0,1,1.19.75,1.27,1.27,0,0,1,.28.79,1.16,1.16,0,0,1-.37.89,1.9,1.9,0,0,1-1.31.42,3.86,3.86,0,0,1-1.24-.23,6.59,6.59,0,0,0-.22-1l.23-.06a1.13,1.13,0,0,0,1.29,1,1.3,1.3,0,0,0,.8-.25.86.86,0,0,0,.34-.7.84.84,0,0,0-.21-.6,3,3,0,0,0-1-.61,3.73,3.73,0,0,1-1.15-.78,1.13,1.13,0,0,1-.2-.64,1,1,0,0,1,.4-.79,1.78,1.78,0,0,1,1.12-.31,2.91,2.91,0,0,1,1.11.19c0,.27.1.64.16.94l-.23.05"/><path class="d" d="M15.06,12.81a1.73,1.73,0,0,1,.27-1.08.89.89,0,0,1,1.3,0,1.73,1.73,0,0,1,.27,1.08,1.76,1.76,0,0,1-.28,1.1.88.88,0,0,1-1.29,0A1.76,1.76,0,0,1,15.06,12.81Zm-.48,0A1.66,1.66,0,0,0,15,14.06a1.41,1.41,0,0,0,1,.33A1.42,1.42,0,0,0,17,14a1.67,1.67,0,0,0,.4-1.24,1.66,1.66,0,0,0-.4-1.2,1.55,1.55,0,0,0-2,0,1.65,1.65,0,0,0-.41,1.2"/><path class="d" d="M18.28,11.53h-.49v-.21h.49v-.42a1.29,1.29,0,0,1,.32-.94,1,1,0,0,1,1.24-.1.56.56,0,0,1,.29.41c0,.13-.07.21-.19.21s-.22-.14-.29-.29-.16-.29-.37-.29A.43.43,0,0,0,19,10a1.31,1.31,0,0,0-.21.88v.39h.84v.21h-.84v2.19c0,.4,0,.44.52.44v.17H17.78v-.17c.46,0,.5,0,.5-.46V11.53"/><path class="d" d="M19.87,11.37c.42,0,.7-.2.79-.9h.17v.84h.7v.21h-.7v2.16c0,.31.09.47.32.47a.65.65,0,0,0,.41-.15l.11.15a.93.93,0,0,1-.65.24.6.6,0,0,1-.65-.68V11.53h-.5v-.15"/><path class="d" d="M23.06,10.07c0-.18,0-.23.2-.23h.63a1.45,1.45,0,0,1,.95.26.86.86,0,0,1,.26.61.88.88,0,0,1-.31.72,1.66,1.66,0,0,1-1.07.29h-.66Zm-.49,3.55c0,.47,0,.51-.54.51v.19H24.2a1.79,1.79,0,0,0,1.34-.41,1.25,1.25,0,0,0,.37-.92,1,1,0,0,0-.42-.82,1.88,1.88,0,0,0-1.1-.35h0a1.62,1.62,0,0,0,.9-.37,1,1,0,0,0,.33-.77.93.93,0,0,0-.42-.78,2.29,2.29,0,0,0-1.37-.29H22v.19c.5,0,.54,0,.54.52ZM23.06,12h.82a1.84,1.84,0,0,1,1.14.27.9.9,0,0,1,.37.73,1.06,1.06,0,0,1-.26.76,1.28,1.28,0,0,1-1,.33h-.82c-.21,0-.25,0-.25-.33V12"/><path class="d" d="M28.12,13.79a1,1,0,0,1-.72.35A.61.61,0,0,1,27,14a.58.58,0,0,1-.15-.42.69.69,0,0,1,.44-.62,3.39,3.39,0,0,1,.86-.33Zm.46-1.63a.88.88,0,0,0-.22-.67,1,1,0,0,0-.8-.26,1.44,1.44,0,0,0-.76.19.62.62,0,0,0-.34.47.18.18,0,0,0,.19.19.22.22,0,0,0,.23-.16.77.77,0,0,1,.21-.33.68.68,0,0,1,.45-.15.55.55,0,0,1,.48.2.84.84,0,0,1,.11.47v.29l-.39.09a2.87,2.87,0,0,0-1,.38.83.83,0,0,0-.41.74.71.71,0,0,0,.27.58,1,1,0,0,0,.61.2,1.24,1.24,0,0,0,.93-.37h0a.41.41,0,0,0,.43.34.88.88,0,0,0,.4-.09l0-.15a.33.33,0,0,1-.18,0c-.13,0-.2-.13-.2-.43V12.17"/><path class="d" d="M32,13.73c0,.37,0,.43.33.43v.17H31.16v-.17c.32,0,.34,0,.34-.44V12.22a.88.88,0,0,0-.16-.61.51.51,0,0,0-.38-.13c-.28,0-.58.25-.84.62v1.61c0,.4,0,.44.32.44v.17H29.27v-.17c.36,0,.38,0,.38-.44V12.09c0-.39,0-.43-.38-.43v-.15a1.58,1.58,0,0,0,.74-.27l.07,0,0,.52h0a1.27,1.27,0,0,1,1-.56.87.87,0,0,1,.64.21,1,1,0,0,1,.24.74v1.53"/><path class="d" d="M33.51,12.68l.95-.93c.18-.17.23-.27-.09-.27v-.17h1v.17a.59.59,0,0,0-.45.2l-.7.67,1,1.55a.47.47,0,0,0,.49.25v.17h-.76l-1.08-1.69L33.5,13v.71c0,.39,0,.44.38.44v.17H32.64v-.17c.38,0,.4-.05.4-.44V10.54c0-.39,0-.43-.4-.43V10a1.89,1.89,0,0,0,.8-.27l.06,0v2.95h0"/></svg>