<?xml version="1.0" encoding="utf-8"?>
<!-- Generator: Adobe Illustrator 25.2.3, SVG Export Plug-In . SVG Version: 6.00 Build 0)  -->
<svg version="1.1" id="图层_1" xmlns="http://www.w3.org/2000/svg" xmlns:xlink="http://www.w3.org/1999/xlink" x="0px" y="0px"
	 viewBox="0 0 30 30" style="enable-background:new 0 0 30 30;" xml:space="preserve">
<style type="text/css">
	.st0{fill:none;}
	.st1{fill:#1677FF;}
	.st2{fill:#3E3A39;}
	.st3{fill:#FFFFFF;}
	.st4{fill:#295DAA;}
	.st5{fill:#FDDB00;}
	.st6{fill:#F9E000;}
	.st7{fill:#1E1E1E;}
	.st8{fill:#3D3A39;}
	.st9{fill-rule:evenodd;clip-rule:evenodd;}
	.st10{fill-rule:evenodd;clip-rule:evenodd;fill:#00A0E9;}
	.st11{fill:#FF5E00;}
	.st12{fill:#457FAD;}
	.st13{fill:#446394;}
	.st14{fill:#6FBAF7;}
	.st15{fill:#007CFF;}
	.st16{fill:#002CB8;}
	.st17{fill:#002CB9;}
	.st18{fill:#6FBBF8;}
	.st19{fill:#0C00BA;}
	.st20{fill:#12D86C;}
	.st21{fill:#EC1B23;}
	.st22{fill:#9C080D;}
	.st23{fill:#FED300;}
	.st24{fill:#FF8300;}
	.st25{fill-rule:evenodd;clip-rule:evenodd;fill:#E60012;}
	.st26{fill:#F4811F;}
	.st27{fill:#6C6E70;}
	.st28{fill-rule:evenodd;clip-rule:evenodd;fill:#108EE9;}
	.st29{fill:#1E22AA;}
	.st30{clip-path:url(#SVGID_2_);}
	.st31{clip-path:url(#SVGID_4_);fill:#002CB9;}
	.st32{clip-path:url(#SVGID_4_);fill:#6FBBF8;}
	.st33{clip-path:url(#SVGID_4_);fill:#007CFF;}
</style>
<g>
	<rect class="st0" width="30" height="30"/>
	<g>
		<path class="st3" d="M20.66,2.92H7.5C4.47,2.92,2,5.39,2,8.42v13.16c0,3.03,2.47,5.5,5.5,5.5h13.17c3.03,0,5.5-2.47,5.5-5.5V8.42
			C26.16,5.39,23.69,2.92,20.66,2.92"/>
		<path class="st4" d="M20.7,3.86H7.46c-2.49,0-4.52,2.03-4.52,4.52v13.25c0,2.49,2.03,4.52,4.52,4.52H20.7
			c2.49,0,4.52-2.03,4.52-4.52V8.38C25.22,5.89,23.19,3.86,20.7,3.86"/>
		<path class="st3" d="M11.6,12.96h-1.12c-0.33,0-0.76,0.23-0.88,0.54l0.11-0.59H8.34l-0.61,3.42h1.37l0.38-2.16h1.48
			c0,0-0.19,1.07-0.27,1.55c-0.08,0.48,0.24,0.6,0.4,0.6h0.72l0.47-2.66C12.24,13.27,11.98,12.96,11.6,12.96"/>
		<polygon class="st3" points="7.35,12.9 7.1,14.37 8.14,12.9 		"/>
		<polygon class="st3" points="8.98,7.55 4.39,7.55 4.19,8.68 5.79,8.68 5.15,12.33 6.53,12.33 7.18,8.68 8.78,8.68 		"/>
		<path class="st3" d="M7.99,12.33c-0.38,0-0.64-0.31-0.57-0.69l0.35-2c0.07-0.38,0.43-0.69,0.81-0.69h2.25
			c0.38,0,0.64,0.31,0.57,0.69l-0.35,2c-0.07,0.38-0.43,0.69-0.81,0.69H7.99z M9.93,11.21l0.2-1.14H8.9l-0.2,1.14H9.93z"/>
		<path class="st3" d="M17.06,11.21l0.2-1.14h1.78l0.2-1.12h-2.29c-0.38,0-0.75,0.31-0.82,0.69l-0.35,2
			c-0.07,0.38,0.19,0.69,0.57,0.69h2.23l0.2-1.12H17.06z"/>
		<path class="st3" d="M14.25,11.21h-1.51l0.4-2.26h-1.2l-0.47,2.69c-0.07,0.38,0.19,0.69,0.57,0.69h1.17
			c0.38,0,0.69-0.23,0.94-0.52c0,0,0.13,0.39,0.33,0.48c0.19,0.09,0.78,0.07,0.78,0.07l0.6-3.41h-1.2L14.25,11.21z"/>
		<path class="st3" d="M22.93,8.97H21.8c-0.33,0-0.65,0.23-0.77,0.54l0.32-1.84h-1.27l-0.82,4.66h1.27l0.38-2.16h1.37
			c0,0-0.19,1.07-0.27,1.55c-0.08,0.48,0.24,0.6,0.4,0.6h0.61l0.47-2.66C23.56,9.28,23.31,8.97,22.93,8.97"/>
		<path class="st3" d="M21.09,16.2l0.36-2.04h-2.03l-0.36,2.04H21.09z M18.42,17.46c-0.51,0-0.86-0.42-0.77-0.93l0.47-2.69
			c0.09-0.51,0.58-0.93,1.1-0.93h2.87c0.51,0,0.86,0.42,0.77,0.93l-0.47,2.69c-0.09,0.51-0.58,0.93-1.1,0.93H18.42z"/>
		<path class="st3" d="M15.64,16.2H13.6l0.36-2.04h3.3l0.22-1.26h-3.71c-0.51,0-1.01,0.42-1.1,0.93l-0.47,2.69
			c-0.09,0.51,0.25,0.93,0.77,0.93h2.87c0.51,0,1.01-0.42,1.1-0.93l0.29-1.65h-1.35L15.64,16.2z"/>
		<polygon class="st5" points="13.28,19.11 11.49,22.8 10.36,22.8 10.22,20.57 9.14,22.8 7.99,22.8 7.77,19.11 8.58,19.11 
			8.72,22.01 10.12,19.11 10.94,19.11 11.08,22.01 12.47,19.11 		"/>
		<polygon class="st5" points="16.66,22.8 15.87,22.8 16.66,19.11 17.45,19.11 		"/>
		<polygon class="st5" points="17.96,22.8 17.17,22.8 17.95,19.11 18.74,19.11 		"/>
		<path class="st5" d="M23.42,22.8h-0.64c-0.3,0-0.5-0.03-0.62-0.09c-0.12-0.06-0.17-0.17-0.17-0.35c0-0.1,0.02-0.21,0.04-0.35
			l0.62-2.91h0.79l-0.2,0.92h0.76l-0.15,0.67h-0.75l-0.22,1.05c-0.02,0.11-0.03,0.18-0.03,0.21c0,0.07,0.02,0.12,0.07,0.14
			c0.05,0.02,0.15,0.03,0.3,0.03h0.33L23.42,22.8z"/>
		<path class="st5" d="M6.59,21.08H5.71v0H5.18c0.02-0.09,0.04-0.15,0.06-0.2c0.02-0.05,0.05-0.09,0.09-0.12
			c0.04-0.03,0.08-0.05,0.14-0.05c0.06-0.01,0.13-0.01,0.22-0.01h0.63c0.21,0,0.31,0.06,0.31,0.19C6.63,20.89,6.61,20.96,6.59,21.08
			 M7.28,20.11c-0.12-0.06-0.32-0.09-0.62-0.09H5.54c-0.33,0-0.57,0.06-0.74,0.18c-0.17,0.12-0.28,0.32-0.34,0.61l-0.25,1.2
			c-0.02,0.07-0.03,0.14-0.04,0.2c-0.01,0.06-0.01,0.11-0.01,0.16c0,0.09,0.01,0.16,0.04,0.21c0.03,0.05,0.07,0.1,0.13,0.13
			c0.06,0.03,0.14,0.06,0.24,0.07c0.1,0.01,0.23,0.02,0.39,0.02h1.92l0.14-0.66H5.39c-0.15,0-0.25-0.01-0.3-0.04
			c-0.05-0.02-0.07-0.07-0.07-0.14c0-0.05,0.01-0.12,0.03-0.21l0,0h0.33l0,0h1.84l0.2-0.94c0.03-0.14,0.04-0.25,0.04-0.35
			C7.46,20.29,7.4,20.17,7.28,20.11"/>
		<path class="st5" d="M13.5,22.13c-0.12,0-0.17-0.05-0.17-0.15c0-0.06,0.02-0.11,0.07-0.16c0.05-0.05,0.11-0.07,0.19-0.07h0.85l0,0
			h0.33l-0.08,0.39H13.5z M15.76,20.25c-0.03-0.06-0.07-0.1-0.13-0.13c-0.06-0.03-0.14-0.05-0.24-0.07
			c-0.1-0.01-0.23-0.02-0.38-0.02H13.1l-0.14,0.67h1.62c0.15,0,0.25,0.01,0.3,0.03c0.05,0.02,0.07,0.07,0.07,0.14
			c0,0.03-0.01,0.1-0.03,0.21h-0.63v0h-0.62c-0.18,0-0.34,0.01-0.46,0.03c-0.12,0.02-0.22,0.06-0.3,0.11
			c-0.08,0.06-0.15,0.13-0.19,0.24c-0.05,0.1-0.09,0.24-0.13,0.4l-0.03,0.15c-0.03,0.13-0.05,0.25-0.05,0.35
			c0,0.09,0.01,0.16,0.04,0.22c0.03,0.06,0.07,0.1,0.13,0.13c0.06,0.03,0.14,0.05,0.24,0.07c0.1,0.01,0.23,0.02,0.38,0.02h2.04
			l0.42-1.99c0.03-0.13,0.04-0.25,0.04-0.35C15.8,20.37,15.79,20.3,15.76,20.25"/>
		<path class="st5" d="M21.01,21.08h-0.83v0H19.6c0.02-0.09,0.04-0.15,0.06-0.2c0.02-0.05,0.05-0.09,0.09-0.12
			c0.04-0.03,0.08-0.05,0.14-0.05c0.06-0.01,0.13-0.01,0.22-0.01h0.63c0.21,0,0.31,0.06,0.31,0.19
			C21.05,20.89,21.04,20.96,21.01,21.08 M21.7,20.11c-0.12-0.06-0.32-0.09-0.62-0.09h-1.13c-0.33,0-0.57,0.06-0.74,0.18
			c-0.17,0.12-0.28,0.32-0.34,0.61l-0.25,1.2c-0.02,0.07-0.03,0.14-0.04,0.2c-0.01,0.06-0.01,0.11-0.01,0.16
			c0,0.09,0.01,0.16,0.04,0.21c0.03,0.05,0.07,0.1,0.13,0.13c0.06,0.03,0.14,0.06,0.24,0.07c0.1,0.01,0.23,0.02,0.39,0.02h1.92
			l0.14-0.66h-1.62c-0.15,0-0.25-0.01-0.3-0.04c-0.05-0.02-0.07-0.07-0.07-0.14c0-0.05,0.01-0.12,0.03-0.21l0,0h0.33l0,0h1.84
			l0.2-0.94c0.03-0.14,0.04-0.25,0.04-0.35C21.88,20.29,21.82,20.17,21.7,20.11"/>
		<polygon class="st4" points="26.89,3.93 26.57,3.93 26.57,4.9 26.49,4.9 26.49,3.93 26.16,3.93 26.16,3.86 26.89,3.86 		"/>
		<polygon class="st4" points="28,4.9 27.92,4.9 27.92,3.98 27.54,4.62 27.52,4.62 27.14,3.98 27.14,4.9 27.06,4.9 27.06,3.86 
			27.16,3.86 27.53,4.48 27.9,3.86 28,3.86 		"/>
	</g>
</g>
</svg>
