<svg xmlns="http://www.w3.org/2000/svg" xmlns:xlink="http://www.w3.org/1999/xlink" width="38" height="24" viewBox="0 0 38 24">
  <defs>
    <style>
      .a {
        fill: #e8e8e8;
      }

      .b {
        fill: #fff;
      }

      .c {
        fill: url(#a);
      }

      .d {
        fill: url(#b);
      }
    </style>
    <linearGradient id="a" x1="7.67" y1="14.85" x2="30.31" y2="9.2" gradientUnits="userSpaceOnUse">
      <stop offset="0.14" stop-color="#0a3289"/>
      <stop offset="0.16" stop-color="#173b82"/>
      <stop offset="0.18" stop-color="#395170"/>
      <stop offset="0.22" stop-color="#717653"/>
      <stop offset="0.26" stop-color="#bda82b"/>
      <stop offset="0.29" stop-color="#f3cc0f"/>
      <stop offset="0.31" stop-color="#f1c20f"/>
      <stop offset="0.36" stop-color="#eca911"/>
      <stop offset="0.42" stop-color="#e37f13"/>
      <stop offset="0.49" stop-color="#d74516"/>
      <stop offset="0.55" stop-color="#cd1318"/>
      <stop offset="0.64" stop-color="#cb1319"/>
      <stop offset="0.67" stop-color="#c4141d"/>
      <stop offset="0.69" stop-color="#b81624"/>
      <stop offset="0.71" stop-color="#a7192e"/>
      <stop offset="0.73" stop-color="#911c3b"/>
      <stop offset="0.75" stop-color="#75204c"/>
      <stop offset="0.76" stop-color="#54255f"/>
      <stop offset="0.77" stop-color="#2f2a75"/>
      <stop offset="0.78" stop-color="#09308b"/>
      <stop offset="0.86" stop-color="#2ca53b"/>
      <stop offset="0.87" stop-color="#35a739"/>
      <stop offset="0.89" stop-color="#4fac34"/>
      <stop offset="0.91" stop-color="#79b32c"/>
      <stop offset="0.94" stop-color="#b2be21"/>
      <stop offset="0.97" stop-color="#f1ca15"/>
    </linearGradient>
    <linearGradient id="b" x1="6.5" y1="12" x2="31.5" y2="12" gradientUnits="userSpaceOnUse">
      <stop offset="0" stop-color="#7f8085"/>
      <stop offset="0.18" stop-color="#626266"/>
      <stop offset="0.38" stop-color="#48474a"/>
      <stop offset="0.59" stop-color="#363436"/>
      <stop offset="0.79" stop-color="#2b292a"/>
      <stop offset="1" stop-color="#272526"/>
    </linearGradient>
  </defs>
  <title>webmoney</title>
  <g>
    <path class="a" d="M35,0H3A3,3,0,0,0,0,3V21a3,3,0,0,0,3,3H35a3,3,0,0,0,3-3V3A3,3,0,0,0,35,0Z"/>
    <path class="b" d="M35,1a2,2,0,0,1,2,2V21a2,2,0,0,1-2,2H3a2,2,0,0,1-2-2V3A2,2,0,0,1,3,1H35"/>
  </g>
  <path class="c" d="M8.26,4.78s-1.1-.18-1.55,1.59.88,9.54,1.77,10.91.71,1.32,1.1,1.63a1.92,1.92,0,0,0,1.94.4c1.1-.26,1.77-2.78,1.94-3.44l.1-.18s1.55,3.95,3.07,3.72,1.85-1,2.32-2.08S21.2,8,21.2,8a5.72,5.72,0,0,1,1,2.21c.35,1.44.18,3,1,3s1,0,1.59-1.21S26.58,8.1,26.58,8.1a7.89,7.89,0,0,1,.6,3.18c.18,2.54.55,6.93,1.44,7.53a1.74,1.74,0,0,0,1.88.29c.46-.2,1.24-1.13.71-4.9S30.14,8,29.48,6.71s-1.26-2.05-2.41-2.12S25.26,5.91,25,6.48a14.56,14.56,0,0,0-.57,1.74,12.36,12.36,0,0,0-1.81-3,1.73,1.73,0,0,0-2.16-.29A3.89,3.89,0,0,0,19,7c-.5,1.46-2.13,8.9-2.13,8.9s-.82-.46-1-2.16a8.31,8.31,0,0,0-.42-2.5c-.2-.38-.26-.51-.71-.49a1.16,1.16,0,0,0-1.15.79c-.29.66-1.32,2.65-1.41,2.94S11.48,16,11.48,16a24.53,24.53,0,0,1-.66-3.89,40.05,40.05,0,0,0-.82-6C9.67,5,9.25,4.92,8.87,4.85A3.94,3.94,0,0,0,8.26,4.78Z"/>
  <path class="d" d="M16.52,19.54c-1.33,0-2.59-2.68-3-3.55-.57,2.11-1.25,3.26-2,3.44a2,2,0,0,1-2-.41A1.48,1.48,0,0,1,9,18.43c-.12-.21-.3-.53-.66-1.08C7.51,16,6.12,8.21,6.59,6.34s1.54-1.7,1.67-1.68a4.13,4.13,0,0,1,.63.07c.45.08.89.25,1.22,1.37a40.54,40.54,0,0,1,.82,6,23.88,23.88,0,0,0,.58,3.53c.21-.43.47-1,.53-1.15s.35-.76.7-1.46.59-1.18.72-1.49a1.28,1.28,0,0,1,1.26-.87c.52,0,.62.16.82.54a5.47,5.47,0,0,1,.36,1.89l.08.65a3.1,3.1,0,0,0,.81,2c.27-1.21,1.64-7.38,2.09-8.72a4,4,0,0,1,1.41-2.1l.07-.06a1.84,1.84,0,0,1,2.33.29,10.9,10.9,0,0,1,1.7,2.73,11.62,11.62,0,0,1,.49-1.43c.25-.55.91-2,2.11-2h.09c1.22.07,1.84.86,2.51,2.19s1.19,3.63,1.73,7.52-.26,4.81-.78,5a1.87,1.87,0,0,1-2-.3c-.69-.46-1.16-2.89-1.49-7.62a11.21,11.21,0,0,0-.47-2.88c-.32.7-1.2,2.66-1.7,3.66-.62,1.24-.83,1.33-1.71,1.28-.65,0-.75-.84-.86-1.77a12,12,0,0,0-.22-1.33,6.15,6.15,0,0,0-.83-1.94c-.31,1.46-1.76,8.13-2.18,9.07l0,.07a2.79,2.79,0,0,1-2.38,2.08ZM13.59,15.4l.09.24c.42,1.07,1.77,3.82,2.94,3.64,1.42-.21,1.74-.93,2.19-1.94l0-.07c.45-1,2.2-9.21,2.22-9.29l.05-.25.16.19a5.8,5.8,0,0,1,1,2.26,12.07,12.07,0,0,1,.23,1.36c.12.94.21,1.52.63,1.55.74,0,.87,0,1.47-1.15s1.8-3.88,1.81-3.9l.09-.21.13.19a8,8,0,0,1,.62,3.24c.31,4.53.78,7,1.38,7.44a1.6,1.6,0,0,0,1.76.27c.29-.12,1.19-.83.63-4.77S30,8,29.37,6.76s-1.2-2-2.3-2.05H27c-1,0-1.65,1.32-1.88,1.83a14.44,14.44,0,0,0-.57,1.72l-.09.35-.14-.33a12.36,12.36,0,0,0-1.78-3,1.61,1.61,0,0,0-2-.28l-.08.06a3.78,3.78,0,0,0-1.33,2C18.63,8.51,17,15.89,17,16l0,.17L16.81,16a2.87,2.87,0,0,1-1.08-2.26l-.08-.65a5.49,5.49,0,0,0-.33-1.8c-.2-.37-.23-.44-.59-.42a1,1,0,0,0-1,.72c-.14.31-.44.92-.73,1.5s-.64,1.28-.68,1.42c-.09.29-.67,1.45-.69,1.5l-.15.3L11.36,16a25,25,0,0,1-.67-3.91,40.43,40.43,0,0,0-.81-6C9.56,5.1,9.17,5,8.85,5a3.88,3.88,0,0,0-.6-.06h0s-1-.13-1.41,1.5c-.44,1.77.93,9.54,1.75,10.81.36.56.54.88.66,1.09a1.23,1.23,0,0,0,.41.51,1.8,1.8,0,0,0,1.84.38c.47-.11,1.17-.78,1.85-3.34l0,0Z"/>
</svg>
